<?xml version="1.0" encoding="utf-8" ?>
<svg baseProfile="full" height="200mm" version="1.1" viewBox="0,0,200,200" width="200mm" xmlns="http://www.w3.org/2000/svg" xmlns:ev="http://www.w3.org/2001/xml-events" xmlns:xlink="http://www.w3.org/1999/xlink"><defs /><rect fill="#1a1a1a" height="200" width="200" x="0" y="0" /><text alignment-baseline="middle" fill="#e1ed5e" style="dominant-baseline: central; font-size:9.0px; font-family:Arial;" text-anchor="middle" x="100.0" y="100.0">2023</text><line stroke="#e1ed5e" stroke-width="0.3" x1="100.0" x2="100.0" y1="15.0" y2="10.0" /><path d="M 100.0 14.0 a86.0,86.0 0 0,1 42.46469731375804,11.215312516191453" fill="none" id="id25" stroke="none" /><text fill="#e1ed5e" style="font-size:6.75px; font-family:Arial;" text-anchor="middle"><textPath startOffset="22.20632615414155" xlink:href="#id25">January</textPath></text><path d="M 100.36148047927253 79.00311137660856 l 0.801543671430389 -46.55831825186797 a67.56521739130434,67.56521739130434 0 0,0 1.162679521546947,0.030028581802842888 l -1.6028498281722037 46.53762287792277" fill="#38ff82" stroke="none" /><path d="M 100.72285384407766 79.0124445844662 l 1.3633652067864748 -39.5843545185155 a60.60782608695653,60.60782608695653 0 0,0 1.042336762869399,0.0448852136227805 l -2.044542802045205 39.555021578368525" fill="#30ff2f" stroke="none" /><path d="M 101.08401301168833 79.027996857942 l 1.908805520581623 -36.928962054493425 a57.97826086956522,57.97826086956522 0 0,0 0.9962265173341149,0.06009510410220395 l -2.5441940867553496 36.89063368101092" fill="#4aff2c" stroke="none" /><path d="M 101.44485096284872 79.0497635885617 l 2.5366557339057048 -36.781328099733855 a57.86869565217392,57.86869565217392 0 0,0 0.993164078183253,0.07708864706500516 l -3.1694100014512987 36.732214190480384" fill="#4bff2c" stroke="none" /><path d="M 101.80526077348638 79.07773832637324 l 3.1458631217971287 -36.45931512517221 a57.59478260869566,57.59478260869566 0 0,0 0.9869959557890173,0.09372715878185037 l -3.77298420467639 36.39976242187518" fill="#4eff2b" stroke="none" /><path d="M 102.16513564639614 79.11191278185805 l 5.388363669552808 -51.98409184201934 a73.26260869565218,73.26260869565218 0 0,0 1.2532556395817238,0.14081787363126044 l -6.282386012644257 51.88363801491748" fill="#3fffc1" stroke="none" /><path d="M 102.88285421437855 79.19881850522331 l 5.083850736312801 -36.682431366440966 a58.03304347826087,58.03304347826087 0 0,0 0.9883055479980278,0.14565054724907886 l -5.714525264739485 36.58948633503092" fill="#4aff2c" stroke="none" /><path d="M 103.2404852339499 79.25152402106235 l 6.052662854369039 -38.754544698050495 a60.224347826086955,60.224347826086955 0 0,0 1.0228698070904259,0.16878228245662422 l -6.71886186759834 38.644616152654244" fill="#34ff2f" stroke="none" /><path d="M 103.59715602781102 79.31037775812273 l 6.20274817665154 -35.67610513534142 a57.211304347826086,57.211304347826086 0 0,0 0.9687913787692275,0.17704043211142276 l -6.815934676523669 35.56404922187926" fill="#52ff2b" stroke="none" /><path d="M 103.95276090670814 79.375362276772 l 6.949984829012031 -36.26349345771047 a57.923478260869565,57.923478260869565 0 0,0 0.977620303626329,0.19610143593312626 l -7.573171542105485 36.13848806570014" fill="#4bff2c" stroke="none" /><path d="M 105.71112130821622 79.79150937346287 l 10.056539694902467 -35.58451610325015 a57.97826086956522,57.97826086956522 0 0,0 0.9580487467201033,0.2796807005940143 l -10.667578659345997 35.40613707373743" fill="#4aff2c" stroke="none" /><path d="M 106.0581310904928 79.89281104454417 l 10.667578659345997 -35.40613707373743 a57.97826086956522,57.97826086956522 0 0,0 0.9530925579508431,0.29613049717217144 l -11.27545659000756 35.21726644168274" fill="#4aff2c" stroke="none" /><path d="M 106.40334571778207 80.00007090966166 l 11.459204771474349 -35.791177450362014 a58.58086956521739,58.58086956521739 0 0,0 0.9577056576054997,0.31574049789249586 l -12.073593251322265 35.58862322821028" fill="#44ff2d" stroke="none" /><path d="M 109.73455568895987 81.39251694778311 l 17.826934157347374 -34.075964615625026 a59.45739130434782,59.45739130434782 0 0,0 0.9027754160902772,0.4822313621828596 l -18.410854619965964 33.76405452694041" fill="#3bff2e" stroke="none" /><path d="M 110.05341064243156 81.56283822128135 l 16.968408745182305 -31.118722619559044 a56.444347826086954,56.444347826086954 0 0,0 0.8490195136333387,0.4724784401230294 l -17.501552347887678 30.822028781875833" fill="#5aff2a" stroke="none" /><path d="M 110.36928655335952 81.73862282372117 l 18.23191079208083 -32.10826491342243 a57.923478260869565,57.923478260869565 0 0,0 0.8627930127130249,0.49978540239892427 l -18.78190053725918 31.78967535363346" fill="#4bff2c" stroke="none" /><line stroke="#e1ed5e" stroke-width="0.3" x1="143.23703022742887" x2="145.7803849466894" y1="26.81831364943548" y2="22.513508569990506" /><path d="M 143.74570117128098 25.957352633546492 a86.0,86.0 0 0,1 28.547481713284135,27.462654790039103" fill="none" id="id26" stroke="none" /><text fill="#e1ed5e" style="font-size:6.75px; font-family:Arial;" text-anchor="middle"><textPath startOffset="19.985693538727396" xlink:href="#id26">February</textPath></text><path d="M 110.68208982089419 81.91981866633111 l 18.698301573443487 -31.64817828232648 a57.759130434782605,57.759130434782605 0 0,0 0.8516389430900978,0.5131029341586105 l -19.24030258275122 31.321628738709258" fill="#4dff2c" stroke="none" /><path d="M 110.99172775467656 82.1063720568725 l 19.326324799961736 -31.461665826959823 a57.923478260869565,57.923478260869565 0 0,0 0.8450783031958096,0.5291879559335835 l -19.86502225552981 31.124333529703293" fill="#4bff2c" stroke="none" /><path d="M 111.2981086023043 82.29822771554956 l 19.982915562684287 -31.309047675280166 a58.14260869565217,58.14260869565217 0 0,0 0.8390060781763929,0.5457128917183155 l -20.51888866664496 30.960435859402324" fill="#49ff2c" stroke="none" /><path d="M 112.19680574252982 82.90503203632743 l 21.44516627077852 -30.05741323699647 a57.923478260869565,57.923478260869565 0 0,0 0.8066663100224194,0.5860773801404412 l -21.959377897154724 29.683816622039355" fill="#4bff2c" stroke="none" /><path d="M 112.48926042617603 83.11751280151076 l 21.99195857652736 -29.72785789299194 a57.97826086956522,57.97826086956522 0 0,0 0.7972117059279428,0.6004433289729867 l -22.500416436213683 29.344897974513103" fill="#4aff2c" stroke="none" /><path d="M 112.77801427241765 83.33499621200491 l 22.400414585386066 -29.214476205737487 a57.81391304347826,57.81391304347826 0 0,0 0.7845277655349944,0.6123363649732805 l -22.89997490608049 28.824561451540983" fill="#4cff2c" stroke="none" /><path d="M 113.34407831869373 83.78471172551755 l 23.56680266544953 -28.637609117803354 a58.087826086956525,58.087826086956525 0 0,0 0.7666001521156937,0.6420055811567483 l -24.05626035452434 28.227702379252786" fill="#49ff2c" stroke="none" /><path d="M 114.16331599549186 84.49514656593476 l 24.90280429816046 -27.261577081460793 a57.923478260869565,57.923478260869565 0 0,0 0.73036573269804,0.6787953504097742 l -25.368377914653347 26.828877144976378" fill="#4bff2c" stroke="none" /><path d="M 114.42810811169701 84.74124197986012 l 25.368377914653347 -26.828877144976378 a57.923478260869565,57.923478260869565 0 0,0 0.7185731750099211,0.6912668250347638 l -25.82643433327569 26.38822723317931" fill="#4bff2c" stroke="none" /><path d="M 114.68862486808459 84.99185889309783 l 26.362888458892694 -26.936350647518353 a58.690434782608705,58.690434782608705 0 0,0 0.7159232506628048,0.7128488487047988 l -26.822647509722824 26.478565948163435" fill="#43ff2d" stroke="none" /><path d="M 114.94478906791727 85.2469230424477 l 26.354810634553235 -26.016730495579186 a58.03304347826087,58.03304347826087 0 0,0 0.6956662347404517,0.7169452056884668 l -26.798741132996795 25.559221094340604" fill="#4aff2c" stroke="none" /><path d="M 115.19652480421416 85.50635884689758 l 27.31410153940058 -26.050744576924078 a58.74521739130435,58.74521739130435 0 0,0 0.6916065436704529,0.737757639915911 l -27.758475405041494 25.576717520130114" fill="#43ff2d" stroke="none" /><path d="M 115.4437574822437 85.77008943001954 l 28.161356035013068 -25.947932578477428 a59.29304347826087,59.29304347826087 0 0,0 0.6851349555823759,0.7565431302050212 l -28.60383463121148 25.459336661002855" fill="#3dff2e" stroke="none" /><path d="M 115.68641384162765 86.03803664274999 l 2.7417123323192683 -2.440308378093263 a24.670434782608694,24.670434782608694 0 0,0 0.2796078193968061,0.3196400726694065 l -2.7833120152939226 2.3927527492209086" fill="#ff1302" stroke="none" /><path d="M 115.9244219780498 86.31012108654704 l 30.07638655332538 -25.856014782625948 a60.662608695652175,60.662608695652175 0 0,0 0.673902036518084,0.7976874515931374 l -30.516999203330585 25.334468381403703" fill="#2fff2f" stroke="none" /><path d="M 116.15771136456269 86.58626213691792 l 29.29463321314193 -24.319689951761845 a59.073913043478264,59.073913043478264 0 0,0 0.6427846766372325,0.7879780098415597 l -29.70891638185557 23.81182777231218" fill="#3fff2d" stroke="none" /><path d="M 116.38621287248628 86.86637796730983 l 32.18822163386654 -25.799001888562696 a62.25130434782609,62.25130434782609 0 0,0 0.6629642950045014,0.8418973295774715 l -32.62754000946501 25.241112165032188" fill="#31ff43" stroke="none" /><path d="M 116.60985879189232 87.15038557335679 l 29.334454962028964 -22.69353643522814 a58.087826086956525,58.087826086956525 0 0,0 0.6050097688235608,0.7961219373238542 l -29.720740671076637 22.185229722023255" fill="#49ff2c" stroke="none" /><path d="M 116.82858285166822 87.43820079747576 l 29.545138067407052 -22.054150078170824 a57.86869565217391,57.86869565217391 0 0,0 0.58898589647332,0.8033761008739447 l -29.920386576393998 21.542311533625384" fill="#4bff2c" stroke="none" /><path d="M 117.04232023915458 87.72973835380427 l 12.137095892058785 -8.73856025063853 a35.955652173913045,35.955652173913045 0 0,0 0.3573090883531779,0.5053883659536516 l -12.285717600215847 8.528345384353086" fill="#ffb110" stroke="none" /><path d="M 117.45458315368197 88.32363383020206 l 30.507575772957175 -20.40825739242944 a57.70434782608696,57.70434782608696 0 0,0 0.5451779411034411,0.8303434068091742 l -30.854350349418542 19.880095921642592" fill="#4dff2c" stroke="none" /><path d="M 117.65298651832404 88.62581576622439 l 31.130657964487963 -20.058126631388642 a58.03304347826087,58.03304347826087 0 0,0 0.5338277383742199,0.8443872830993502 l -31.471313299108136 19.51929170057509" fill="#4aff2c" stroke="none" /><line stroke="#e1ed5e" stroke-width="0.3" x1="172.23445277983987" x2="176.4835382374775" y1="55.19839476539836" y2="52.563006222186495" /><path d="M 173.08426987136738 54.67131705675599 a86.0,86.0 0 0,1 12.851231095245387,41.99856678651699" fill="none" id="id27" stroke="none" /><text fill="#e1ed5e" style="font-size:6.75px; font-family:Arial;" text-anchor="middle"><textPath startOffset="22.20632615414155" xlink:href="#id27">March</textPath></text><path d="M 117.84615892207809 88.93136811851018 l 31.424758101920105 -19.49041700871033 a57.97826086956522,57.97826086956522 0 0,0 0.5187237742967296,0.8526454957108839 l -31.75559767450306 18.946603739792366" fill="#4aff2c" stroke="none" /><path d="M 118.03404312379186 89.2402003453031 l 31.75559767450306 -18.946603739792366 a57.97826086956522,57.97826086956522 0 0,0 0.5039700291797485,0.861448144153376 l -32.07702737815313 18.397176183285094" fill="#4aff2c" stroke="none" /><path d="M 118.21658344932153 89.55222093294921 l 31.934462812028002 -18.315410955803824 a57.81391304347825,57.81391304347825 0 0,0 0.48768061536361484,0.8675293978664715 l -32.24500106868405 17.762998048002558" fill="#4cff2c" stroke="none" /><path d="M 118.3937258080291 89.86733742301442 l 13.483400744494379 -7.427682219477263 a36.393913043478264,36.393913043478264 0 0,0 0.29754952891965186,0.5513140871464434 l -13.609258372632494 7.194487148998361" fill="#ffb710" stroke="none" /><path d="M 118.56541770881063 90.18545643968196 l 3.099617565297079 -1.6386020552878822 a24.506086956521738,24.506086956521738 0 0,0 0.19393716582532508,0.3746248754144498 l -3.1273641642825205 1.5850044576130875" fill="#ff1001" stroke="none" /><path d="M 118.73160827565052 90.50648371742162 l 31.664562163360536 -16.04817013333252 a56.499130434782614,56.499130434782614 0 0,0 0.4321914086279612,0.8712715071167385 l -31.936113584941904 15.50073903771683" fill="#5aff2a" stroke="none" /><path d="M 118.89224826269711 90.83032412892265 l 33.118932606606414 -16.07484048355819 a57.81391304347826,57.81391304347826 0 0,0 0.42683683330173905,0.8990272278974341 l -33.390727633749904 15.502370840020216" fill="#4cff2c" stroke="none" /><path d="M 119.04729006885535 91.15688171328212 l 33.539793382114865 -15.571577852698878 a57.97826086956522,57.97826086956522 0 0,0 0.41246751620988986,0.9088174973273484 l -33.8028632152881 14.991938346529468" fill="#4aff2c" stroke="none" /><path d="M 119.196687751892 91.48605970444005 l 33.8028632152881 -14.991938346529468 a57.97826086956522,57.97826086956522 0 0,0 0.39676260543433794,0.9157827964674228 l -34.05591653056512 14.407856405475442" fill="#4aff2c" stroke="none" /><path d="M 119.34039704204932 91.81776055985345 l 33.955010111215294 -14.365166460570329 a57.86869565217391,57.86869565217391 0 0,0 0.3802202384849047,0.9207334662899846 l -34.1972520365864 13.778558423827041" fill="#4bff2c" stroke="none" /><path d="M 119.61058180528143 92.48833698450437 l 46.45149985877097 -17.792843525400098 a70.74260869565218,70.74260869565218 0 0,0 0.42578767316930766,1.1408992757811853 l -46.750892120441904 16.99062111258958" fill="#3cffa6" stroke="none" /><path d="M 119.7369772167798 92.82701384747503 l 34.65126695711167 -12.593268732128617 a57.86869565217391,57.86869565217391 0 0,0 0.33218537992496827,0.9391328016122248 l -34.86290541784645 11.994938304089779" fill="#4bff2c" stroke="none" /><path d="M 119.85752413597 93.16781622104841 l 34.914707654722896 -12.012761392208782 a57.923478260869565,57.923478260869565 0 0,0 0.3162696557877786,0.9456060152438435 l -35.116314604282444 11.409982274042624" fill="#4bff2c" stroke="none" /><path d="M 119.97218684219823 93.5106431181261 l 35.0642132473028 -11.393053516959478 a57.86869565217392,57.86869565217392 0 0,0 0.2996620625552649,0.9500106283431982 l -35.25513079362627 10.78779272218986" fill="#4bff2c" stroke="none" /><path d="M 120.08093135843002 93.85539295169968 l 35.15036071697359 -10.755733902807421 a57.759130434782605,57.759130434782605 0 0,0 0.282728476031031,0.9532198693223704 l -35.330295090116316 10.14908464673852" fill="#4dff2c" stroke="none" /><path d="M 120.18372546131832 94.20196356495316 l 35.64621427125 -10.23983652137404 a58.087826086956525,58.087826086956525 0 0,0 0.26779381115512957,0.9633968207167949 l -35.8171948529715 9.624728397238291" fill="#49ff2c" stroke="none" /><path d="M 120.28053869075195 94.5502522615342 l 2.592381902209162 -0.6966199283082366 a23.684347826086956,23.684347826086956 0 0,0 0.10241074570801514,0.39463037918534 l -2.60398897978748 0.6518931235740462" fill="#ff0400" stroke="none" /><path d="M 120.37134235888165 94.90015583598534 l 2.3382758185846773 -0.5853734170868989 a23.410434782608696,23.410434782608696 0 0,0 0.09449700005706912,0.3917510721849055 l -2.3480056189025658 0.5450371132425873" fill="#ff0000" stroke="none" /><path d="M 120.45610955862082 95.25157060432595 l 35.91381321639606 -8.336590391187753 a57.86869565217392,57.86869565217392 0 0,0 0.21688529355699385,0.9722542440836214 l -36.051992896955085 7.7171579775541685" fill="#4bff2c" stroke="none" /><path d="M 120.53481517161879 95.60439243477599 l 36.051992896955085 -7.7171579775541685 a57.86869565217392,57.86869565217392 0 0,0 0.20011740108293463,0.9758435179288244 l -36.179489593953015 7.095438803461932" fill="#4bff2c" stroke="none" /><path d="M 120.6074358757038 95.95851677861258 l 36.287006650695815 -7.116524802877866 a57.97826086956522,57.97826086956522 0 0,0 0.18363724050973632,0.980997481788142 l -36.40412961511541 6.490849243627161" fill="#4aff2c" stroke="none" /><path d="M 120.67395015179393 96.31383870115 l 36.35019757124117 -6.481233170673639 a57.923478260869565,57.923478260869565 0 0,0 0.1665662393546544,0.9830833734453585 l -36.456375672116046 5.854564008912442" fill="#4bff2c" stroke="none" /><path d="M 120.73433829027371 96.67025291283417 l 36.51046525026458 -5.863250305661571 a57.97826086956522,57.97826086956522 0 0,0 0.14976090289584595,0.9867372331783819 l -36.60598204659973 5.233913960091106" fill="#4aff2c" stroke="none" /><path d="M 120.83666639777658 97.38593545837742 l 62.50999919332973 -7.84219362486773 a84.0,84.0 0 0,0 0.16763858798564435,1.436225046700589 l -62.63572813431897 6.7650248398422885" fill="#4dd2ff" stroke="none" /><path d="M 120.87857604477298 97.74499172005257 l 36.65551742121449 -3.9590101888816176 a57.86869565217391,57.86869565217391 0 0,0 0.09843981627218898,0.9912755158240396 l -36.718234363168904 3.3274591423531428" fill="#4bff2c" stroke="none" /><path d="M 120.91429891909075 98.10471618934814 l 36.60911628185191 -3.3175707050801764 a57.759130434782605,57.759130434782605 0 0,0 0.08120800667733748,0.9909433738015889 l -36.66079877234874 2.6869134140708186" fill="#4dff2c" stroke="none" /><path d="M 120.94382443527127 98.46500227214037 l 36.824706963581306 -2.6989264397671118 a57.923478260869565,57.923478260869565 0 0,0 0.06432101333390783,0.9950176071211932 l -36.865708567919626 2.0646497683928833" fill="#4bff2c" stroke="none" /><path d="M 120.96714384426684 98.82574320788733 l 37.52207133174015 -2.101409111450323 a58.58086956521739,58.58086956521739 0 0,0 0.047719395466907226,1.0072810173507971 l -37.55268433544056 1.4552169874765264" fill="#44ff2d" stroke="none" /><path d="M 120.98425023603335 99.18683210126433 l 36.950527589536996 -1.4318826042954158 a57.97826086956522,57.97826086956522 0 0,0 0.030061191394197325,0.997584592978807 l -36.96970047538684 0.7956278638916099" fill="#4aff2c" stroke="none" /><line stroke="#e1ed5e" stroke-width="0.3" x1="184.98032266829074" x2="189.97916517819016" y1="98.17113171792111" y2="98.06355123074" /><path d="M 185.9800911702706 98.14961562048488 a86.0,86.0 0 0,1 -9.607161424134198,41.387399972396054" fill="none" id="id28" stroke="none" /><text fill="#e1ed5e" style="font-size:6.75px; font-family:Arial;" text-anchor="middle"><textPath startOffset="21.466115282336823" xlink:href="#id28">April</textPath></text><path d="M 120.99513854157772 99.54816195383933 l 40.3106659998292 -0.8675290486284813 a61.32,61.32 0 0,0 0.01362761921627059,1.0554741264634488 l -40.319626626163185 0.17351866410456973" fill="#30ff37" stroke="none" /><path d="M 120.99980553446 99.90962569577887 l 44.37350212933721 -0.1909648341368227 a65.37391304347827,65.37391304347827 0 0,0 -0.004842970177025402,1.1253357113311382 l -44.37021486187068 -0.5728803553980002" fill="#35ff68" stroke="none" /><path d="M 120.99824983174949 100.27111621757518 l 38.892410557936024 0.5021543855957779 a59.89565217391304,59.89565217391304 0 0,0 -0.02218402990710917,1.0308046993116724 l -38.878004465343906 -1.171548900697565" fill="#37ff2e" stroke="none" /><path d="M 120.9904718944345 100.63252640178507 l 28.912093461551528 0.8712363655891753 a49.92521739130435,49.92521739130435 0 0,0 -0.033278407638965626,0.8587678318814845 l -28.89281292106136 -1.368781444484666" fill="#a1ff22" stroke="none" /><path d="M 120.9764740272857 100.99374915477107 l 2.6266193564601252 0.12443467677133335 a23.629565217391306,23.629565217391306 0 0,0 -0.022744749523075727,0.40612278179301065 l -2.6240882560495202 -0.16962917489976734" fill="#ff0300" stroke="none" /><path d="M 120.95626037817324 101.35467743843564 l 37.50259465937437 2.424283624609173 a58.58086956521739,58.58086956521739 0 0,0 -0.07370991287374325,1.0057131983637921 l -37.45530818783628 -3.0694699594697354" fill="#44ff2d" stroke="none" /><path d="M 120.92983693683757 101.71520430193887 l 34.50693115847308 2.8278498751966077 a55.622608695652175,55.622608695652175 0 0,0 -0.08641476499132915,0.9535797308530906 l -34.45314179720467 -3.421410994598269" fill="#63ff29" stroke="none" /><path d="M 120.89721153311464 102.0752229133903 l 36.63372039196446 3.637955994256387 a57.81391304347826,57.81391304347826 0 0,0 -0.10686681169362586,0.9894539520980438 l -36.565671278769784 -4.268006268239222" fill="#4cff2c" stroke="none" /><path d="M 120.8583938346157 102.4346265915055 l 37.59952210361595 4.388679064513843 a58.85478260869565,58.85478260869565 0 0,0 -0.12611316147600737,1.0052459808101966 l -37.5184074328931 -5.035242799611434" fill="#41ff2d" stroke="none" /><path d="M 120.81339534386255 102.79330883721812 l 37.5184074328931 5.035242799611434 a58.85478260869565,58.85478260869565 0 0,0 -0.14339813354216857,1.0029262120062092 l -37.426175248334324 -5.680314483598053" fill="#41ff2d" stroke="none" /><path d="M 120.76222939487914 103.15116336523771 l 38.29277264916407 5.811841302321018 a59.73130434782609,59.73130434782609 0 0,0 -0.16303302737758746,1.0152068171074144 l -38.187057867425196 -6.470127349121638" fill="#39ff2e" stroke="none" /><path d="M 120.70491114924044 103.5080841355445 l 34.622212295642925 5.866126776219193 a56.11565217391304,56.11565217391304 0 0,0 -0.16955894147102007,0.9509765904320174 l -34.516106911832715 -6.461222117384429" fill="#5eff2a" stroke="none" /><path d="M 120.64145759157962 103.86396538481128 l 36.239219893390676 6.783779227768677 a57.86869565217392,57.86869565217392 0 0,0 -0.19171090643488733,0.9775297816710283 l -36.11707905398012 -7.40657273650765" fill="#4bff2c" stroke="none" /><path d="M 120.41448212921028 104.9243191809786 l 10.597778983598733 2.556363957429762 a31.901739130434784,31.901739130434784 0 0,0 -0.133362464283938,0.5327167518023908 l -10.552205205019733 -2.738408548629548" fill="#ff7a0b" stroke="none" /><path d="M 120.32669344350535 105.2749913415812 l 35.68660353255418 9.261050016219528 a57.86869565217392,57.86869565217392 0 0,0 -0.25851303136774606,0.9620231589275545 l -35.521902424844654 -9.873964108322632" fill="#4bff2c" stroke="none" /><path d="M 120.23288151984713 105.62410040840565 l 35.521902424844654 9.873964108322632 a57.86869565217392,57.86869565217392 0 0,0 -0.2750343771373487,0.9574307479356347 l -35.346675410821206 -10.483952331762847" fill="#4bff2c" stroke="none" /><path d="M 120.13307415673323 105.97154293290107 l 36.292054545137375 10.764355217307767 a58.85478260869566,58.85478260869566 0 0,0 -0.29644096714150814,0.9687862325780173 l -36.10138680548973 -11.387468422437841" fill="#41ff2d" stroke="none" /><path d="M 120.02730092923936 106.31721596034902 l 35.1609744140298 11.090833933864932 a57.86869565217392,57.86869565217392 0 0,0 -0.30782770133001164,0.9473962486698844 l -34.964854461683544 -11.694429082512611" fill="#4bff2c" stroke="none" /><path d="M 119.9155931802556 106.66101706037122 l 24.210434144345506 8.097479869912148 a46.52869565217391,46.52869565217391 0 0,0 -0.26058101109273735,0.7573703935030109 l -24.067462302309536 -8.513022966504458" fill="#c9ff1d" stroke="none" /><line stroke="#e1ed5e" stroke-width="0.3" x1="174.80103733775053" x2="179.2010983576182" y1="140.37084112569926" y2="142.7455964860345" /><path d="M 175.68104954172406 140.8457921977663 a86.0,86.0 0 0,1 -30.038265399797805,32.042727171017184" fill="none" id="id29" stroke="none" /><text fill="#e1ed5e" style="font-size:6.75px; font-family:Arial;" text-anchor="middle"><textPath startOffset="22.206326154141568" xlink:href="#id29">May</textPath></text><line stroke="#e1ed5e" stroke-width="0.3" x1="143.8653032363475" x2="146.44561519142675" y1="172.8068346515853" y2="177.08958963109032" /><path d="M 144.38136562736335 173.6633856474863 a86.0,86.0 0 0,1 -40.68145358897372,12.25698825130547" fill="none" id="id30" stroke="none" /><text fill="#e1ed5e" style="font-size:6.75px; font-family:Arial;" text-anchor="middle"><textPath startOffset="21.466115282336833" xlink:href="#id30">June</textPath></text><line stroke="#e1ed5e" stroke-width="0.3" x1="102.19456741930631" x2="102.32365962044197" y1="184.97166512339345" y2="189.96999836594603" /><path d="M 102.22038585953345 185.97133177190398 a86.0,86.0 0 0,1 -42.740103519485714,-10.115201625700543" fill="none" id="id31" stroke="none" /><text fill="#e1ed5e" style="font-size:6.75px; font-family:Arial;" text-anchor="middle"><textPath startOffset="22.20632615414155" xlink:href="#id31">July</textPath></text><line stroke="#e1ed5e" stroke-width="0.3" x1="58.666819895761336" x2="56.23545636021788" y1="174.27360380694188" y2="178.64263932499728" /><path d="M 58.180547188652646 175.14741091055294 a86.0,86.0 0 0,1 -31.652253787137756,-30.449443065178592" fill="none" id="id32" stroke="none" /><text fill="#e1ed5e" style="font-size:6.75px; font-family:Arial;" text-anchor="middle"><textPath startOffset="22.20632615414155" xlink:href="#id32">August</textPath></text><line stroke="#e1ed5e" stroke-width="0.3" x1="26.63291911575756" x2="22.317208475507996" y1="142.92168965132927" y2="145.44649492493687" /><path d="M 25.769776987707644 143.4266507060508 a86.0,86.0 0 0,1 -11.730757126820373,-40.83630448921669" fill="none" id="id33" stroke="none" /><text fill="#e1ed5e" style="font-size:6.75px; font-family:Arial;" text-anchor="middle"><textPath startOffset="21.46611528233685" xlink:href="#id33">September</textPath></text><line stroke="#e1ed5e" stroke-width="0.3" x1="15.007084014347285" x2="10.007500721073583" y1="101.09737516637583" y2="101.16192664675087" /><path d="M 14.007167355692545 101.11028546245083 a86.0,86.0 0 0,1 10.666146001902534,-42.60595125391555" fill="none" id="id34" stroke="none" /><text fill="#e1ed5e" style="font-size:6.75px; font-family:Arial;" text-anchor="middle"><textPath startOffset="22.20632615414155" xlink:href="#id34">October</textPath></text><line stroke="#e1ed5e" stroke-width="0.3" x1="26.266209847984243" x2="21.928928074336255" y1="57.711370442889674" y2="55.22380399835377" /><path d="M 25.398753493254645 57.213857153982495 a86.0,86.0 0 0,1 29.58750427330803,-30.492523968695096" fill="none" id="id35" stroke="none" /><text fill="#e1ed5e" style="font-size:6.75px; font-family:Arial;" text-anchor="middle"><textPath startOffset="21.46611528233685" xlink:href="#id35">November</textPath></text><line stroke="#e1ed5e" stroke-width="0.3" x1="56.762969772571076" x2="54.21961505331055" y1="26.818313649435495" y2="22.513508569990535" /><path d="M 56.25429882871897 25.957352633546506 a86.0,86.0 0 0,1 42.265352541879196,-11.944610805530505" fill="none" id="id36" stroke="none" /><text fill="#e1ed5e" style="font-size:6.75px; font-family:Arial;" text-anchor="middle"><textPath startOffset="22.20632615414155" xlink:href="#id36">December</textPath></text></svg>