<?xml version="1.0" encoding="utf-8" ?>
<svg baseProfile="full" height="200mm" version="1.1" viewBox="0,0,200,200" width="200mm" xmlns="http://www.w3.org/2000/svg" xmlns:ev="http://www.w3.org/2001/xml-events" xmlns:xlink="http://www.w3.org/1999/xlink"><defs /><rect fill="#1a1a1a" height="200" width="200" x="0" y="0" /><text alignment-baseline="middle" fill="#e1ed5e" style="dominant-baseline: central; font-size:9.0px; font-family:Arial;" text-anchor="middle" x="100.0" y="100.0">2024</text><line stroke="#e1ed5e" stroke-width="0.3" x1="100.0" x2="100.0" y1="15.0" y2="10.0" /><path d="M 100.0 14.0 a86.0,86.0 0 0,1 42.35913384403234,11.155469271406648" fill="none" id="id37" stroke="none" /><text fill="#e1ed5e" style="font-size:6.75px; font-family:Arial;" text-anchor="middle"><textPath startOffset="22.145653131862478" xlink:href="#id37">January</textPath></text><line stroke="#e1ed5e" stroke-width="0.3" x1="143.13028292997686" x2="145.6673583964461" y1="26.7553504044142" y2="22.446841604673864" /><path d="M 143.63769802327073 25.89364864446614 a86.0,86.0 0 0,1 29.32050498858742,28.57503671076993" fill="none" id="id38" stroke="none" /><text fill="#e1ed5e" style="font-size:6.75px; font-family:Arial;" text-anchor="middle"><textPath startOffset="20.669276256404974" xlink:href="#id38">February</textPath></text><path d="M 117.21940702142032 87.97951657250589 l 35.52846844219779 -24.80163025256487 a64.32889258950874,64.32889258950874 0 0,0 0.6243280251926888,0.9109132470252214 l -35.94898620420581 24.1880822704696" fill="#78ff26" stroke="none" /><path d="M 117.42321728460499 88.27688183743584 l 25.199107762996565 -16.95508430339213 a51.3721898417985,51.3721898417985 0 0,0 0.48601898289001816,0.7358946856285142 l -25.486451184807308 16.520009739424555" fill="#ff920d" stroke="none" /><path d="M 117.62189284568427 88.57770195909679 l 32.66139340091023 -21.170720598709877 a59.9225645295587,59.9225645295587 0 0,0 0.5520931480416945,0.8679821289560293 l -33.02000424057781 20.606924795075177" fill="#c5ff1e" stroke="none" /><path d="M 117.81537515405839 88.88188828441811 l 27.056822881767264 -16.885458592190982 a52.89342214820982,52.89342214820982 0 0,0 0.4741065008512972,0.7744173386538068 l -27.342697347073962 16.41850413741262" fill="#ffb110" stroke="none" /><line stroke="#e1ed5e" stroke-width="0.3" x1="172.87174338648825" x2="177.1583165268699" y1="56.24261187166439" y2="53.66864786411523" /><path d="M 173.72905801456457 55.72781907015455 a86.0,86.0 0 0,1 12.242430191666344,42.057860355516425" fill="none" id="id39" stroke="none" /><text fill="#e1ed5e" style="font-size:6.75px; font-family:Arial;" text-anchor="middle"><textPath startOffset="22.145653131862474" xlink:href="#id39">March</textPath></text><path d="M 118.00360718960297 89.18935116829356 l 27.207782722006165 -16.33749178147144 a52.736053288925895,52.736053288925895 0 0,0 0.459371931930575,0.7801139687149323 l -27.48422836406651 15.868026644462951" fill="#ffae10" stroke="none" /><path d="M 118.53625476483649 90.13048839642627 l 33.4300814493221 -17.799635414938123 a58.87343880099917,58.87343880099917 0 0,0 0.4673203428487607,0.896148375909371 l -33.730709861145804 17.223140795924255" fill="#d8ff1c" stroke="none" /><path d="M 118.70294669586156 90.45014215332178 l 38.168961158664985 -19.489343532230073 a63.85678601165694,63.85678601165694 0 0,0 0.4901163005418288,0.9805609169775048 l -38.49789737241855 18.831250759088817" fill="#80ff25" stroke="none" /><path d="M 118.8641267826498 90.77261029715802 l 27.04748236446543 -13.230278991085662 a51.10990840965862,51.10990840965862 0 0,0 0.37875056534819096,0.79144301121041 l -27.270612187773533 12.764023477810147" fill="#ff8c0c" stroke="none" /><path d="M 119.0197475246899 91.09779779509293 l 30.35874771426356 -14.209426833311294 a54.5195670274771,54.5195670274771 0 0,0 0.38946581064275576,0.8510530836424768 l -30.598197989761367 13.686184767454133" fill="#ffd213" stroke="none" /><path d="M 119.16976305983485 91.42560881287824 l 30.933389517035746 -13.836111674139856 a54.88676103247293,54.88676103247293 0 0,0 0.3773232675676354,0.8633894779130797 l -31.16634666662035 13.303060126450928" fill="#ffd914" stroke="none" /><path d="M 119.4528033332814 92.08871423366111 l 22.01195647787629 -8.952071071152831 a44.762697751873446,44.762697751873446 0 0,0 0.2833720167249971,0.71428259444902 l -22.16238716956741 8.572887459490246" fill="#ff0000" stroke="none" /><path d="M 119.58574465831526 92.42381321644754 l 32.77880663048601 -12.679546573638993 a56.14571190674438,56.14571190674438 0 0,0 0.3400005614253382,0.9018918836774018 l -32.991637875725786 12.114986409767432" fill="#fff216" stroke="none" /><path d="M 119.71291397450082 92.76114493625339 l 35.89687165881209 -13.1818284965977 a59.240632805995006,59.240632805995006 0 0,0 0.34235395827736914,0.9576249523575803 l -36.1178657871334 12.563668587859203" fill="#d2ff1c" stroke="none" /><path d="M 119.83427380445688 93.10060997987247 l 28.43848417258515 -9.892381028026314 a51.10990840965862,51.10990840965862 0 0,0 0.2811399773055597,0.8311403876036849 l -28.604109571463074 9.402738965948467" fill="#ff8c0c" stroke="none" /><path d="M 119.94978838288452 93.4421083053983 l 33.33823920437072 -10.958941408047952 a56.093255620316405,56.093255620316405 0 0,0 0.2928476201386836,0.9173409990991095 l -33.52145154028666 10.385031375257455" fill="#fff116" stroke="none" /><path d="M 120.05942366710727 93.78553927170692 l 31.617393007355577 -9.795149174570184 a54.09991673605329,54.09991673605329 0 0,0 0.2672115453028951,0.8894603284681944 l -31.780880872662102 9.250951242511267" fill="#ffca12" stroke="none" /><path d="M 120.16314734710363 94.1308016681162 l 60.48944204131091 -17.607594995651397 a84.0,84.0 0 0,0 0.3911260317016718,1.3879683043879474 l -60.782786565087164 16.56661876736044" fill="#4dd2ff" stroke="none" /><path d="M 120.35273937422433 94.82641323984039 l 38.282130096896545 -9.731167769525863 a60.49958368026645,60.49958368026645 0 0,0 0.24721994858753743,1.00874175425145 l -38.44353757200037 9.072570190666319" fill="#bbff1f" stroke="none" /><path d="M 120.43855184770803 95.1765574152323 l 36.80981485977725 -8.687016078977976 a58.82098251457119,58.82098251457119 0 0,0 0.2234893103413907,0.9847351379093385 l -36.95351503167631 8.05384660712961" fill="#d9ff1c" stroke="none" /><path d="M 120.51834098615036 95.52812308129327 l 28.958024955474496 -6.311266758707669 a50.637801831806826,50.637801831806826 0 0,0 0.17781654409045272,0.850916533786402 l -29.062099210389317 5.813233773635862" fill="#ff820c" stroke="none" /><path d="M 120.592083275326 95.88100663000786 l 32.30265186570707 -6.461435061669596 a53.94254787676936,53.94254787676936 0 0,0 0.17383296278896415,0.9095675161300789 l -32.40881112077819 5.905964980506203" fill="#ffc612" stroke="none" /><line stroke="#e1ed5e" stroke-width="0.3" x1="184.99686870605535" x2="189.99668451229388" y1="99.2704041080226" y2="99.22748670261217" /><path d="M 185.99683186730306 99.26182062694052 a86.0,86.0 0 0,1 -10.086455211305974,41.156179273409016" fill="none" id="id40" stroke="none" /><text fill="#e1ed5e" style="font-size:6.75px; font-family:Arial;" text-anchor="middle"><textPath startOffset="21.40746469413373" xlink:href="#id40">April</textPath></text><line stroke="#e1ed5e" stroke-width="0.3" x1="174.33088141563837" x2="178.70328620479359" y1="141.23008692659167" y2="143.65538615756765" /><path d="M 175.20536237346943 141.71514677278685 a86.0,86.0 0 0,1 -30.301960400862466,31.631185727798858" fill="none" id="id41" stroke="none" /><text fill="#e1ed5e" style="font-size:6.75px; font-family:Arial;" text-anchor="middle"><textPath startOffset="22.145653131862474" xlink:href="#id41">May</textPath></text><line stroke="#e1ed5e" stroke-width="0.3" x1="143.1302829299769" x2="145.66735839644613" y1="173.24464959558577" y2="177.55315839532614" /><path d="M 143.63769802327073 174.10635135553383 a86.0,86.0 0 0,1 -40.68552437913181,11.842963189579606" fill="none" id="id42" stroke="none" /><text fill="#e1ed5e" style="font-size:6.75px; font-family:Arial;" text-anchor="middle"><textPath startOffset="21.407464694133747" xlink:href="#id42">June</textPath></text><line stroke="#e1ed5e" stroke-width="0.3" x1="101.45913802915013" x2="101.54496967792366" y1="184.9874750549273" y2="189.98673829345242" /><path d="M 101.47630435890484 185.9873277026323 a86.0,86.0 0 0,1 -42.54439059252881,-10.42667462771756" fill="none" id="id43" stroke="none" /><text fill="#e1ed5e" style="font-size:6.75px; font-family:Arial;" text-anchor="middle"><textPath startOffset="22.145653131862474" xlink:href="#id43">July</textPath></text><line stroke="#e1ed5e" stroke-width="0.3" x1="58.13341422392154" x2="55.67067388415222" y1="173.97424548756322" y2="178.32567169271397" /><path d="M 57.64086615596768 174.84453072859336 a86.0,86.0 0 0,1 -31.369924170532247,-30.572349798747897" fill="none" id="id44" stroke="none" /><text fill="#e1ed5e" style="font-size:6.75px; font-family:Arial;" text-anchor="middle"><textPath startOffset="22.145653131862474" xlink:href="#id44">August</textPath></text><line stroke="#e1ed5e" stroke-width="0.3" x1="26.387840678322732" x2="22.057713659400548" y1="142.50000000000003" y2="145.00000000000006" /><path d="M 25.521815274538298 143.00000000000003 a86.0,86.0 0 0,1 -11.493303480769221,-40.785679425670985" fill="none" id="id45" stroke="none" /><text fill="#e1ed5e" style="font-size:6.75px; font-family:Arial;" text-anchor="middle"><textPath startOffset="21.40746469413373" xlink:href="#id45">September</textPath></text><line stroke="#e1ed5e" stroke-width="0.3" x1="15.003131293944662" x2="10.003315487706104" y1="100.72959589197737" y2="100.7725132973878" /><path d="M 14.003168132696942 100.73817937305945 a86.0,86.0 0 0,1 10.791469493833604,-42.45332614584628" fill="none" id="id46" stroke="none" /><text fill="#e1ed5e" style="font-size:6.75px; font-family:Arial;" text-anchor="middle"><textPath startOffset="22.145653131862435" xlink:href="#id46">October</textPath></text><line stroke="#e1ed5e" stroke-width="0.3" x1="26.387840678322718" x2="22.05771365940052" y1="57.49999999999999" y2="54.99999999999999" /><path d="M 25.521815274538284 56.99999999999999 a86.0,86.0 0 0,1 29.574782752854787,-30.34633250058573" fill="none" id="id47" stroke="none" /><text fill="#e1ed5e" style="font-size:6.75px; font-family:Arial;" text-anchor="middle"><textPath startOffset="21.40746469413373" xlink:href="#id47">November</textPath></text><line stroke="#e1ed5e" stroke-width="0.3" x1="56.869717070023135" x2="54.33264160355391" y1="26.7553504044142" y2="22.446841604673864" /><path d="M 56.362301976729285 25.89364864446614 a86.0,86.0 0 0,1 42.16139366436587,-11.88097634709845" fill="none" id="id48" stroke="none" /><text fill="#e1ed5e" style="font-size:6.75px; font-family:Arial;" text-anchor="middle"><textPath startOffset="22.145653131862474" xlink:href="#id48">December</textPath></text></svg>