<?xml version="1.0" encoding="utf-8" ?>
<svg baseProfile="full" height="200mm" version="1.1" viewBox="0,0,200,200" width="200mm" xmlns="http://www.w3.org/2000/svg" xmlns:ev="http://www.w3.org/2001/xml-events" xmlns:xlink="http://www.w3.org/1999/xlink"><defs /><rect fill="#1a1a1a" height="200" width="200" x="0" y="0" /><text alignment-baseline="middle" fill="#e1ed5e" style="dominant-baseline: central; font-size:9.0px; font-family:Arial;" text-anchor="middle" x="100.0" y="100.0">2022</text><line stroke="#e1ed5e" stroke-width="0.3" x1="100.0" x2="100.0" y1="15.0" y2="10.0" /><path d="M 100.0 14.0 a86.0,86.0 0 0,1 42.46469731375804,11.215312516191453" fill="none" id="id13" stroke="none" /><text fill="#e1ed5e" style="font-size:6.75px; font-family:Arial;" text-anchor="middle"><textPath startOffset="22.20632615414155" xlink:href="#id13">January</textPath></text><line stroke="#e1ed5e" stroke-width="0.3" x1="143.23703022742887" x2="145.7803849466894" y1="26.81831364943548" y2="22.513508569990506" /><path d="M 143.74570117128098 25.957352633546492 a86.0,86.0 0 0,1 28.547481713284135,27.462654790039103" fill="none" id="id14" stroke="none" /><text fill="#e1ed5e" style="font-size:6.75px; font-family:Arial;" text-anchor="middle"><textPath startOffset="19.985693538727396" xlink:href="#id14">February</textPath></text><line stroke="#e1ed5e" stroke-width="0.3" x1="172.23445277983987" x2="176.4835382374775" y1="55.19839476539836" y2="52.563006222186495" /><path d="M 173.08426987136738 54.67131705675599 a86.0,86.0 0 0,1 12.851231095245387,41.99856678651699" fill="none" id="id15" stroke="none" /><text fill="#e1ed5e" style="font-size:6.75px; font-family:Arial;" text-anchor="middle"><textPath startOffset="22.20632615414155" xlink:href="#id15">March</textPath></text><line stroke="#e1ed5e" stroke-width="0.3" x1="184.98032266829074" x2="189.97916517819016" y1="98.17113171792111" y2="98.06355123074" /><path d="M 185.9800911702706 98.14961562048488 a86.0,86.0 0 0,1 -9.607161424134198,41.387399972396054" fill="none" id="id16" stroke="none" /><text fill="#e1ed5e" style="font-size:6.75px; font-family:Arial;" text-anchor="middle"><textPath startOffset="21.466115282336823" xlink:href="#id16">April</textPath></text><path d="M 120.89721153311464 102.0752229133903 l 12.20585403023914 1.212117124857102 a33.26589175444969,33.26589175444969 0 0,0 -0.06149073125823201,0.5693278024919813 l -12.183180997479855 -1.422041249233875" fill="#ff990e" stroke="none" /><path d="M 120.8583938346157 102.4346265915055 l 62.575181503847105 7.303879774516526 a84.0,84.0 0 0,0 -0.1799939630126075,1.4347289828504204 l -62.44018603158764 -8.379926511654341" fill="#4dd2ff" stroke="none" /><path d="M 120.81339534386255 102.79330883721812 l 31.390198862229308 4.2127926960151125 a52.67163094805666,52.67163094805666 0 0,0 -0.12833304676003185,0.8975610301399467 l -31.313031764452674 -4.752499198135469" fill="#7dff26" stroke="none" /><path d="M 120.76222939487914 103.15116336523771 l 9.909760052623032 1.5040423762885375 a31.023247366509263,31.023247366509263 0 0,0 -0.08467610062209951,0.5272781594034637 l -9.882402197639644 -1.6743997653852063" fill="#ff7b0b" stroke="none" /><path d="M 120.70491114924044 103.5080841355445 l 9.295775583167885 1.5750061720061759 a30.428260079912825,30.428260079912825 0 0,0 -0.09194196930947193,0.5156593909644722 l -9.267287171519225 -1.7347843137038665" fill="#ff730a" stroke="none" /><path d="M 120.64145759157962 103.86396538481128 l 9.109833263265255 1.705309822937053 a30.268071195059935,30.268071195059935 0 0,0 -0.10027389246369951,0.5112944173608407 l -9.079129437825891 -1.8618679673658387" fill="#ff710a" stroke="none" /><path d="M 120.5718875245553 104.21870165774334 l 9.303305473327764 1.9078400159427724 a30.496912459135487,30.496912459135487 0 0,0 -0.109884676055095,0.5133446240371072 l -9.269086758548225 -2.067698459396049" fill="#ff740a" stroke="none" /><path d="M 120.49622156327973 104.57218783832717 l 9.269086758548225 2.067698459396049 a30.496912459135487,30.496912459135487 0 0,0 -0.11870477929881938,0.5113770824266027 l -9.232121413318854 -2.2269441991712164" fill="#ff740a" stroke="none" /><path d="M 120.41448212921028 104.9243191809786 l 56.54952441603984 13.640703986248756 a79.17144932800582,79.17144932800582 0 0,0 -0.3309694038981342,1.3220582473281612 l -56.30634369784664 -14.612090072974313" fill="#47ffff" stroke="none" /><path d="M 120.32669344350535 105.2749913415812 l 18.119035855561975 4.702080912546414 a39.71921540138031,39.71921540138031 0 0,0 -0.17743504776184743,0.6603018201797749 l -18.03541273145835 -5.013273665901737" fill="#ffec16" stroke="none" /><path d="M 120.23288151984713 105.62410040840565 l 9.12794727484567 2.537280315016283 a30.474028332727933,30.474028332727933 0 0,0 -0.14483487673085102,0.5041892064508517 l -9.08291976122872 -2.6940269969717168" fill="#ff740a" stroke="none" /><path d="M 120.13307415673323 105.97154293290107 l 9.126798600654945 2.7070416201454934 a30.519796585543045,30.519796585543045 0 0,0 -0.1537227327290095,0.502374784896193 l -9.078849095419804 -2.8637433775937438" fill="#ff740a" stroke="none" /><path d="M 120.02730092923936 106.31721596034902 l 17.76486337421087 5.603574782118527 a39.627678895750094,39.627678895750094 0 0,0 -0.21079613366167707,0.6487637902707424 l -17.665774989532945 -5.908537472367065" fill="#ffeb16" stroke="none" /><path d="M 119.9155931802556 106.66101706037122 l 9.00650690498301 3.0123379005311195 a30.496912459135487,30.496912459135487 0 0,0 -0.17079602538647415,0.49641319762040576 l -8.953320048653303 -3.166923801240826" fill="#ff740a" stroke="none" /><path d="M 119.79798401119884 107.00284435728193 l 8.953320048653303 3.166923801240826 a30.496912459135487,30.496912459135487 0 0,0 -0.17931565728336488,0.49339967583344996 l -8.897480130364713 -3.320571274080407" fill="#ff740a" stroke="none" /><path d="M 119.67450827220406 107.3425965602758 l 28.514815839482093 10.641830830185402 a51.435888122048674,51.435888122048674 0 0,0 -0.31671212230329965,0.8268354118576502 l -28.32740943758529 -11.131089808876196" fill="#8aff24" stroke="none" /><path d="M 119.54520255179757 107.68017299344265 l 8.796406088513328 3.456496309072082 a30.45114420632038,30.45114420632038 0 0,0 -0.19589857024500157,0.4862041858232795 l -8.735604904010934 -3.607399862738175" fill="#ff730a" stroke="none" /><path d="M 119.41010516605496 108.01547362559984 l 8.777908075458926 3.6248691114681413 a30.496912459135487,30.496912459135487 0 0,0 -0.204545723644442,0.48348566886548433 l -8.714211370622175 -3.775429305999789" fill="#ff740a" stroke="none" /><path d="M 119.26925614724726 108.34839909993367 l 8.714211370622175 3.775429305999789 a30.496912459135487,30.496912459135487 0 0,0 -0.21283782900267742,0.4798931168551524 l -8.647932456888224 -3.924870759347629" fill="#ff740a" stroke="none" /><path d="M 119.12269723197855 108.67885076344098 l 8.585417282501083 3.896498199641503 a30.428260079912825,30.428260079912825 0 0,0 -0.22056921664580922,0.47508646989638387 l -8.517073449015443 -4.043704736816718" fill="#ff730a" stroke="none" /><path d="M 118.97047184881838 109.00673069616215 l 8.620435990872425 4.09277882342857 a30.5426807119506,30.5426807119506 0 0,0 -0.2295744135541896,0.47299128961679515 l -8.54870832070352 -4.24055906901064" fill="#ff750a" stroke="none" /><path d="M 118.81262510543309 109.33194174019688 l 8.466706322423393 4.199882243408621 a30.45114420632038,30.45114420632038 0 0,0 -0.23696983298700108,0.4675639618172337 l -8.393157819650122 -4.345000416928548" fill="#ff730a" stroke="none" /><path d="M 118.64920377521936 109.65438752849418 l 8.41348023567833 4.355520999051862 a30.474028332727933,30.474028332727933 0 0,0 -0.2451671738618061,0.4637638992847415 l -8.33726055359163 -4.499699913422737" fill="#ff740a" stroke="none" /><line stroke="#e1ed5e" stroke-width="0.3" x1="174.80103733775053" x2="179.2010983576182" y1="140.37084112569926" y2="142.7455964860345" /><path d="M 175.68104954172406 140.8457921977663 a86.0,86.0 0 0,1 -30.038265399797805,32.042727171017184" fill="none" id="id17" stroke="none" /><text fill="#e1ed5e" style="font-size:6.75px; font-family:Arial;" text-anchor="middle"><textPath startOffset="22.206326154141568" xlink:href="#id17">May</textPath></text><path d="M 118.12598468904814 110.60418214915192 l 28.542006402841878 16.697831317316968 a54.067562658917545,54.067562658917545 0 0,0 -0.4768736480388542,0.7992676638341061 l -28.250351879104795 -17.18666107503718" fill="#6eff28" stroke="none" /><path d="M 117.75023020441432 111.22182372390056 l 8.085284662671839 5.111575354076024 a30.565564838358156,30.565564838358156 0 0,0 -0.2849804258801887,0.44229594955130336 l -7.996099373414601 -5.2499929035487805" fill="#ff750a" stroke="none" /><path d="M 117.55443506779139 111.5257021239791 l 7.957840524737971 5.224873320278209 a30.51979658554304,30.51979658554304 0 0,0 -0.29211353986622046,0.4366701076144448 l -7.86672387946103 -5.361080342098461" fill="#ff740a" stroke="none" /><path d="M 117.35343817320211 111.8261652097733 l 8.320573334045324 5.6703734387579905 a31.069015619324375,31.069015619324375 0 0,0 -0.30497803310156896,0.43934360301934955 l -8.221734393781619 -5.812758303964359" fill="#ff7c0b" stroke="none" /><path d="M 117.14729908036423 112.12312394758627 l 7.810647674092539 5.522120388766141 a30.565564838358156,30.565564838358156 0 0,0 -0.3074316643483326,0.42699569304661 l -7.714436217368603 -5.655749687263882" fill="#ff750a" stroke="none" /><path d="M 116.93607887273984 112.41649034213515 l 7.695980628331834 5.64221918561971 a30.5426807119506,30.5426807119506 0 0,0 -0.3145005042327829,0.42132482035768354 l -7.597718857403959 -5.773856885486708" fill="#ff750a" stroke="none" /><path d="M 116.71984013943494 112.70617746262583 l 7.561278958807296 5.746164526323701 a30.496912459135487,30.496912459135487 0 0,0 -0.3212242443741963,0.4152256373175502 l -7.461247897215032 -5.875468157754504" fill="#ff740a" stroke="none" /><path d="M 116.498646956653 112.99209946851258 l 7.461247897215032 5.875468157754504 a30.496912459135487,30.496912459135487 0 0,0 -0.3283240783162709,0.40963476983441893 l -7.359005906843907 -6.003030761167174" fill="#ff740a" stroke="none" /><path d="M 116.27256486870786 113.27417163493432 l 7.37673845119775 6.017495895531433 a30.519796585543045,30.519796585543045 0 0,0 -0.3355782435255841,0.40422561216411346 l -7.272064207778622 -6.1435827648093175" fill="#ff740a" stroke="none" /><path d="M 116.0416608686014 113.55231037782055 l 12.900921599376497 10.89895211641653 a37.88848528877588,37.88848528877588 0 0,0 -0.4251764456817806,0.49457626170166746 l -12.711402644123938 -11.119405477279726" fill="#ffd513" stroke="none" /><path d="M 115.80600337817218 113.82643327865902 l 7.83697588492736 6.8554600164800465 a31.412277515437705,31.412277515437705 0 0,0 -0.3595077577726636,0.40391077697316086 l -7.717809277506358 -6.989344963194074" fill="#ff800b" stroke="none" /><path d="M 115.56566222782051 114.09645910891815 l 4.359290075426667 3.9478278143755534 a26.881220486741736,26.881220486741736 0 0,0 -0.31355483408030355,0.3403018445623306 l -4.290688833350642 -4.022280913739219" fill="#ff4206" stroke="none" /><path d="M 115.32070863581623 114.36230785411682 l 6.911848937771074 6.479471977774462 a30.474028332727933,30.474028332727933 0 0,0 -0.3620509724813065,0.3796089971859368 l -6.799291413910803 -6.597488091542906" fill="#ff740a" stroke="none" /><path d="M 115.07121518719521 114.62390073753431 l 4.467167305757821 4.3345815480668355 a27.224482382855065,27.224482382855065 0 0,0 -0.32923392995887885,0.33351223283073295 l -4.3918927507434065 -4.4108342748782325" fill="#ff4706" stroke="none" /><path d="M 114.81725581225074 114.88116024355365 l 3.3262128921071406 3.3405583111210166 a25.714130039956412,25.714130039956412 0 0,0 -0.31634508192560756,0.30961024447802754 l -3.268217857805739 -3.397318658521616" fill="#ff3104" stroke="none" /><path d="M 114.55890576462653 115.13401014063108 l 3.3634086691981384 3.496269687410595 a25.851434798401744,25.851434798401744 0 0,0 -0.32334502624393496,0.3057429044925798 l -3.3027278085633958 -3.553647228649096" fill="#ff3304" stroke="none" /><path d="M 114.29624159901734 115.38237550388516 l 6.465245474310419 6.95643207494988 a30.496912459135487,30.496912459135487 0 0,0 -0.38760188929585104,0.35406513591966626 l -6.344544035547704 -7.066689977456129" fill="#ff740a" stroke="none" /><path d="M 114.0293411484842 115.62618273729858 l 0.8714193012679988 0.9706056113614452 a22.30439520523066,22.30439520523066 0 0,0 -0.28789413734149566,0.2540331033264902 l -0.8545828110199155 -0.9854618564602242" fill="#ff0000" stroke="none" /><path d="M 113.75828350139079 115.86535959552629 l 13.868229827954753 15.992144161854497 a42.167816926988735,42.167816926988735 0 0,0 -0.5524677244758746,0.47082498032965847 l -13.59089662690183 -16.228493532407104" fill="#f4ff19" stroke="none" /><path d="M 112.92097659922987 116.55440617244103 l 7.88494031482245 10.102216625390827 a33.815110788231024,33.815110788231024 0 0,0 -0.4619325632358672,0.35419019167426896 l -7.709879023093089 -10.236446158892466" fill="#ffa00e" stroke="none" /><path d="M 112.63410532772338 116.77436683061366 l 8.054070050909742 10.69343036241445 a34.387213948419905,34.387213948419905 0 0,0 -0.4758781523258671,0.352043280450825 l -7.868806928165311 -10.830483591605043" fill="#ffa80f" stroke="none" /><path d="M 112.34349029814194 116.9893568818739 l 7.492180271774493 10.312101470981212 a33.746458409008355,33.746458409008355 0 0,0 -0.47288859484073176,0.3373934564479382 l -7.313564349084877 -10.43953918927337" fill="#ff9f0e" stroke="none" /><path d="M 111.7513745106137 117.40417183066458 l 8.643855206680986 12.801833620448882 a36.44678532509989,36.44678532509989 0 0,0 -0.5229685032402657,0.3465950073467782 l -8.422212004700755 -12.948726648886979" fill="#ffc312" stroke="none" /><line stroke="#e1ed5e" stroke-width="0.3" x1="143.8653032363475" x2="146.44561519142675" y1="172.8068346515853" y2="177.08958963109032" /><path d="M 144.38136562736335 173.6633856474863 a86.0,86.0 0 0,1 -40.68145358897372,12.25698825130547" fill="none" id="id18" stroke="none" /><text fill="#e1ed5e" style="font-size:6.75px; font-family:Arial;" text-anchor="middle"><textPath startOffset="21.466115282336833" xlink:href="#id18">June</textPath></text><line stroke="#e1ed5e" stroke-width="0.3" x1="102.19456741930631" x2="102.32365962044197" y1="184.97166512339345" y2="189.96999836594603" /><path d="M 102.22038585953345 185.97133177190398 a86.0,86.0 0 0,1 -42.740103519485714,-10.115201625700543" fill="none" id="id19" stroke="none" /><text fill="#e1ed5e" style="font-size:6.75px; font-family:Arial;" text-anchor="middle"><textPath startOffset="22.20632615414155" xlink:href="#id19">July</textPath></text><line stroke="#e1ed5e" stroke-width="0.3" x1="58.666819895761336" x2="56.23545636021788" y1="174.27360380694188" y2="178.64263932499728" /><path d="M 58.180547188652646 175.14741091055294 a86.0,86.0 0 0,1 -31.652253787137756,-30.449443065178592" fill="none" id="id20" stroke="none" /><text fill="#e1ed5e" style="font-size:6.75px; font-family:Arial;" text-anchor="middle"><textPath startOffset="22.20632615414155" xlink:href="#id20">August</textPath></text><line stroke="#e1ed5e" stroke-width="0.3" x1="26.63291911575756" x2="22.317208475507996" y1="142.92168965132927" y2="145.44649492493687" /><path d="M 25.769776987707644 143.4266507060508 a86.0,86.0 0 0,1 -11.730757126820373,-40.83630448921669" fill="none" id="id21" stroke="none" /><text fill="#e1ed5e" style="font-size:6.75px; font-family:Arial;" text-anchor="middle"><textPath startOffset="21.46611528233685" xlink:href="#id21">September</textPath></text><line stroke="#e1ed5e" stroke-width="0.3" x1="15.007084014347285" x2="10.007500721073583" y1="101.09737516637583" y2="101.16192664675087" /><path d="M 14.007167355692545 101.11028546245083 a86.0,86.0 0 0,1 10.666146001902534,-42.60595125391555" fill="none" id="id22" stroke="none" /><text fill="#e1ed5e" style="font-size:6.75px; font-family:Arial;" text-anchor="middle"><textPath startOffset="22.20632615414155" xlink:href="#id22">October</textPath></text><line stroke="#e1ed5e" stroke-width="0.3" x1="26.266209847984243" x2="21.928928074336255" y1="57.711370442889674" y2="55.22380399835377" /><path d="M 25.398753493254645 57.213857153982495 a86.0,86.0 0 0,1 29.58750427330803,-30.492523968695096" fill="none" id="id23" stroke="none" /><text fill="#e1ed5e" style="font-size:6.75px; font-family:Arial;" text-anchor="middle"><textPath startOffset="21.46611528233685" xlink:href="#id23">November</textPath></text><line stroke="#e1ed5e" stroke-width="0.3" x1="56.762969772571076" x2="54.21961505331055" y1="26.818313649435495" y2="22.513508569990535" /><path d="M 56.25429882871897 25.957352633546506 a86.0,86.0 0 0,1 42.265352541879196,-11.944610805530505" fill="none" id="id24" stroke="none" /><text fill="#e1ed5e" style="font-size:6.75px; font-family:Arial;" text-anchor="middle"><textPath startOffset="22.20632615414155" xlink:href="#id24">December</textPath></text></svg>