<?xml version="1.0" encoding="utf-8" ?>
<svg baseProfile="full" height="200mm" version="1.1" viewBox="0,0,200,200" width="200mm" xmlns="http://www.w3.org/2000/svg" xmlns:ev="http://www.w3.org/2001/xml-events" xmlns:xlink="http://www.w3.org/1999/xlink"><defs /><rect fill="#1a1a1a" height="200" width="200" x="0" y="0" /><text alignment-baseline="middle" fill="#e1ed5e" style="dominant-baseline: central; font-size:9.0px; font-family:Arial;" text-anchor="middle" x="100.0" y="100.0">2024</text><line stroke="#e1ed5e" stroke-width="0.3" x1="100.0" x2="100.0" y1="15.0" y2="10.0" /><path d="M 100.0 14.0 a86.0,86.0 0 0,1 42.35913384403234,11.155469271406648" fill="none" id="id37" stroke="none" /><text fill="#e1ed5e" style="font-size:6.75px; font-family:Arial;" text-anchor="middle"><textPath startOffset="22.145653131862478" xlink:href="#id37">January</textPath></text><line stroke="#e1ed5e" stroke-width="0.3" x1="143.13028292997686" x2="145.6673583964461" y1="26.7553504044142" y2="22.446841604673864" /><path d="M 143.63769802327073 25.89364864446614 a86.0,86.0 0 0,1 29.32050498858742,28.57503671076993" fill="none" id="id38" stroke="none" /><text fill="#e1ed5e" style="font-size:6.75px; font-family:Arial;" text-anchor="middle"><textPath startOffset="20.669276256404974" xlink:href="#id38">February</textPath></text><path d="M 117.21940702142032 87.97951657250589 l 51.65822106426096 -36.06145028248233 a84.0,84.0 0 0,0 0.8152410527387,1.1894610597198052 l -52.269651853814985 35.16935448769248" fill="#4dd2ff" stroke="none" /><path d="M 117.42321728460499 88.27688183743584 l 36.63938065781946 -24.652610470186374 a65.16101694915254,65.16101694915254 0 0,0 0.6164715048985272,0.9334164307711774 l -37.05717660163871 24.020014161076137" fill="#e8ff1a" stroke="none" /><path d="M 117.62189284568427 88.57770195909679 l 47.489507838369484 -30.782125228874783 a77.59322033898306,77.59322033898306 0 0,0 0.7149007326365424,1.1239426935601613 l -48.01092626263191 29.962368860635948" fill="#3cffa1" stroke="none" /><path d="M 117.81537515405839 88.88188828441811 l 39.340489444312944 -24.551375023270424 a67.37288135593221,67.37288135593221 0 0,0 0.6038921237205616,0.9864123998425304 l -39.756149532488905 23.87242550730334" fill="#b1ff20" stroke="none" /><line stroke="#e1ed5e" stroke-width="0.3" x1="172.87174338648825" x2="177.1583165268699" y1="56.24261187166439" y2="53.66864786411523" /><path d="M 173.72905801456457 55.72781907015455 a86.0,86.0 0 0,1 12.242430191666344,42.057860355516425" fill="none" id="id39" stroke="none" /><text fill="#e1ed5e" style="font-size:6.75px; font-family:Arial;" text-anchor="middle"><textPath startOffset="22.145653131862474" xlink:href="#id39">March</textPath></text><path d="M 118.00360718960297 89.18935116829356 l 39.5599843209799 -23.75463393407651 a67.14406779661016,67.14406779661016 0 0,0 0.5848769147061542,0.9932488674778659 l -39.96193494581582 23.072033898305083" fill="#b6ff1f" stroke="none" /><path d="M 118.53625476483649 90.13048839642627 l 48.60717653830006 -25.880583696538363 a76.0677966101695,76.0677966101695 0 0,0 0.6038041859890627,1.1578741412001712 l -49.044288793264066 25.042363312233693" fill="#38ff7d" stroke="none" /><path d="M 118.70294669586156 90.45014215332178 l 55.49748468711458 -28.337411116474957 a83.31355932203388,83.31355932203388 0 0,0 0.6394517486745009,1.279331849093692 l -55.97575634900082 27.380547411217517" fill="#4be0ff" stroke="none" /><path d="M 118.8641267826498 90.77261029715802 l 39.326908377388584 -19.23676158389089 a64.77966101694915,64.77966101694915 0 0,0 0.4800504245982376,1.003120756341545 l -39.65133805994674 18.558828325484242" fill="#f2ff19" stroke="none" /><path d="M 119.0197475246899 91.09779779509293 l 44.14147216081179 -20.660437804850925 a69.73728813559322,69.73728813559322 0 0,0 0.49817507615326145,1.0886024476817449 l -44.4896317018201 19.899646374954497" fill="#78ff26" stroke="none" /><path d="M 119.16976305983485 91.42560881287824 l 44.97699855927352 -20.117639371237246 a70.27118644067795,70.27118644067795 0 0,0 0.48308468535725657,1.1053922992004264 l -45.31571712664774 19.34258500226097" fill="#6cff28" stroke="none" /><path d="M 119.4528033332814 92.08871423366111 l 32.00527812340123 -13.016267986022456 a55.55084745762712,55.55084745762712 0 0,0 0.35166682227484036,0.8864301179035833 l -32.22400362064219 12.464936850905307" fill="#ff0000" stroke="none" /><path d="M 119.58574465831526 92.42381321644754 l 47.66022610558558 -18.435999315908507 a72.10169491525423,72.10169491525423 0 0,0 0.43662491610441445,1.1581994641275648 l -47.969681705504435 17.615131571586783" fill="#43ff2d" stroke="none" /><path d="M 119.71291397450082 92.76114493625339 l 42.17036197692855 -15.485541038305405 a65.92372881355934,65.92372881355934 0 0,0 0.3809758342325124,1.0656572132013111 l -42.429977981205 14.759348868723176" fill="#d5ff1c" stroke="none" /><line stroke="#e1ed5e" stroke-width="0.3" x1="184.99686870605535" x2="189.99668451229388" y1="99.2704041080226" y2="99.22748670261217" /><path d="M 185.99683186730306 99.26182062694052 a86.0,86.0 0 0,1 -10.086455211305974,41.156179273409016" fill="none" id="id40" stroke="none" /><text fill="#e1ed5e" style="font-size:6.75px; font-family:Arial;" text-anchor="middle"><textPath startOffset="21.40746469413373" xlink:href="#id40">April</textPath></text><line stroke="#e1ed5e" stroke-width="0.3" x1="174.33088141563837" x2="178.70328620479359" y1="141.23008692659167" y2="143.65538615756765" /><path d="M 175.20536237346943 141.71514677278685 a86.0,86.0 0 0,1 -30.301960400862466,31.631185727798858" fill="none" id="id41" stroke="none" /><text fill="#e1ed5e" style="font-size:6.75px; font-family:Arial;" text-anchor="middle"><textPath startOffset="22.145653131862474" xlink:href="#id41">May</textPath></text><line stroke="#e1ed5e" stroke-width="0.3" x1="143.1302829299769" x2="145.66735839644613" y1="173.24464959558577" y2="177.55315839532614" /><path d="M 143.63769802327073 174.10635135553383 a86.0,86.0 0 0,1 -40.68552437913181,11.842963189579606" fill="none" id="id42" stroke="none" /><text fill="#e1ed5e" style="font-size:6.75px; font-family:Arial;" text-anchor="middle"><textPath startOffset="21.407464694133747" xlink:href="#id42">June</textPath></text><line stroke="#e1ed5e" stroke-width="0.3" x1="101.45913802915013" x2="101.54496967792366" y1="184.9874750549273" y2="189.98673829345242" /><path d="M 101.47630435890484 185.9873277026323 a86.0,86.0 0 0,1 -42.54439059252881,-10.42667462771756" fill="none" id="id43" stroke="none" /><text fill="#e1ed5e" style="font-size:6.75px; font-family:Arial;" text-anchor="middle"><textPath startOffset="22.145653131862474" xlink:href="#id43">July</textPath></text><line stroke="#e1ed5e" stroke-width="0.3" x1="58.13341422392154" x2="55.67067388415222" y1="173.97424548756322" y2="178.32567169271397" /><path d="M 57.64086615596768 174.84453072859336 a86.0,86.0 0 0,1 -31.369924170532247,-30.572349798747897" fill="none" id="id44" stroke="none" /><text fill="#e1ed5e" style="font-size:6.75px; font-family:Arial;" text-anchor="middle"><textPath startOffset="22.145653131862474" xlink:href="#id44">August</textPath></text><line stroke="#e1ed5e" stroke-width="0.3" x1="26.387840678322732" x2="22.057713659400548" y1="142.50000000000003" y2="145.00000000000006" /><path d="M 25.521815274538298 143.00000000000003 a86.0,86.0 0 0,1 -11.493303480769221,-40.785679425670985" fill="none" id="id45" stroke="none" /><text fill="#e1ed5e" style="font-size:6.75px; font-family:Arial;" text-anchor="middle"><textPath startOffset="21.40746469413373" xlink:href="#id45">September</textPath></text><line stroke="#e1ed5e" stroke-width="0.3" x1="15.003131293944662" x2="10.003315487706104" y1="100.72959589197737" y2="100.7725132973878" /><path d="M 14.003168132696942 100.73817937305945 a86.0,86.0 0 0,1 10.791469493833604,-42.45332614584628" fill="none" id="id46" stroke="none" /><text fill="#e1ed5e" style="font-size:6.75px; font-family:Arial;" text-anchor="middle"><textPath startOffset="22.145653131862435" xlink:href="#id46">October</textPath></text><line stroke="#e1ed5e" stroke-width="0.3" x1="26.387840678322718" x2="22.05771365940052" y1="57.49999999999999" y2="54.99999999999999" /><path d="M 25.521815274538284 56.99999999999999 a86.0,86.0 0 0,1 29.574782752854787,-30.34633250058573" fill="none" id="id47" stroke="none" /><text fill="#e1ed5e" style="font-size:6.75px; font-family:Arial;" text-anchor="middle"><textPath startOffset="21.40746469413373" xlink:href="#id47">November</textPath></text><line stroke="#e1ed5e" stroke-width="0.3" x1="56.869717070023135" x2="54.33264160355391" y1="26.7553504044142" y2="22.446841604673864" /><path d="M 56.362301976729285 25.89364864446614 a86.0,86.0 0 0,1 42.16139366436587,-11.88097634709845" fill="none" id="id48" stroke="none" /><text fill="#e1ed5e" style="font-size:6.75px; font-family:Arial;" text-anchor="middle"><textPath startOffset="22.145653131862474" xlink:href="#id48">December</textPath></text></svg>