<?xml version="1.0" encoding="utf-8" ?>
<svg baseProfile="full" height="200mm" version="1.1" viewBox="0,0,200,200" width="200mm" xmlns="http://www.w3.org/2000/svg" xmlns:ev="http://www.w3.org/2001/xml-events" xmlns:xlink="http://www.w3.org/1999/xlink"><defs /><rect fill="#1a1a1a" height="200" width="200" x="0" y="0" /><text alignment-baseline="middle" fill="#e1ed5e" style="dominant-baseline: central; font-size:9.0px; font-family:Arial;" text-anchor="middle" x="100.0" y="100.0">2023</text><line stroke="#e1ed5e" stroke-width="0.3" x1="100.0" x2="100.0" y1="15.0" y2="10.0" /><path d="M 100.0 14.0 a86.0,86.0 0 0,1 42.46469731375804,11.215312516191453" fill="none" id="id25" stroke="none" /><text fill="#e1ed5e" style="font-size:6.75px; font-family:Arial;" text-anchor="middle"><textPath startOffset="22.20632615414155" xlink:href="#id25">January</textPath></text><path d="M 100.36148047927253 79.00311137660856 l 0.9662214068605318 -56.12375889900228 a77.13207547169812,77.13207547169812 0 0,0 1.3273084594100453,0.03428046156516962 l -1.932156501465445 56.09881164529475" fill="#33ff52" stroke="none" /><path d="M 100.72285384407766 79.0124445844662 l 1.6434695888935495 -47.71698919946837 a68.74528301886794,68.74528301886794 0 0,0 1.1822851996311508,0.050911687699098276 l -2.464595620914032 47.68162978524508" fill="#ffd113" stroke="none" /><path d="M 101.08401301168833 79.027996857942 l 2.3009710153761698 -44.51604440531178 a65.5754716981132,65.5754716981132 0 0,0 1.1267675644725326,0.0679696965577297 l -3.0669006286883143 44.469841439373745" fill="#ff5107" stroke="none" /><path d="M 101.44485096284872 79.0497635885617 l 3.057813515714424 -44.33807894622006 a65.4433962264151,65.4433962264151 0 0,0 1.1231639067355974,0.08717913575859013 l -3.8205676118123626 44.278874548273" fill="#ff4b07" stroke="none" /><path d="M 101.80526077348638 79.07773832637324 l 3.7921830084556585 -43.94990816975686 a65.11320754716982,65.11320754716982 0 0,0 1.1158384424182997,0.105962305371177 l -4.548146577964203 43.878120319870504" fill="#ff3d05" stroke="none" /><path d="M 102.16513564639614 79.11191278185805 l 6.4954069391883955 -62.66426165442583 a84.0,84.0 0 0,0 1.436933185961099,0.1614561861175967 l -7.57310682865922 62.54316951483763" fill="#4dd2ff" stroke="none" /><path d="M 102.88285421437855 79.19881850522331 l 6.128331600377065 -44.21886380650639 a65.64150943396226,65.64150943396226 0 0,0 1.1178780926223777,0.1647461721509335 l -6.888578673428098 44.106823150194494" fill="#ff5307" stroke="none" /><path d="M 103.2404852339499 79.25152402106235 l 7.296186878956388 -46.7166943425137 a68.28301886792453,68.28301886792453 0 0,0 1.1597408831836573,0.19136718276864179 l -8.09925696827892 46.58418089680543" fill="#ffbf11" stroke="none" /><path d="M 103.59715602781102 79.31037775812273 l 7.477107340827327 -43.00578711283294 a64.65094339622641,64.65094339622641 0 0,0 1.0947709950951572,0.20006240175354395 l -8.216273457025386 42.87070922972866" fill="#ff2904" stroke="none" /><path d="M 103.95276090670814 79.375362276772 l 8.377864311702135 -43.71385479703044 a65.50943396226415,65.50943396226415 0 0,0 1.105654471096263,0.22178388544468347 l -9.129085192265523 43.56316695550855" fill="#ff4e07" stroke="none" /><path d="M 105.71112130821622 79.79150937346287 l 12.122663154232534 -42.89538104689483 a65.5754716981132,65.5754716981132 0 0,0 1.083587150316468,0.3163288030934825 l -12.859240522272428 42.680353914882645" fill="#ff5107" stroke="none" /><path d="M 106.0581310904928 79.89281104454417 l 12.859240522272428 -42.680353914882645 a65.5754716981132,65.5754716981132 0 0,0 1.0779815248372855,0.3349341071121291 l -13.592007419820431 42.452679672887996" fill="#ff5107" stroke="none" /><path d="M 106.40334571778207 80.00007090966166 l 13.813506799995285 -43.144501119409135 a66.30188679245283,66.30188679245283 0 0,0 1.0839322215994116,0.35735541145826055 l -14.554121843837114 42.90033198369164" fill="#ff6f0a" stroke="none" /><path d="M 109.73455568895987 81.39251694778311 l 21.48949086053405 -41.07689654923354 a67.35849056603774,67.35849056603774 0 0,0 1.022742303588436,0.5463135187679585 l -22.1933782106508 40.700904303963824" fill="#ff9a0e" stroke="none" /><path d="M 110.05341064243156 81.56283822128135 l 20.454580772494392 -37.51208701519172 a63.72641509433962,63.72641509433962 0 0,0 0.9585542580046734,0.5334344067749257 l -21.097259119571103 37.154437210856614" fill="#ff0000" stroke="none" /><path d="M 110.36928655335952 81.73862282372117 l 21.977670242026157 -38.704931499408595 a65.50943396226415,65.50943396226415 0 0,0 0.9757888094163344,0.5652398612234933 l -22.64065578390782 38.32088748079505" fill="#ff4e07" stroke="none" /><line stroke="#e1ed5e" stroke-width="0.3" x1="143.23703022742887" x2="145.7803849466894" y1="26.81831364943548" y2="22.513508569990506" /><path d="M 143.74570117128098 25.957352633546492 a86.0,86.0 0 0,1 28.547481713284135,27.462654790039103" fill="none" id="id26" stroke="none" /><text fill="#e1ed5e" style="font-size:6.75px; font-family:Arial;" text-anchor="middle"><textPath startOffset="19.985693538727396" xlink:href="#id26">February</textPath></text><path d="M 110.68208982089419 81.91981866633111 l 22.539881351635227 -38.1503197323642 a65.31132075471697,65.31132075471697 0 0,0 0.9629934481470329,0.5801927775013527 l -23.193236865999896 37.756680345404234" fill="#ff4506" stroke="none" /><path d="M 110.99172775467656 82.1063720568725 l 23.29693241085534 -37.925488156188464 a65.50943396226415,65.50943396226415 0 0,0 0.9557540907129399,0.5984931239233942 l -23.946305653940545 37.51885069094213" fill="#ff4e07" stroke="none" /><path d="M 111.2981086023043 82.29822771554956 l 24.08842022755444 -37.741514493262265 a65.77358490566039,65.77358490566039 0 0,0 0.949122145656783,0.617335445085252 l -24.734509398995502 37.321280124017484" fill="#ff5908" stroke="none" /><path d="M 112.19680574252982 82.90503203632743 l 25.851091416556915 -36.23273084124313 a65.50943396226415,65.50943396226415 0 0,0 0.9123114659655397,0.6628330788108759 l -26.470948198876243 35.78237852761558" fill="#ff4e07" stroke="none" /><path d="M 112.48926042617603 83.11751280151076 l 26.51022260273214 -35.83546811000076 a65.5754716981132,65.5754716981132 0 0,0 0.9016747462827852,0.6791227252223069 l -27.123143502773306 35.37382879527261" fill="#ff5107" stroke="none" /><path d="M 112.77801427241765 83.33499621200491 l 27.00259619831654 -35.21661177840473 a65.37735849056604,65.37735849056604 0 0,0 0.8871627999753584,0.692444637323925 l -27.604791553451328 34.74658875185758" fill="#ff4806" stroke="none" /><path d="M 113.34407831869373 83.78471172551755 l 28.408619565269348 -34.52122692397678 a65.70754716981132,65.70754716981132 0 0,0 0.8671595934769756,0.7262212213621061 l -28.99863669570544 34.02710454522086" fill="#ff5608" stroke="none" /><line stroke="#e1ed5e" stroke-width="0.3" x1="172.23445277983987" x2="176.4835382374775" y1="55.19839476539836" y2="52.563006222186495" /><path d="M 173.08426987136738 54.67131705675599 a86.0,86.0 0 0,1 12.851231095245387,41.99856678651699" fill="none" id="id27" stroke="none" /><text fill="#e1ed5e" style="font-size:6.75px; font-family:Arial;" text-anchor="middle"><textPath startOffset="22.20632615414155" xlink:href="#id27">March</textPath></text><line stroke="#e1ed5e" stroke-width="0.3" x1="184.98032266829074" x2="189.97916517819016" y1="98.17113171792111" y2="98.06355123074" /><path d="M 185.9800911702706 98.14961562048488 a86.0,86.0 0 0,1 -9.607161424134198,41.387399972396054" fill="none" id="id28" stroke="none" /><text fill="#e1ed5e" style="font-size:6.75px; font-family:Arial;" text-anchor="middle"><textPath startOffset="21.466115282336823" xlink:href="#id28">April</textPath></text><line stroke="#e1ed5e" stroke-width="0.3" x1="174.80103733775053" x2="179.2010983576182" y1="140.37084112569926" y2="142.7455964860345" /><path d="M 175.68104954172406 140.8457921977663 a86.0,86.0 0 0,1 -30.038265399797805,32.042727171017184" fill="none" id="id29" stroke="none" /><text fill="#e1ed5e" style="font-size:6.75px; font-family:Arial;" text-anchor="middle"><textPath startOffset="22.206326154141568" xlink:href="#id29">May</textPath></text><line stroke="#e1ed5e" stroke-width="0.3" x1="143.8653032363475" x2="146.44561519142675" y1="172.8068346515853" y2="177.08958963109032" /><path d="M 144.38136562736335 173.6633856474863 a86.0,86.0 0 0,1 -40.68145358897372,12.25698825130547" fill="none" id="id30" stroke="none" /><text fill="#e1ed5e" style="font-size:6.75px; font-family:Arial;" text-anchor="middle"><textPath startOffset="21.466115282336833" xlink:href="#id30">June</textPath></text><line stroke="#e1ed5e" stroke-width="0.3" x1="102.19456741930631" x2="102.32365962044197" y1="184.97166512339345" y2="189.96999836594603" /><path d="M 102.22038585953345 185.97133177190398 a86.0,86.0 0 0,1 -42.740103519485714,-10.115201625700543" fill="none" id="id31" stroke="none" /><text fill="#e1ed5e" style="font-size:6.75px; font-family:Arial;" text-anchor="middle"><textPath startOffset="22.20632615414155" xlink:href="#id31">July</textPath></text><line stroke="#e1ed5e" stroke-width="0.3" x1="58.666819895761336" x2="56.23545636021788" y1="174.27360380694188" y2="178.64263932499728" /><path d="M 58.180547188652646 175.14741091055294 a86.0,86.0 0 0,1 -31.652253787137756,-30.449443065178592" fill="none" id="id32" stroke="none" /><text fill="#e1ed5e" style="font-size:6.75px; font-family:Arial;" text-anchor="middle"><textPath startOffset="22.20632615414155" xlink:href="#id32">August</textPath></text><line stroke="#e1ed5e" stroke-width="0.3" x1="26.63291911575756" x2="22.317208475507996" y1="142.92168965132927" y2="145.44649492493687" /><path d="M 25.769776987707644 143.4266507060508 a86.0,86.0 0 0,1 -11.730757126820373,-40.83630448921669" fill="none" id="id33" stroke="none" /><text fill="#e1ed5e" style="font-size:6.75px; font-family:Arial;" text-anchor="middle"><textPath startOffset="21.46611528233685" xlink:href="#id33">September</textPath></text><line stroke="#e1ed5e" stroke-width="0.3" x1="15.007084014347285" x2="10.007500721073583" y1="101.09737516637583" y2="101.16192664675087" /><path d="M 14.007167355692545 101.11028546245083 a86.0,86.0 0 0,1 10.666146001902534,-42.60595125391555" fill="none" id="id34" stroke="none" /><text fill="#e1ed5e" style="font-size:6.75px; font-family:Arial;" text-anchor="middle"><textPath startOffset="22.20632615414155" xlink:href="#id34">October</textPath></text><line stroke="#e1ed5e" stroke-width="0.3" x1="26.266209847984243" x2="21.928928074336255" y1="57.711370442889674" y2="55.22380399835377" /><path d="M 25.398753493254645 57.213857153982495 a86.0,86.0 0 0,1 29.58750427330803,-30.492523968695096" fill="none" id="id35" stroke="none" /><text fill="#e1ed5e" style="font-size:6.75px; font-family:Arial;" text-anchor="middle"><textPath startOffset="21.46611528233685" xlink:href="#id35">November</textPath></text><line stroke="#e1ed5e" stroke-width="0.3" x1="56.762969772571076" x2="54.21961505331055" y1="26.818313649435495" y2="22.513508569990535" /><path d="M 56.25429882871897 25.957352633546506 a86.0,86.0 0 0,1 42.265352541879196,-11.944610805530505" fill="none" id="id36" stroke="none" /><text fill="#e1ed5e" style="font-size:6.75px; font-family:Arial;" text-anchor="middle"><textPath startOffset="22.20632615414155" xlink:href="#id36">December</textPath></text></svg>