<?xml version="1.0" encoding="utf-8" ?>
<svg baseProfile="full" height="200mm" version="1.1" viewBox="0,0,200,200" width="200mm" xmlns="http://www.w3.org/2000/svg" xmlns:ev="http://www.w3.org/2001/xml-events" xmlns:xlink="http://www.w3.org/1999/xlink"><defs /><rect fill="#1a1a1a" height="200" width="200" x="0" y="0" /><text alignment-baseline="middle" fill="#e1ed5e" style="dominant-baseline: central; font-size:9.0px; font-family:Arial;" text-anchor="middle" x="100.0" y="100.0">2022</text><line stroke="#e1ed5e" stroke-width="0.3" x1="100.0" x2="100.0" y1="15.0" y2="10.0" /><path d="M 100.0 14.0 a86.0,86.0 0 0,1 42.46469731375804,11.215312516191453" fill="none" id="id13" stroke="none" /><text fill="#e1ed5e" style="font-size:6.75px; font-family:Arial;" text-anchor="middle"><textPath startOffset="22.20632615414155" xlink:href="#id13">January</textPath></text><line stroke="#e1ed5e" stroke-width="0.3" x1="143.23703022742887" x2="145.7803849466894" y1="26.81831364943548" y2="22.513508569990506" /><path d="M 143.74570117128098 25.957352633546492 a86.0,86.0 0 0,1 28.547481713284135,27.462654790039103" fill="none" id="id14" stroke="none" /><text fill="#e1ed5e" style="font-size:6.75px; font-family:Arial;" text-anchor="middle"><textPath startOffset="19.985693538727396" xlink:href="#id14">February</textPath></text><line stroke="#e1ed5e" stroke-width="0.3" x1="172.23445277983987" x2="176.4835382374775" y1="55.19839476539836" y2="52.563006222186495" /><path d="M 173.08426987136738 54.67131705675599 a86.0,86.0 0 0,1 12.851231095245387,41.99856678651699" fill="none" id="id15" stroke="none" /><text fill="#e1ed5e" style="font-size:6.75px; font-family:Arial;" text-anchor="middle"><textPath startOffset="22.20632615414155" xlink:href="#id15">March</textPath></text><line stroke="#e1ed5e" stroke-width="0.3" x1="184.98032266829074" x2="189.97916517819016" y1="98.17113171792111" y2="98.06355123074" /><path d="M 185.9800911702706 98.14961562048488 a86.0,86.0 0 0,1 -9.607161424134198,41.387399972396054" fill="none" id="id16" stroke="none" /><text fill="#e1ed5e" style="font-size:6.75px; font-family:Arial;" text-anchor="middle"><textPath startOffset="21.466115282336823" xlink:href="#id16">April</textPath></text><path d="M 120.89721153311464 102.0752229133903 l 12.20585403023914 1.212117124857102 a33.26589175444969,33.26589175444969 0 0,0 -0.06149073125823201,0.5693278024919813 l -12.183180997479855 -1.422041249233875" fill="#ff3204" stroke="none" /><path d="M 120.8583938346157 102.4346265915055 l 62.575181503847105 7.303879774516526 a84.0,84.0 0 0,0 -0.1799939630126075,1.4347289828504204 l -62.44018603158764 -8.379926511654341" fill="#4dd2ff" stroke="none" /><path d="M 120.81339534386255 102.79330883721812 l 31.390198862229308 4.2127926960151125 a52.67163094805666,52.67163094805666 0 0,0 -0.12833304676003185,0.8975610301399467 l -31.313031764452674 -4.752499198135469" fill="#b0ff20" stroke="none" /><path d="M 120.76222939487914 103.15116336523771 l 9.909760052623032 1.5040423762885375 a31.023247366509263,31.023247366509263 0 0,0 -0.08467610062209951,0.5272781594034637 l -9.882402197639644 -1.6743997653852063" fill="#ff0d01" stroke="none" /><path d="M 120.70491114924044 103.5080841355445 l 9.295775583167885 1.5750061720061759 a30.428260079912825,30.428260079912825 0 0,0 -0.09194196930947193,0.5156593909644722 l -9.267287171519225 -1.7347843137038665" fill="#ff0300" stroke="none" /><path d="M 120.64145759157962 103.86396538481128 l 9.109833263265255 1.705309822937053 a30.268071195059935,30.268071195059935 0 0,0 -0.10027389246369951,0.5112944173608407 l -9.079129437825891 -1.8618679673658387" fill="#ff0000" stroke="none" /><path d="M 120.5718875245553 104.21870165774334 l 9.303305473327764 1.9078400159427724 a30.496912459135487,30.496912459135487 0 0,0 -0.109884676055095,0.5133446240371072 l -9.269086758548225 -2.067698459396049" fill="#ff0400" stroke="none" /><path d="M 120.49622156327973 104.57218783832717 l 9.269086758548225 2.067698459396049 a30.496912459135487,30.496912459135487 0 0,0 -0.11870477929881938,0.5113770824266027 l -9.232121413318854 -2.2269441991712164" fill="#ff0400" stroke="none" /><path d="M 120.41448212921028 104.9243191809786 l 56.54952441603984 13.640703986248756 a79.17144932800582,79.17144932800582 0 0,0 -0.3309694038981342,1.3220582473281612 l -56.30634369784664 -14.612090072974313" fill="#46fff8" stroke="none" /><path d="M 120.32669344350535 105.2749913415812 l 18.119035855561975 4.702080912546414 a39.71921540138031,39.71921540138031 0 0,0 -0.17743504776184743,0.6603018201797749 l -18.03541273145835 -5.013273665901737" fill="#ff980e" stroke="none" /><path d="M 120.23288151984713 105.62410040840565 l 9.12794727484567 2.537280315016283 a30.474028332727933,30.474028332727933 0 0,0 -0.14483487673085102,0.5041892064508517 l -9.08291976122872 -2.6940269969717168" fill="#ff0300" stroke="none" /><path d="M 120.13307415673323 105.97154293290107 l 9.126798600654945 2.7070416201454934 a30.519796585543045,30.519796585543045 0 0,0 -0.1537227327290095,0.502374784896193 l -9.078849095419804 -2.8637433775937438" fill="#ff0400" stroke="none" /><path d="M 120.02730092923936 106.31721596034902 l 17.76486337421087 5.603574782118527 a39.627678895750094,39.627678895750094 0 0,0 -0.21079613366167707,0.6487637902707424 l -17.665774989532945 -5.908537472367065" fill="#ff960d" stroke="none" /><path d="M 119.9155931802556 106.66101706037122 l 9.00650690498301 3.0123379005311195 a30.496912459135487,30.496912459135487 0 0,0 -0.17079602538647415,0.49641319762040576 l -8.953320048653303 -3.166923801240826" fill="#ff0400" stroke="none" /><path d="M 119.79798401119884 107.00284435728193 l 8.953320048653303 3.166923801240826 a30.496912459135487,30.496912459135487 0 0,0 -0.17931565728336488,0.49339967583344996 l -8.897480130364713 -3.320571274080407" fill="#ff0400" stroke="none" /><path d="M 119.67450827220406 107.3425965602758 l 28.514815839482093 10.641830830185402 a51.435888122048674,51.435888122048674 0 0,0 -0.31671212230329965,0.8268354118576502 l -28.32740943758529 -11.131089808876196" fill="#c0ff1e" stroke="none" /><path d="M 119.54520255179757 107.68017299344265 l 8.796406088513328 3.456496309072082 a30.45114420632038,30.45114420632038 0 0,0 -0.19589857024500157,0.4862041858232795 l -8.735604904010934 -3.607399862738175" fill="#ff0300" stroke="none" /><path d="M 119.41010516605496 108.01547362559984 l 8.777908075458926 3.6248691114681413 a30.496912459135487,30.496912459135487 0 0,0 -0.204545723644442,0.48348566886548433 l -8.714211370622175 -3.775429305999789" fill="#ff0400" stroke="none" /><path d="M 119.26925614724726 108.34839909993367 l 8.714211370622175 3.775429305999789 a30.496912459135487,30.496912459135487 0 0,0 -0.21283782900267742,0.4798931168551524 l -8.647932456888224 -3.924870759347629" fill="#ff0400" stroke="none" /><path d="M 119.12269723197855 108.67885076344098 l 8.585417282501083 3.896498199641503 a30.428260079912825,30.428260079912825 0 0,0 -0.22056921664580922,0.47508646989638387 l -8.517073449015443 -4.043704736816718" fill="#ff0300" stroke="none" /><path d="M 118.97047184881838 109.00673069616215 l 8.620435990872425 4.09277882342857 a30.5426807119506,30.5426807119506 0 0,0 -0.2295744135541896,0.47299128961679515 l -8.54870832070352 -4.24055906901064" fill="#ff0500" stroke="none" /><line stroke="#e1ed5e" stroke-width="0.3" x1="174.80103733775053" x2="179.2010983576182" y1="140.37084112569926" y2="142.7455964860345" /><path d="M 175.68104954172406 140.8457921977663 a86.0,86.0 0 0,1 -30.038265399797805,32.042727171017184" fill="none" id="id17" stroke="none" /><text fill="#e1ed5e" style="font-size:6.75px; font-family:Arial;" text-anchor="middle"><textPath startOffset="22.206326154141568" xlink:href="#id17">May</textPath></text><line stroke="#e1ed5e" stroke-width="0.3" x1="143.8653032363475" x2="146.44561519142675" y1="172.8068346515853" y2="177.08958963109032" /><path d="M 144.38136562736335 173.6633856474863 a86.0,86.0 0 0,1 -40.68145358897372,12.25698825130547" fill="none" id="id18" stroke="none" /><text fill="#e1ed5e" style="font-size:6.75px; font-family:Arial;" text-anchor="middle"><textPath startOffset="21.466115282336833" xlink:href="#id18">June</textPath></text><line stroke="#e1ed5e" stroke-width="0.3" x1="102.19456741930631" x2="102.32365962044197" y1="184.97166512339345" y2="189.96999836594603" /><path d="M 102.22038585953345 185.97133177190398 a86.0,86.0 0 0,1 -42.740103519485714,-10.115201625700543" fill="none" id="id19" stroke="none" /><text fill="#e1ed5e" style="font-size:6.75px; font-family:Arial;" text-anchor="middle"><textPath startOffset="22.20632615414155" xlink:href="#id19">July</textPath></text><line stroke="#e1ed5e" stroke-width="0.3" x1="58.666819895761336" x2="56.23545636021788" y1="174.27360380694188" y2="178.64263932499728" /><path d="M 58.180547188652646 175.14741091055294 a86.0,86.0 0 0,1 -31.652253787137756,-30.449443065178592" fill="none" id="id20" stroke="none" /><text fill="#e1ed5e" style="font-size:6.75px; font-family:Arial;" text-anchor="middle"><textPath startOffset="22.20632615414155" xlink:href="#id20">August</textPath></text><line stroke="#e1ed5e" stroke-width="0.3" x1="26.63291911575756" x2="22.317208475507996" y1="142.92168965132927" y2="145.44649492493687" /><path d="M 25.769776987707644 143.4266507060508 a86.0,86.0 0 0,1 -11.730757126820373,-40.83630448921669" fill="none" id="id21" stroke="none" /><text fill="#e1ed5e" style="font-size:6.75px; font-family:Arial;" text-anchor="middle"><textPath startOffset="21.46611528233685" xlink:href="#id21">September</textPath></text><line stroke="#e1ed5e" stroke-width="0.3" x1="15.007084014347285" x2="10.007500721073583" y1="101.09737516637583" y2="101.16192664675087" /><path d="M 14.007167355692545 101.11028546245083 a86.0,86.0 0 0,1 10.666146001902534,-42.60595125391555" fill="none" id="id22" stroke="none" /><text fill="#e1ed5e" style="font-size:6.75px; font-family:Arial;" text-anchor="middle"><textPath startOffset="22.20632615414155" xlink:href="#id22">October</textPath></text><line stroke="#e1ed5e" stroke-width="0.3" x1="26.266209847984243" x2="21.928928074336255" y1="57.711370442889674" y2="55.22380399835377" /><path d="M 25.398753493254645 57.213857153982495 a86.0,86.0 0 0,1 29.58750427330803,-30.492523968695096" fill="none" id="id23" stroke="none" /><text fill="#e1ed5e" style="font-size:6.75px; font-family:Arial;" text-anchor="middle"><textPath startOffset="21.46611528233685" xlink:href="#id23">November</textPath></text><line stroke="#e1ed5e" stroke-width="0.3" x1="56.762969772571076" x2="54.21961505331055" y1="26.818313649435495" y2="22.513508569990535" /><path d="M 56.25429882871897 25.957352633546506 a86.0,86.0 0 0,1 42.265352541879196,-11.944610805530505" fill="none" id="id24" stroke="none" /><text fill="#e1ed5e" style="font-size:6.75px; font-family:Arial;" text-anchor="middle"><textPath startOffset="22.20632615414155" xlink:href="#id24">December</textPath></text></svg>