<?xml version="1.0" encoding="utf-8" ?>
<svg baseProfile="full" height="200mm" version="1.1" viewBox="0,0,200,200" width="200mm" xmlns="http://www.w3.org/2000/svg" xmlns:ev="http://www.w3.org/2001/xml-events" xmlns:xlink="http://www.w3.org/1999/xlink"><defs /><rect fill="#1a1a1a" height="200" width="200" x="0" y="0" /><text alignment-baseline="middle" fill="#e1ed5e" style="dominant-baseline: central; font-size:9.0px; font-family:Arial;" text-anchor="middle" x="100.0" y="100.0">2021</text><line stroke="#e1ed5e" stroke-width="0.3" x1="100.0" x2="100.0" y1="15.0" y2="10.0" /><path d="M 100.0 14.0 a86.0,86.0 0 0,1 42.46469731375804,11.215312516191453" fill="none" id="id1" stroke="none" /><text fill="#e1ed5e" style="font-size:6.75px; font-family:Arial;" text-anchor="middle"><textPath startOffset="22.20632615414155" xlink:href="#id1">January</textPath></text><line stroke="#e1ed5e" stroke-width="0.3" x1="143.23703022742887" x2="145.7803849466894" y1="26.81831364943548" y2="22.513508569990506" /><path d="M 143.74570117128098 25.957352633546492 a86.0,86.0 0 0,1 28.547481713284135,27.462654790039103" fill="none" id="id2" stroke="none" /><text fill="#e1ed5e" style="font-size:6.75px; font-family:Arial;" text-anchor="middle"><textPath startOffset="19.985693538727396" xlink:href="#id2">February</textPath></text><line stroke="#e1ed5e" stroke-width="0.3" x1="172.23445277983987" x2="176.4835382374775" y1="55.19839476539836" y2="52.563006222186495" /><path d="M 173.08426987136738 54.67131705675599 a86.0,86.0 0 0,1 12.851231095245387,41.99856678651699" fill="none" id="id3" stroke="none" /><text fill="#e1ed5e" style="font-size:6.75px; font-family:Arial;" text-anchor="middle"><textPath startOffset="22.20632615414155" xlink:href="#id3">March</textPath></text><line stroke="#e1ed5e" stroke-width="0.3" x1="184.98032266829074" x2="189.97916517819016" y1="98.17113171792111" y2="98.06355123074" /><path d="M 185.9800911702706 98.14961562048488 a86.0,86.0 0 0,1 -9.607161424134198,41.387399972396054" fill="none" id="id4" stroke="none" /><text fill="#e1ed5e" style="font-size:6.75px; font-family:Arial;" text-anchor="middle"><textPath startOffset="21.466115282336823" xlink:href="#id4">April</textPath></text><line stroke="#e1ed5e" stroke-width="0.3" x1="174.80103733775053" x2="179.2010983576182" y1="140.37084112569926" y2="142.7455964860345" /><path d="M 175.68104954172406 140.8457921977663 a86.0,86.0 0 0,1 -30.038265399797805,32.042727171017184" fill="none" id="id5" stroke="none" /><text fill="#e1ed5e" style="font-size:6.75px; font-family:Arial;" text-anchor="middle"><textPath startOffset="22.206326154141568" xlink:href="#id5">May</textPath></text><line stroke="#e1ed5e" stroke-width="0.3" x1="143.8653032363475" x2="146.44561519142675" y1="172.8068346515853" y2="177.08958963109032" /><path d="M 144.38136562736335 173.6633856474863 a86.0,86.0 0 0,1 -40.68145358897372,12.25698825130547" fill="none" id="id6" stroke="none" /><text fill="#e1ed5e" style="font-size:6.75px; font-family:Arial;" text-anchor="middle"><textPath startOffset="21.466115282336833" xlink:href="#id6">June</textPath></text><line stroke="#e1ed5e" stroke-width="0.3" x1="102.19456741930631" x2="102.32365962044197" y1="184.97166512339345" y2="189.96999836594603" /><path d="M 102.22038585953345 185.97133177190398 a86.0,86.0 0 0,1 -42.740103519485714,-10.115201625700543" fill="none" id="id7" stroke="none" /><text fill="#e1ed5e" style="font-size:6.75px; font-family:Arial;" text-anchor="middle"><textPath startOffset="22.20632615414155" xlink:href="#id7">July</textPath></text><line stroke="#e1ed5e" stroke-width="0.3" x1="58.666819895761336" x2="56.23545636021788" y1="174.27360380694188" y2="178.64263932499728" /><path d="M 58.180547188652646 175.14741091055294 a86.0,86.0 0 0,1 -31.652253787137756,-30.449443065178592" fill="none" id="id8" stroke="none" /><text fill="#e1ed5e" style="font-size:6.75px; font-family:Arial;" text-anchor="middle"><textPath startOffset="22.20632615414155" xlink:href="#id8">August</textPath></text><line stroke="#e1ed5e" stroke-width="0.3" x1="26.63291911575756" x2="22.317208475507996" y1="142.92168965132927" y2="145.44649492493687" /><path d="M 25.769776987707644 143.4266507060508 a86.0,86.0 0 0,1 -11.730757126820373,-40.83630448921669" fill="none" id="id9" stroke="none" /><text fill="#e1ed5e" style="font-size:6.75px; font-family:Arial;" text-anchor="middle"><textPath startOffset="21.46611528233685" xlink:href="#id9">September</textPath></text><path d="M 81.87401531095188 110.60418214915194 l -1.2191984057073773 0.7132634277181223 a22.412511759172155,22.412511759172155 0 0,0 -0.1919450238618326,-0.3346723281973196 l 1.231295425721587 -0.6921712536624958" fill="#ff1001" stroke="none" /><path d="M 81.69416730710424 110.29060199501025 l -1.2571267982891732 0.7066923289141567 a22.44214487300094,22.44214487300094 0 0,0 -0.186401880398003,-0.33837355700853583 l 1.2691050881386927 -0.6849482535077983" fill="#ff1001" stroke="none" /><path d="M 81.51974371655577 109.97397251340807 l -1.2343350857239324 0.6661825479322413 a22.402634054562558,22.402634054562558 0 0,0 -0.1802318491749569,-0.34093073649325767 l 1.2456194431237755 -0.6448367963528575" fill="#ff1001" stroke="none" /><path d="M 81.35079622478065 109.6543875284942 l -2.5526426616128095 1.321461322103392 a23.874412041392286,23.874412041392286 0 0,0 -0.1857899130416714,-0.36658112432484025 l 2.5750112444407476 -1.2773259860758668" fill="#ff2503" stroke="none" /><path d="M 81.18737489456691 109.33194174019688 l -10.28234730597989 5.100525071546931 a32.47789275634995,32.47789275634995 0 0,0 -0.2441204573145833,-0.5029604481590516 l 10.368621019909192 -4.922775667422594" fill="#ff9a0e" stroke="none" /><path d="M 81.02952815118164 109.00673069616217 l -5.37169522718187 2.5503536590261633 a26.94637817497648,26.94637817497648 0 0,0 -0.1953296544030822,-0.4207226982424081 l 5.414799498424778 -2.457510893504928" fill="#ff5007" stroke="none" /><path d="M 80.87730276802145 108.67885076344099 l -1.4931174696653036 0.6776525055179698 a22.63969896519285,22.63969896519285 0 0,0 -0.15800236773090615,-0.3562536278263128 l 1.5045609221274896 -0.6518505411989611" fill="#ff1302" stroke="none" /><path d="M 80.73074385275274 108.34839909993369 l -1.3323521418839814 0.577241141905104 a22.452022577610535,22.452022577610535 0 0,0 -0.1505878738240297,-0.35594525078119515 l 1.3420909969003179 -0.55422136545775" fill="#ff1001" stroke="none" /><path d="M 80.58989483394504 108.01547362559985 l -1.6616364723527748 0.6861788334238811 a22.797742238946377,22.797742238946377 0 0,0 -0.14666263701502774,-0.3640046373559761 l 1.6732017236251902 -0.6574748282250996" fill="#ff1502" stroke="none" /><path d="M 80.45479744820244 107.68017299344265 l -2.4730289211822885 0.9717622461129226 a23.657102539981185,23.657102539981185 0 0,0 -0.1456666041267854,-0.38028953783376623 l 2.489389804902583 -0.9290491414459986" fill="#ff2203" stroke="none" /><path d="M 80.32549172779594 107.34259656027581 l -16.509559152216383 6.161426276355618 a38.62182502351834,38.62182502351834 0 0,0 -0.22708849457646874,-0.624850006446887 l 16.613171907798076 -5.876328472902614" fill="#ffe715" stroke="none" /><path d="M 80.20201598880116 107.00284435728193 l -0.8567330804469868 0.30303936071022475 a21.908748824082785,21.908748824082785 0 0,0 -0.12269855925113796,-0.35661944710627447 l 0.8618224706413532 -0.2882472105146534" fill="#ff0901" stroke="none" /><path d="M 80.0844068197444 106.66101706037122 l -5.489434432563397 1.8360094061042038 a26.788334901222953,26.788334901222953 0 0,0 -0.14249831384945055,-0.4385647146096882 l 5.520224997429097 -1.741245791516712" fill="#ff4d07" stroke="none" /><path d="M 79.97269907076064 106.31721596034903 l -1.3565058014160223 0.4278829248778264 a22.422389463781748,22.422389463781748 0 0,0 -0.11293754770041584,-0.3690864404077382 l 1.3636701216225686 -0.4044695119180404" fill="#ff1001" stroke="none" /><path d="M 79.86692584326677 105.97154293290107 l -5.8713574680971785 1.7414659540915653 a27.1241768579492,27.1241768579492 0 0,0 -0.12891393184889852,-0.4487663086850327 l 5.900464036832181 -1.6401421699019367" fill="#ff5207" stroke="none" /><path d="M 79.76711848015287 105.62410040840567 l -1.3609134794629065 0.3782908553160919 a22.412511759172155,22.412511759172155 0 0,0 -0.10012194486383479,-0.37259100311604054 l 1.3672235006685163 -0.35480891902451245" fill="#ff1001" stroke="none" /><path d="M 79.67330655649465 105.27499134158121 l -1.3767845041696924 0.35729010027643154 a22.422389463781748,22.422389463781748 0 0,0 -0.09373486197093939,-0.37442417900654773 l 1.3827306804356905 -0.33353808187249195" fill="#ff1001" stroke="none" /><path d="M 79.58551787078972 104.9243191809786 l -1.373128384043778 0.33122184519282244 a22.412511759172155,22.412511759172155 0 0,0 -0.08723742986997664,-0.37581656466419805 l 1.37862637984431 -0.3075366231800501" fill="#ff1001" stroke="none" /><path d="M 79.4281124754447 104.21870165774334 l -6.70569993156953 1.3751459307695841 a27.845249294449673,27.845249294449673 0 0,0 -0.09224742189162573,-0.47036761683698747 l 6.728377286436822 -1.2595145868646418" fill="#ff5c08" stroke="none" /><path d="M 79.35854240842038 103.8639653848113 l -28.622303377223297 5.357935067932125 a50.119473189087486,50.119473189087486 0 0,0 -0.15144089913967848,-0.8493609871964599 l 28.710290718702165 -4.864455330002452" fill="#92ff23" stroke="none" /><path d="M 79.29508885075956 103.50808413554451 l -1.4218800695151015 0.240912645244355 a22.44214487300094,22.44214487300094 0 0,0 -0.0612544939281032,-0.3814317921622853 l 1.4258163178044954 -0.216401623388856" fill="#ff1001" stroke="none" /><path d="M 79.23777060512086 103.15116336523772 l -5.9767094965503444 0.9071081747532859 a27.045155221072434,27.045155221072434 0 0,0 -0.0658948110614073,-0.4608681550882705 l 5.991438358628351 -0.8040945476846149" fill="#ff5107" stroke="none" /><path d="M 79.18660465613746 102.79330883721812 l -4.748116999893382 0.6372317902402583 a25.790686735653807,25.790686735653807 0 0,0 -0.0552639037424645,-0.44050768746734525 l 4.758382412882694 -0.5554063484855044" fill="#ff4006" stroke="none" /><path d="M 79.1416061653843 102.43462659150553 l -2.0995749203234975 0.24506589397092357 a23.113828786453432,23.113828786453432 0 0,0 -0.04272503033280272,-0.3955807181512746 l 2.103482252157352 -0.20888885393486684" fill="#ff1a02" stroke="none" /><path d="M 79.10278846688536 102.07522291339032 l -1.4252566661813841 0.1415368402829706 a22.432267168391345,22.432267168391345 0 0,0 -0.03485056060901313,-0.3845730322700876 l 1.4274818230674726 -0.11698241946431684" fill="#ff1001" stroke="none" /><path d="M 79.07016306316243 101.71520430193888 l -7.639488928967995 0.626057637960758 a28.665098777046097,28.665098777046097 0 0,0 -0.03606812171030049,-0.4921208644809034 l 7.649133609342631 -0.4944636369830939" fill="#ff6709" stroke="none" /><path d="M 79.04373962182676 101.35467743843564 l -4.376566137304288 0.28291476136661553 a25.385700846660395,25.385700846660395 0 0,0 -0.0244351261613564,-0.4363055922003412 l 4.380787614353176 -0.20753745283083677" fill="#ff3a05" stroke="none" /><path d="M 79.0235259727143 100.99374915477108 l -5.189851993580563 0.2458664418671624 a26.195672624647223,26.195672624647223 0 0,0 -0.017461121203487917,-0.4505939515140548 l 5.193315247635251 -0.15649524333911083" fill="#ff4506" stroke="none" /><path d="M 79.0095281055655 100.63252640178507 l -1.4414905440204324 0.043437843208194306 a22.44214487300094,22.44214487300094 0 0,0 -0.008312076001722983,-0.386229510124566 l 1.4420246827071628 -0.018618517293499465" fill="#ff1001" stroke="none" /><line stroke="#e1ed5e" stroke-width="0.3" x1="15.007084014347285" x2="10.007500721073583" y1="101.09737516637583" y2="101.16192664675087" /><path d="M 14.007167355692545 101.11028546245083 a86.0,86.0 0 0,1 10.666146001902534,-42.60595125391555" fill="none" id="id10" stroke="none" /><text fill="#e1ed5e" style="font-size:6.75px; font-family:Arial;" text-anchor="middle"><textPath startOffset="22.20632615414155" xlink:href="#id10">October</textPath></text><path d="M 79.00175016825051 100.2711162175752 l -62.994749495248485 0.8133486527256131 a84.0,84.0 0 0,0 -0.006222810841987947,-1.4459620871852985 l 62.99941660337998 0.27112291266336075" fill="#4dd2ff" stroke="none" /><path d="M 79.00019446554 99.90962569577889 l -19.56755162924047 -0.08421048761149538 a40.56773283160865,40.56773283160865 0 0,0 0.00901568192264451,-0.6982745005388719 l 19.56320294020011 0.42102124621083914" fill="#ffff18" stroke="none" /><path d="M 79.00486145842228 99.54816195383935 l -15.385901151353744 -0.3311212022193273 a36.38946378174976,36.38946378174976 0 0,0 0.018867600011949006,-0.6261237896925308 l 15.37792185688615 0.5959151393368525" fill="#ffcc13" stroke="none" /><path d="M 79.01574976396665 99.18683210126434 l -52.71725329757955 -2.042864415403164 a73.75682031984948,73.75682031984948 0 0,0 0.060081574468703866,-1.2682270775380955 l 52.67427811487735 2.950002599564269" fill="#40ffca" stroke="none" /><path d="M 79.03285615573316 98.82574320788736 l -5.256579336309611 -0.2943926952944683 a26.264816556914393,26.264816556914393 0 0,0 0.02916571426117844,-0.451180690569728 l 5.250733031044019 0.38483245011720807" fill="#ff4606" stroke="none" /><path d="M 79.05617556472873 98.46500227214037 l -0.30538972600818703 -0.0223823751475298 a21.30620884289746,21.30620884289746 0 0,0 0.029956038758863966,-0.36553954872192945 l 0.30495920342982596 0.027635841077237613" fill="#ff0000" stroke="none" /><path d="M 79.08570108090925 98.10471618934814 l -8.32243503553659 -0.754191017785263 a29.35653809971778,29.35653809971778 0 0,0 0.04993809147338494,-0.5028697661083882 l 8.308219818380975 0.8973363145980815" fill="#ff700a" stroke="none" /><path d="M 79.12142395522702 97.74499172005258 l -1.443626847874707 -0.15592013977058847 a22.452022577610535,22.452022577610535 0 0,0 0.04480744478967187,-0.3838828235125067 l 1.440729050081446 0.1807467016079569" fill="#ff1001" stroke="none" /><path d="M 79.16333360222342 97.38593545837743 l -1.5485387068902623 -0.19427196499358637 a22.560677328316086,22.560677328316086 0 0,0 0.05165750618622176,-0.38490842273015896 l 1.5449652016462065 0.2208987297884047" fill="#ff1202" stroke="none" /><path d="M 79.21141760316559 97.0276538004421 l -6.434095586602562 -0.9199453430428508 a27.49952963311383,27.49952963311383 0 0,0 0.07103273408512824,-0.46801696665118336 l 6.417306959078132 1.030561422086126" fill="#ff5708" stroke="none" /><path d="M 79.26566170972629 96.67025291283419 l -1.394642697793576 -0.22396699598528275 a22.412511759172155,22.412511759172155 0 0,0 0.06444999351392942,-0.3803875100241704 l 1.3905808427594235 0.24794029432528117" fill="#ff1001" stroke="none" /><path d="M 79.32604984820605 96.31383870115002 l -1.4003051843171794 -0.24967414253734568 a22.422389463781748,22.422389463781748 0 0,0 0.07101947635212329,-0.3793888824835183 l 1.3957999840551947 0.2737411024834367" fill="#ff1001" stroke="none" /><path d="M 79.3925641242962 95.95851677861259 l -2.617124970103494 -0.5132645671564446 a23.666980244590782,23.666980244590782 0 0,0 0.08184346518705221,-0.39909780236711556 l 2.6079022090014474 0.5582380256869627" fill="#ff2203" stroke="none" /><path d="M 79.46518482838121 95.60439243477599 l -1.390881178134103 -0.29772694703304625 a22.422389463781748,22.422389463781748 0 0,0 0.08403656702980934,-0.3767194520797707 l 1.385550224102256 0.32162456866277617" fill="#ff1001" stroke="none" /><path d="M 79.54389044137918 95.25157060432595 l -3.5793380789308333 -0.8308634690455063 a24.67450611476952,24.67450611476952 0 0,0 0.09959946610935311,-0.4129040881066918 l 3.5645058125606655 0.892352788811595" fill="#ff3004" stroke="none" /><path d="M 79.62865764111835 94.90015583598534 l -13.31898677274012 -3.3343289689465507 a34.730009407337725,34.730009407337725 0 0,0 0.15017201182690468,-0.5786740205880503 l 13.259618429042908 3.5630994150834647" fill="#ffb710" stroke="none" /><path d="M 79.71946130924805 94.55025226153421 l -13.106989727701407 -3.5220853210968928 a34.5719661335842,34.5719661335842 0 0,0 0.1593820804410806,-0.573382143948119 l 13.044420876693966 3.747178768463954" fill="#ffb510" stroke="none" /><path d="M 79.81627453868168 94.20196356495316 l -1.3671008779067892 -0.3927174255158724 a22.422389463781748,22.422389463781748 0 0,0 0.10975663854958852,-0.3700448222414656 l 1.3601383422454938 0.41619163450387725" fill="#ff1001" stroke="none" /><path d="M 79.91906864156998 93.8553929516997 l -1.435701583481358 -0.4393133919763159 a22.501411100658515,22.501411100658515 0 0,0 0.11651928879399419,-0.3693979872439454 l 1.4279268109191599 0.46396154564667574" fill="#ff1101" stroke="none" /><path d="M 80.02781315780177 93.51064311812611 l -1.3433785129042086 -0.4364901383386486 a22.412511759172155,22.412511759172155 0 0,0 0.12237520246088826,-0.36588627914828364 l 1.335666016671548 0.4595495204092544" fill="#ff1001" stroke="none" /><path d="M 80.14247586403 93.16781622104843 l -3.6240448564234997 -1.2468896078237108 a24.83254938852305,24.83254938852305 0 0,0 0.1425470154487953,-0.4029996082612887 l 3.6020447601648953 1.3090868425116107" fill="#ff3204" stroke="none" /><path d="M 80.2630227832202 92.82701384747504 l -1.596782728732891 -0.5803168477113324 a22.698965192850423,22.698965192850423 0 0,0 0.1366211926732172,-0.36607687258070243 l 1.5865569475580463 0.6077168573213763" fill="#ff1402" stroke="none" /><path d="M 80.38941819471856 92.48833698450439 l -32.37683073214386 -12.401663774407158 a55.67074317968015,55.67074317968015 0 0,0 0.35047768243969374,-0.8919274733807514 l 32.15855949982247 12.957140252683672" fill="#58ff2a" stroke="none" /><path d="M 80.52162464483688 92.15188598940014 l -13.02833948967167 -5.249302974164155 a35.04609595484478,35.04609595484478 0 0,0 0.2302667238606601,-0.5576091364212848 l 12.93605107892481 5.472786681038751" fill="#ffbb11" stroke="none" /><path d="M 80.803312248108 91.48605970444005 l -6.049755782581206 -2.683132642533002 a27.618062088428974,27.618062088428974 0 0,0 0.19647973742731364,-0.4329170570449528 l 6.002673728190541 2.7868717084200254" fill="#ff5908" stroke="none" /><path d="M 80.95270993114464 91.15688171328213 l -11.602182802995152 -5.3865654662745275 a33.79162746942615,33.79162746942615 0 0,0 0.24948166456602447,-0.5254720113328971 l 11.507742944587376 5.585479893247957" fill="#ffab0f" stroke="none" /><path d="M 81.43458229118936 90.18545643968196 l -5.842081113449819 -3.0883958804575586 a27.608184383819378,27.608184383819378 0 0,0 0.22571912638023106,-0.41822326038840013 l 5.788053887851116 3.1885001241784314" fill="#ff5908" stroke="none" /><path d="M 81.6062741919709 89.86733742301443 l -27.971267891513687 -15.408700899056605 a52.934619002822195,52.934619002822195 0 0,0 0.44652206035459263,-0.7943129211004183 l 27.701888189866665 15.887897330091809" fill="#74ff27" stroke="none" /><line stroke="#e1ed5e" stroke-width="0.3" x1="26.266209847984243" x2="21.928928074336255" y1="57.711370442889674" y2="55.22380399835377" /><path d="M 25.398753493254645 57.213857153982495 a86.0,86.0 0 0,1 29.58750427330803,-30.492523968695096" fill="none" id="id11" stroke="none" /><text fill="#e1ed5e" style="font-size:6.75px; font-family:Arial;" text-anchor="middle"><textPath startOffset="21.46611528233685" xlink:href="#id11">November</textPath></text><path d="M 82.15384107792192 88.93136811851018 l -10.954486073994307 -6.794244875514682 a33.89040451552211,33.89040451552211 0 0,0 0.3117471859266708,-0.49310918188735964 l 10.835911291821674 6.981801705116257" fill="#ffac0f" stroke="none" /><path d="M 82.34701348167596 88.62581576622439 l -4.400791559130641 -2.835520999012733 a26.235183443085607,26.235183443085607 0 0,0 0.2478642222433508,-0.37751421546346026 l 4.3513307015293705 2.91085327845386" fill="#ff4606" stroke="none" /><path d="M 82.54541684631803 88.32363383020206 l -2.4465972623693433 -1.6366684471306605 a23.943555973659453,23.943555973659453 0 0,0 0.2321105810061022,-0.34059363668509507 l 2.418062215694501 1.6785401070861712" fill="#ff2603" stroke="none" /><path d="M 83.17141714833178 87.43820079747576 l -1.0765227035874294 -0.8035769950815117 a22.343367826904984,22.343367826904984 0 0,0 0.2327158152460328,-0.306226734222539 l 1.0625309481172875 0.8219885051850772" fill="#ff0f01" stroke="none" /><path d="M 83.84228863543731 86.58626213691792 l -0.5700039286651933 -0.47320335829311155 a21.74082784571966,21.74082784571966 0 0,0 0.24151925668618984,-0.2858826208214092 l 0.5617740584918792 0.48294492874363665" fill="#ff0601" stroke="none" /><path d="M 84.07557802195018 86.31012108654704 l -3.4155862756306266 -2.9363051667613114 a25.50423330197554,25.50423330197554 0 0,0 0.2890578590037667,-0.3304431015446852 l 3.364536553049016 2.99466382450894" fill="#ff3c05" stroke="none" /><path d="M 84.5562425177563 85.77008943001954 l -5.0631697860413265 -4.665215271531695 a27.884760112888053,27.884760112888053 0 0,0 0.3282868532819393,-0.35019352594226927 l 4.982115610788932 4.7516782143520135" fill="#ff5c08" stroke="none" /><path d="M 84.80347519578584 85.50635884689758 l -3.702633983340986 -3.53137634868629 a26.116650987770463,26.116650987770463 0 0,0 0.3130711602864323,-0.3226473504070899 l 3.6412985593514353 3.5945878946435035" fill="#ff4406" stroke="none" /><path d="M 85.05521093208273 85.24692304244772 l -4.5973151695286445 -4.5383407009591705 a27.460018814675447,27.460018814675447 0 0,0 0.33496541652627904,-0.3335269685760564 l 4.518513952835052 4.616803520185337" fill="#ff5708" stroke="none" /><path d="M 85.31137513191541 84.99185889309783 l -1.0639925821660527 -1.087137220349453 a22.521166509877705,22.521166509877705 0 0,0 0.2793876785341793,-0.26877072539131003 l 1.0451216600194457 1.1052910325030765" fill="#ff1101" stroke="none" /><path d="M 85.57189188830299 84.74124197986013 l -5.117024231523778 -5.411619730567009 a28.447789275634996,28.447789275634996 0 0,0 0.358702396364447,-0.33337478462136183 l 5.023113951364475 5.498899101263018" fill="#ff6409" stroke="none" /><path d="M 85.83668400450813 84.49514656593479 l -7.741191527169123 -8.474430710434516 a32.47789275634995,32.47789275634995 0 0,0 0.41600934749973945,-0.37349729970207496 l 7.5941711920734125 8.60642701890587" fill="#ff9a0e" stroke="none" /><path d="M 86.10567301691215 84.25364557470407 l -10.404406659019688 -11.791249409723022 a36.72530573847602,36.72530573847602 0 0,0 0.47761470208433504,-0.41418276315410524 l 10.19989815828858 11.968597166296808" fill="#ffd013" stroke="none" /><path d="M 86.37877921826538 84.01681056812374 l -3.7224502700789337 -4.3679365286548 a26.738946378174976,26.738946378174976 0 0,0 0.35288083135074705,-0.29552754794682495 l 3.646711901769076 4.431365233995438" fill="#ff4d07" stroke="none" /><path d="M 86.65592168130627 83.78471172551755 l -1.8578773200062764 -2.257631857594922 a23.923800564440263,23.923800564440263 0 0,0 0.3202332872421354,-0.25893971421743495 l 1.8187406341996406 2.2892776690764913" fill="#ff2503" stroke="none" /><path d="M 86.93701828274178 83.55741782278169 l -1.8064518461307246 -2.273809576717867 a23.904045155221073,23.904045155221073 0 0,0 0.32437498424938377,-0.25317982035738634 l 1.767044306721915 2.3045677862984753" fill="#ff2503" stroke="none" /><path d="M 87.22198572758235 83.33499621200491 l -1.8992721119868208 -2.4770184369738715 a24.121354656632175,24.121354656632175 0 0,0 0.3316730444600244,-0.24980926078396223 l 1.8563529137684065 2.5093442872636884" fill="#ff2803" stroke="none" /><path d="M 87.51073957382395 83.11751280151077 l -1.4745081688476898 -1.9931816965290687 a23.479303857008468,23.479303857008468 0 0,0 0.32698249436832594,-0.2375666880718629 l 1.4399803581255821 2.0182676194175992" fill="#ff1f03" stroke="none" /><path d="M 87.80319425747018 82.90503203632743 l -1.9677819236536842 -2.758031049642377 a24.388052681091253,24.388052681091253 0 0,0 0.3438353792887784,-0.2408786562633235 l 1.9200154047812454 2.791494548669643" fill="#ff2c04" stroke="none" /><path d="M 88.09926311788651 82.69761687909137 l -11.777587206005064 -17.12333682332631 a41.78269049858889,41.78269049858889 0 0,0 0.5960903775448436,-0.4024828838083937 l 11.48109213405368 17.323531619433368" fill="#f1ff19" stroke="none" /><path d="M 88.39885842347998 82.49532879139004 l -0.33286436320212615 -0.5022506790805294 a21.602539981185323,21.602539981185323 0 0,0 0.31172771148154466,-0.2027563748180136 l 0.32416962593629434 0.507905978058078" fill="#ff0400" stroke="none" /><path d="M 88.70189139769569 82.29822771554957 l -1.5305057749123434 -2.397982322634865 a23.8447789275635,23.8447789275635 0 0,0 0.3478849323487334,-0.2178455127217528 l 1.4890016901913679 2.423972176679548" fill="#ff2403" stroke="none" /><path d="M 89.00827224532344 82.1063720568725 l -1.4838315454337583 -2.4155556066216315 a23.834901222953903,23.834901222953903 0 0,0 0.3514375984086606,-0.21173722077909302 l 1.4420318808074484 2.440739436859344" fill="#ff2403" stroke="none" /><line stroke="#e1ed5e" stroke-width="0.3" x1="56.762969772571076" x2="54.21961505331055" y1="26.818313649435495" y2="22.513508569990535" /><path d="M 56.25429882871897 25.957352633546506 a86.0,86.0 0 0,1 42.265352541879196,-11.944610805530505" fill="none" id="id12" stroke="none" /><text fill="#e1ed5e" style="font-size:6.75px; font-family:Arial;" text-anchor="middle"><textPath startOffset="22.20632615414155" xlink:href="#id12">December</textPath></text><path d="M 89.3179101791058 81.91981866633112 l -1.4520808834611603 -2.4577480740500035 a23.854656632173096,23.854656632173096 0 0,0 0.35532450192674125,-0.20582688612560493 l 1.409559649069099 2.4823791175656558" fill="#ff2403" stroke="none" /><path d="M 89.63071344664047 81.73862282372117 l -1.3754180658736526 -2.4222522877284236 a23.785512699905926,23.785512699905926 0 0,0 0.3577747852843435,-0.19910128065619734 l 1.3335191915172635 2.445568965944805" fill="#ff2303" stroke="none" /><path d="M 89.94658935756843 81.56283822128135 l -3.5371360115422457 -6.486828321016719 a28.388523047977422,28.388523047977422 0 0,0 0.43103910455204636,-0.23024616182218818 l 3.4249518604618943 6.5467532093406575" fill="#ff6309" stroke="none" /><path d="M 90.26544431104013 81.39251694778311 l -0.444144826824604 -0.8489773546872245 a21.958137347130762,21.958137347130762 0 0,0 0.33641906683451467,-0.1723269126200851 l 0.4294652724013256 0.8564967926198147" fill="#ff0901" stroke="none" /></svg>