<?xml version="1.0" encoding="utf-8" ?>
<svg baseProfile="full" height="200mm" version="1.1" viewBox="0,0,200,200" width="200mm" xmlns="http://www.w3.org/2000/svg" xmlns:ev="http://www.w3.org/2001/xml-events" xmlns:xlink="http://www.w3.org/1999/xlink"><defs /><rect fill="#1a1a1a" height="200" width="200" x="0" y="0" /><text alignment-baseline="middle" fill="#e1ed5e" style="dominant-baseline: central; font-size:9.0px; font-family:Arial;" text-anchor="middle" x="100.0" y="100.0">2022</text><line stroke="#e1ed5e" stroke-width="0.3" x1="100.0" x2="100.0" y1="15.0" y2="10.0" /><path d="M 100.0 14.0 a86.0,86.0 0 0,1 42.46469731375804,11.215312516191453" fill="none" id="id13" stroke="none" /><text fill="#e1ed5e" style="font-size:6.75px; font-family:Arial;" text-anchor="middle"><textPath startOffset="22.20632615414155" xlink:href="#id13">January</textPath></text><line stroke="#e1ed5e" stroke-width="0.3" x1="143.23703022742887" x2="145.7803849466894" y1="26.81831364943548" y2="22.513508569990506" /><path d="M 143.74570117128098 25.957352633546492 a86.0,86.0 0 0,1 28.547481713284135,27.462654790039103" fill="none" id="id14" stroke="none" /><text fill="#e1ed5e" style="font-size:6.75px; font-family:Arial;" text-anchor="middle"><textPath startOffset="19.985693538727396" xlink:href="#id14">February</textPath></text><line stroke="#e1ed5e" stroke-width="0.3" x1="172.23445277983987" x2="176.4835382374775" y1="55.19839476539836" y2="52.563006222186495" /><path d="M 173.08426987136738 54.67131705675599 a86.0,86.0 0 0,1 12.851231095245387,41.99856678651699" fill="none" id="id15" stroke="none" /><text fill="#e1ed5e" style="font-size:6.75px; font-family:Arial;" text-anchor="middle"><textPath startOffset="22.20632615414155" xlink:href="#id15">March</textPath></text><line stroke="#e1ed5e" stroke-width="0.3" x1="184.98032266829074" x2="189.97916517819016" y1="98.17113171792111" y2="98.06355123074" /><path d="M 185.9800911702706 98.14961562048488 a86.0,86.0 0 0,1 -9.607161424134198,41.387399972396054" fill="none" id="id16" stroke="none" /><text fill="#e1ed5e" style="font-size:6.75px; font-family:Arial;" text-anchor="middle"><textPath startOffset="21.466115282336823" xlink:href="#id16">April</textPath></text><path d="M 120.89721153311464 102.0752229133903 l 5.737189029408972 0.5697385085763363 a26.765408912412497,26.765408912412497 0 0,0 -0.049474836826813674,0.45807554330374456 l -5.726531891081106 -0.6684103737648723" fill="#ff4906" stroke="none" /><path d="M 120.8583938346157 102.4346265915055 l 29.41257891072069 3.433085371221444 a50.61225883558136,50.61225883558136 0 0,0 -0.10845120291471605,0.8644627933206648 l -29.349126198559127 -3.938865918829504" fill="#8fff24" stroke="none" /><path d="M 120.81339534386255 102.79330883721812 l 14.754518946169927 1.9801636148420017 a35.8868021171248,35.8868021171248 0 0,0 -0.08743725172867288,0.6115359349407687 l -14.718247643424654 -2.23384502176318" fill="#ffc212" stroke="none" /><path d="M 120.76222939487914 103.15116336523771 l 4.657942534552026 0.7069538435926832 a25.7112856411132,25.7112856411132 0 0,0 -0.07017741838401925,0.4369948512668649 l -4.645083361806718 -0.787027924552753" fill="#ff3a05" stroke="none" /><path d="M 120.70491114924044 103.5080841355445 l 4.3693478197816615 0.740309371953731 a25.431620283421548,25.431620283421548 0 0,0 -0.07684413257437843,0.43098270463535643 l -4.355957244868094 -0.8154108273223057" fill="#ff3705" stroke="none" /><path d="M 120.64145759157962 103.86396538481128 l 4.281948262552372 0.8015567598678002 a25.356325764043024,25.356325764043024 0 0,0 -0.08400196585216038,0.428324214132746 l -4.267516363724547 -0.8751447010684911" fill="#ff3505" stroke="none" /><path d="M 120.5718875245553 104.21870165774334 l 4.372887138137501 0.8967532122059851 a25.4638893631552,25.4638893631552 0 0,0 -0.09174998411797938,0.4286253806567129 l -4.356803115295079 -0.9718924122788671" fill="#ff3705" stroke="none" /><path d="M 120.49622156327973 104.57218783832717 l 4.356803115295079 0.9718924122788671 a25.4638893631552,25.4638893631552 0 0,0 -0.09911447170244389,0.42698255002740176 l -4.339428077662082 -1.0467436196548339" fill="#ff3705" stroke="none" /><path d="M 120.41448212921028 104.9243191809786 l 26.580304032330137 6.411619954608642 a48.34266689431449,48.34266689431449 0 0,0 -0.2020923423868353,0.8072584499581543 l -26.466000375648242 -6.868206243964192" fill="#a8ff21" stroke="none" /><path d="M 120.32669344350535 105.2749913415812 l 8.516596501683821 2.2101466198122393 a29.798702407375792,29.798702407375792 0 0,0 -0.13311779025499224,0.49538081857230987 l -8.477290635087051 -2.356418371560097" fill="#ff730a" stroke="none" /><path d="M 120.23288151984713 105.62410040840565 l 4.290462497464594 1.1926127210585327 a25.45313300324398,25.45313300324398 0 0,0 -0.12097190895434186,0.42111908509355855 l -4.269297951624152 -1.266289281656673" fill="#ff3705" stroke="none" /><path d="M 120.13307415673323 105.97154293290107 l 4.289922579409777 1.272406621181585 a25.474645723066416,25.474645723066416 0 0,0 -0.1283112141615037,0.4193284719169599 l -4.2673845927421405 -1.346062065650602" fill="#ff3705" stroke="none" /><path d="M 120.02730092923936 106.31721596034902 l 8.350122736759863 2.6338810611528607 a29.75567696773092,29.75567696773092 0 0,0 -0.15828284255013939,0.4871444987338701 l -8.303547643193475 -2.777224459864526" fill="#ff720a" stroke="none" /><path d="M 119.9155931802556 106.66101706037122 l 4.233381169441392 1.4159068192184012 a25.4638893631552,25.4638893631552 0 0,0 -0.14260889852162797,0.4144882128495457 l -4.208381439976534 -1.4885677351572473" fill="#ff3705" stroke="none" /><path d="M 119.79798401119884 107.00284435728193 l 4.208381439976534 1.4885677351572473 a25.4638893631552,25.4638893631552 0 0,0 -0.1497225027046064,0.4119720241868631 l -4.1821346762667 -1.5607875563502414" fill="#ff3705" stroke="none" /><path d="M 119.67450827220406 107.3425965602758 l 13.402985829963157 5.0020420480622185 a35.30595868191907,35.30595868191907 0 0,0 -0.21739344866702048,0.5675456953037447 l -13.31489810170263 -5.232011310199107" fill="#ffbb11" stroke="none" /><path d="M 119.54520255179757 107.68017299344265 l 4.134626252633974 1.6246771963249858 a25.442376643332764,25.442376643332764 0 0,0 -0.16367612245681118,0.40623071295670055 l -4.106047515919771 -1.6956072771244999" fill="#ff3705" stroke="none" /><path d="M 119.41010516605496 108.01547362559984 l 4.125931523260788 1.7038184503793405 a25.4638893631552,25.4638893631552 0 0,0 -0.17078875389657197,0.40369416402917996 l -4.095991788171907 -1.774587140074684" fill="#ff3705" stroke="none" /><path d="M 119.26925614724726 108.34839909993367 l 4.095991788171907 1.774587140074684 a25.4638893631552,25.4638893631552 0 0,0 -0.17771238112318594,0.4006945047343234 l -4.064838322317448 -1.844829981301695" fill="#ff3705" stroke="none" /><path d="M 119.12269723197855 108.67885076344098 l 4.035453948903105 1.8314938609549358 a25.431620283421548,25.431620283421548 0 0,0 -0.18434943533465534,0.3970722832151707 l -4.003329896728618 -1.9006862114489371" fill="#ff3705" stroke="none" /><path d="M 118.97047184881838 109.00673069616215 l 4.051913997417071 1.9237527916849668 a25.485402082977632,25.485402082977632 0 0,0 -0.19156132012679028,0.39467305804999525 l -4.018199420675566 -1.9932148057002375" fill="#ff3705" stroke="none" /><path d="M 118.81262510543309 109.33194174019688 l 3.9796555413405494 1.974095239218701 a25.442376643332764,25.442376643332764 0 0,0 -0.19799176356439044,0.39065653299601866 l -3.9450851079898897 -2.042305983917414" fill="#ff3705" stroke="none" /><path d="M 118.64920377521936 109.65438752849418 l 3.9546373721738837 2.0472510347259303 a25.45313300324398,25.45313300324398 0 0,0 -0.204773475176965,0.3873542441358259 l -3.9188113887720255 -2.1150202939478904" fill="#ff3705" stroke="none" /><line stroke="#e1ed5e" stroke-width="0.3" x1="174.80103733775053" x2="179.2010983576182" y1="140.37084112569926" y2="142.7455964860345" /><path d="M 175.68104954172406 140.8457921977663 a86.0,86.0 0 0,1 -30.038265399797805,32.042727171017184" fill="none" id="id17" stroke="none" /><text fill="#e1ed5e" style="font-size:6.75px; font-family:Arial;" text-anchor="middle"><textPath startOffset="22.206326154141568" xlink:href="#id17">May</textPath></text><path d="M 118.12598468904814 110.60418214915192 l 13.415766369647208 7.848579412083596 a36.54294007170907,36.54294007170907 0 0,0 -0.3223072075949579,0.5402054190050926 l -13.278678286354022 -8.078346924974792" fill="#ffcb12" stroke="none" /><path d="M 117.75023020441432 111.22182372390056 l 3.8003736855618193 2.4026236895631374 a25.496158442888852,25.496158442888852 0 0,0 -0.23771542027075213,0.36893961122734303 l -3.758453401914017 -2.4676849007119332" fill="#ff3705" stroke="none" /><path d="M 117.55443506779139 111.5257021239791 l 3.740470371282848 2.455877795923837 a25.474645723066416,25.474645723066416 0 0,0 -0.2438249848142098,0.36448526968887524 l -3.6976422810579175 -2.5198999798185193" fill="#ff3705" stroke="none" /><path d="M 117.35343817320211 111.8261652097733 l 3.910967797272797 2.6652788248080492 a25.732798360935632,25.732798360935632 0 0,0 -0.2525969385858543,0.3638847296028275 l -3.8645099515248065 -2.7322048165978963" fill="#ff3b05" stroke="none" /><path d="M 117.14729908036423 112.12312394758627 l 3.6712844539485676 2.5955945757680023 a25.496158442888852,25.496158442888852 0 0,0 -0.2564430419015005,0.3561769560589049 l -3.626061619671464 -2.6584051372780384" fill="#ff3705" stroke="none" /><path d="M 116.93607887273984 112.41649034213515 l 3.617386831107655 2.652045316375458 a25.485402082977632,25.485402082977632 0 0,0 -0.26242528877092125,0.3515615592364332 l -3.5712002756416417 -2.713919755121206" fill="#ff3705" stroke="none" /><path d="M 116.71984013943494 112.70617746262583 l 3.554072216765664 2.700903353417988 a25.4638893631552,25.4638893631552 0 0,0 -0.26821136829729864,0.3466993487805497 l -3.507054031250297 -2.7616806963117906" fill="#ff3705" stroke="none" /><path d="M 116.498646956653 112.99209946851258 l 3.507054031250297 2.7616806963117906 a25.4638893631552,25.4638893631552 0 0,0 -0.2741394892583963,0.3420311637232826 l -3.458996629937047 -2.8216396936133235" fill="#ff3705" stroke="none" /><path d="M 116.27256486870786 113.27417163493432 l 3.4673315615754485 2.8284388254051622 a25.474645723066416,25.474645723066416 0 0,0 -0.2801046475595654,0.3374040922326551 l -3.4181309141223397 -2.8877041747515877" fill="#ff3705" stroke="none" /><path d="M 116.0416608686014 113.55231037782055 l 6.063895708226653 5.122898271554501 a28.938193614478404,28.938193614478404 0 0,0 -0.32473819451156644,0.3777438846964842 l -5.9748150041443076 -5.226519255412513" fill="#ff6709" stroke="none" /><path d="M 115.80600337817218 113.82643327865902 l 3.683659657026638 3.222312007063269 a25.894143759603892,25.894143759603892 0 0,0 -0.29635372850259534,0.3329565555969715 l -3.6276470788757047 -3.285242732401107" fill="#ff3d05" stroke="none" /><path d="M 115.56566222782051 114.09645910891815 l 2.049022635760564 1.855620620279308 a23.76438449718286,23.76438449718286 0 0,0 -0.2771986354455105,0.3008443713806988 l -2.0167775923193316 -1.8906162464613416" fill="#ff1f03" stroke="none" /><path d="M 115.32070863581623 114.36230785411682 l 3.2488168218684925 3.0455841479960886 a25.45313300324398,25.45313300324398 0 0,0 -0.3023995205328207,0.31706468830131157 l -3.1959107499567074 -3.101055952879907" fill="#ff3705" stroke="none" /><path d="M 115.07121518719521 114.62390073753431 l 2.0997288019039253 2.037408741988733 a23.92572989585112,23.92572989585112 0 0,0 -0.28934111473525886,0.2931010216266049 l -2.0643470621131312 -2.0732502575960026" fill="#ff2103" stroke="none" /><path d="M 114.81725581225074 114.88116024355365 l 1.5634393191003844 1.570182180385206 a23.215810141710772,23.215810141710772 0 0,0 -0.285609793130738,0.2795292954714608 l -1.5361795735938522 -1.5968615787792388" fill="#ff1702" stroke="none" /><path d="M 114.55890576462653 115.13401014063108 l 1.580922667970372 1.6433721101999934 a23.280348301178076,23.280348301178076 0 0,0 -0.29118634579144376,0.2753348648811221 l -1.5524004877881206 -1.6703416118270369" fill="#ff1802" stroke="none" /><path d="M 114.29624159901734 115.38237550388516 l 3.038897181283352 3.2697724948500984 a25.4638893631552,25.4638893631552 0 0,0 -0.3236344544453359,0.29563240083696224 l -2.982163177371152 -3.3215976622736436" fill="#ff3705" stroke="none" /><path d="M 114.0293411484842 115.62618273729858 l 0.4095983159280854 0.4562194379508372 a21.613112514939388,21.613112514939388 0 0,0 -0.2789714011745073,0.24615982608786802 l -0.4016845618469904 -0.46320240581099403" fill="#ff0000" stroke="none" /><path d="M 113.75828350139079 115.86535959552629 l 6.518565258043272 7.516881146932805 a30.949632917876045,30.949632917876045 0 0,0 -0.4054910715702455,0.34556828813309254 l -6.388208709895979 -7.627973825288844" fill="#ff820c" stroke="none" /><path d="M 112.92097659922987 116.55440617244103 l 3.706204658819565 4.748404024193432 a27.023561550281713,27.023561550281713 0 0,0 -0.3691563553601737,0.28305335165564305 l -3.6239195749658974 -4.811496717676446" fill="#ff4d07" stroke="none" /><path d="M 112.63410532772338 116.77436683061366 l 3.785701698848305 5.026295678287004 a27.29247054806215,27.29247054806215 0 0,0 -0.3776953397940735,0.27940998295934405 l -3.6986213886356674 -5.090715609986117" fill="#ff5007" stroke="none" /><path d="M 112.34349029814194 116.9893568818739 l 3.5215933563590873 4.847057426944045 a26.99129247054806,26.99129247054806 0 0,0 -0.3782285600057362,0.26985603497297544 l -3.4376374685044664 -4.90695772376124" fill="#ff4c07" stroke="none" /><path d="M 111.7513745106137 117.40417183066458 l 4.0629218685321415 6.017320805377459 a28.26054294007171,28.26054294007171 0 0,0 -0.4055055531042518,0.26874696905552814 l -3.9587416166879255 -6.086365795524305" fill="#ff5e08" stroke="none" /><path d="M 111.45004920935366 117.60387380957326 l 4.076037664589791 6.266702559836137 a28.475670138296056,28.475670138296056 0 0,0 -0.41319309000226706,0.2637193795938723 l -3.9675627725405933 -6.335936368253818" fill="#ff6108" stroke="none" /><path d="M 111.1453310114006 117.79835938074945 l 3.830553410611134 6.117141443306924 a28.21751750042684,28.21751750042684 0 0,0 -0.41388487220978837,0.2542418927882302 l -3.724689338469037 -6.182171802923532" fill="#ff5d08" stroke="none" /><line stroke="#e1ed5e" stroke-width="0.3" x1="143.8653032363475" x2="146.44561519142675" y1="172.8068346515853" y2="177.08958963109032" /><path d="M 144.38136562736335 173.6633856474863 a86.0,86.0 0 0,1 -40.68145358897372,12.25698825130547" fill="none" id="id18" stroke="none" /><text fill="#e1ed5e" style="font-size:6.75px; font-family:Arial;" text-anchor="middle"><textPath startOffset="21.466115282336833" xlink:href="#id18">June</textPath></text><path d="M 110.8373102113329 117.98757091392108 l 3.1862469154712767 5.288474835883915 a27.174150589038756,27.174150589038756 0 0,0 -0.40273660670580363,0.23794388604843306 l -3.094742437737091 -5.342537294226097" fill="#ff4f07" stroke="none" /><path d="M 110.5260780823613 118.17145234162733 l 3.0354355269093762 5.240154175347199 a27.055830630015365,27.055830630015365 0 0,0 -0.40500160573888194,0.22997048163116504 l -2.944785154249295 -5.291627822772993" fill="#ff4d07" stroke="none" /><path d="M 110.21172684928248 118.3499491758327 l 3.980428956276579 7.15262659525799 a29.1855898924364,29.1855898924364 0 0,0 -0.4410876406674406,0.2405161507043654 l -3.85671850374049 -7.220083397722126" fill="#ff6a09" stroke="none" /><path d="M 109.57404056367764 118.69057910512821 l 7.831522680652133 15.288810738034702 a38.1779067782141,38.1779067782141 0 0,0 -0.5874781613443685,0.2945737459446391 l -7.567190611625004 -15.421352324888643" fill="#ffdf14" stroke="none" /><path d="M 109.2508944713604 118.85261126421891 l 2.771951476393631 5.649023863531532 a27.29247054806215,27.29247054806215 0 0,0 -0.4235366862185809,0.2033233476669539 l -2.674302122174817 -5.6959014876980465" fill="#ff5007" stroke="none" /><path d="M 108.92500713936063 119.00905698771935 l 1.9062974101656383 4.060155419436042 a25.485402082977632,25.485402082977632 0 0,0 -0.398703344047325,0.18302515008799716 l -1.8361260703508937 -4.0923676398581135" fill="#ff3705" stroke="none" /><path d="M 108.59647513512805 119.15986991738527 l 1.8273197103012502 4.07273997731683 a25.4638893631552,25.4638893631552 0 0,0 -0.4014555862353821,0.17598633131343416 l -1.7569434494081142 -4.103590861924719" fill="#ff3705" stroke="none" /><path d="M 108.2653958097858 119.30500536409082 l 2.4173848424386337 5.6461454991783455 a27.141881509305104,27.141881509305104 0 0,0 -0.4310758155376847,0.18018972585603601 l -2.319837567403488 -5.6869202680543545" fill="#ff4e07" stroke="none" /><path d="M 107.93186726928326 119.44442032107085 l 2.823620156471846 6.921908207176492 a28.475670138296056,28.475670138296056 0 0,0 -0.45544654500179244,0.18123157960167335 l -2.7040525354281875 -6.9694866311842345" fill="#ff6108" stroke="none" /><path d="M 105.53697534728816 120.25689768951611 l 1.670451671275085 6.111309239777183 a27.335495987707016,27.335495987707016 0 0,0 -0.45495319515197946,0.12015727384488233 l -1.565008033311608 -6.13915786292565" fill="#ff5107" stroke="none" /><path d="M 104.83641907484287 120.43548508189849 l 14.509257224528598 61.306455245695496 a84.0,84.0 0 0,0 -1.4099194024285517,0.32089306568926235 l -13.451817672707184 -61.54712504496244" fill="#4dd2ff" stroke="none" /><path d="M 104.48393922423573 120.51570834832081 l 0.21129711898396125 0.966763787627889 a21.989585111831996,21.989585111831996 0 0,0 -0.370481093913885,0.07763791534985878 l -0.19462456364069822 -0.9702576837042889" fill="#ff0500" stroke="none" /><path d="M 103.7750983002368 120.6578951692458 l 0.4872757922108638 2.6664450653832734 a23.710602697626772,23.710602697626772 0 0,0 -0.40212169227511246,0.06991401062670073 l -0.4413051284637014 -2.6744376545309803" fill="#ff1e03" stroke="none" /><path d="M 103.41894727170886 120.7198165907248 l 1.6846648158019073 10.20955961769366 a31.34761823459109,31.34761823459109 0 0,0 -0.5331545235565537,0.083267771702963 l -1.5086744286368365 -10.23704569674373" fill="#ff870c" stroke="none" /><path d="M 103.06178313531738 120.77559828337769 l 2.6095990116961496 17.707322286259423 a38.898582892265665,38.898582892265665 0 0,0 -0.663260494146163,0.09192186084527142 l -2.304409926363156 -17.749618712597297" fill="#ffe815" stroke="none" /><path d="M 102.70371172650421 120.8252237178851 l 6.1280131755751 47.200758896179714 a68.59689260713677,68.59689260713677 0 0,0 -1.1722639819328995,0.1419448428250958 l -5.31462177059082 -47.29924926773016" fill="#3aff93" stroke="none" /><path d="M 101.62511606390274 120.93702456842531 l 0.7100344899312092 9.147660213522347 a30.175175004268397,30.175175004268397 0 0,0 -0.5182043717405707,0.03573840746985557 l -0.5524673574117083 -9.158526965508488" fill="#ff780b" stroke="none" /><path d="M 100.90346689309514 120.98055641714683 l 0.061547428776671 1.429271301082737 a22.430595868191908,22.430595868191908 0 0,0 -0.38589132318992236,0.013290877419559038 l -0.03693575391209633 -1.4301189769283897" fill="#ff0c01" stroke="none" /><line stroke="#e1ed5e" stroke-width="0.3" x1="102.19456741930631" x2="102.32365962044197" y1="184.97166512339345" y2="189.96999836594603" /><path d="M 102.22038585953345 185.97133177190398 a86.0,86.0 0 0,1 -42.740103519485714,-10.115201625700543" fill="none" id="id19" stroke="none" /><text fill="#e1ed5e" style="font-size:6.75px; font-family:Arial;" text-anchor="middle"><textPath startOffset="22.20632615414155" xlink:href="#id19">July</textPath></text><line stroke="#e1ed5e" stroke-width="0.3" x1="58.666819895761336" x2="56.23545636021788" y1="174.27360380694188" y2="178.64263932499728" /><path d="M 58.180547188652646 175.14741091055294 a86.0,86.0 0 0,1 -31.652253787137756,-30.449443065178592" fill="none" id="id20" stroke="none" /><text fill="#e1ed5e" style="font-size:6.75px; font-family:Arial;" text-anchor="middle"><textPath startOffset="22.20632615414155" xlink:href="#id20">August</textPath></text><line stroke="#e1ed5e" stroke-width="0.3" x1="26.63291911575756" x2="22.317208475507996" y1="142.92168965132927" y2="145.44649492493687" /><path d="M 25.769776987707644 143.4266507060508 a86.0,86.0 0 0,1 -11.730757126820373,-40.83630448921669" fill="none" id="id21" stroke="none" /><text fill="#e1ed5e" style="font-size:6.75px; font-family:Arial;" text-anchor="middle"><textPath startOffset="21.46611528233685" xlink:href="#id21">September</textPath></text><line stroke="#e1ed5e" stroke-width="0.3" x1="15.007084014347285" x2="10.007500721073583" y1="101.09737516637583" y2="101.16192664675087" /><path d="M 14.007167355692545 101.11028546245083 a86.0,86.0 0 0,1 10.666146001902534,-42.60595125391555" fill="none" id="id22" stroke="none" /><text fill="#e1ed5e" style="font-size:6.75px; font-family:Arial;" text-anchor="middle"><textPath startOffset="22.20632615414155" xlink:href="#id22">October</textPath></text><line stroke="#e1ed5e" stroke-width="0.3" x1="26.266209847984243" x2="21.928928074336255" y1="57.711370442889674" y2="55.22380399835377" /><path d="M 25.398753493254645 57.213857153982495 a86.0,86.0 0 0,1 29.58750427330803,-30.492523968695096" fill="none" id="id23" stroke="none" /><text fill="#e1ed5e" style="font-size:6.75px; font-family:Arial;" text-anchor="middle"><textPath startOffset="21.46611528233685" xlink:href="#id23">November</textPath></text><line stroke="#e1ed5e" stroke-width="0.3" x1="56.762969772571076" x2="54.21961505331055" y1="26.818313649435495" y2="22.513508569990535" /><path d="M 56.25429882871897 25.957352633546506 a86.0,86.0 0 0,1 42.265352541879196,-11.944610805530505" fill="none" id="id24" stroke="none" /><text fill="#e1ed5e" style="font-size:6.75px; font-family:Arial;" text-anchor="middle"><textPath startOffset="22.20632615414155" xlink:href="#id24">December</textPath></text></svg>