<?xml version="1.0" encoding="utf-8" ?>
<svg baseProfile="full" height="200mm" version="1.1" viewBox="0,0,200,200" width="200mm" xmlns="http://www.w3.org/2000/svg" xmlns:ev="http://www.w3.org/2001/xml-events" xmlns:xlink="http://www.w3.org/1999/xlink"><defs /><rect fill="#1a1a1a" height="200" width="200" x="0" y="0" /><text alignment-baseline="middle" fill="#e1ed5e" style="dominant-baseline: central; font-size:9.0px; font-family:Arial;" text-anchor="middle" x="100.0" y="100.0">2023</text><line stroke="#e1ed5e" stroke-width="0.3" x1="100.0" x2="100.0" y1="15.0" y2="10.0" /><path d="M 100.0 14.0 a86.0,86.0 0 0,1 42.46469731375804,11.215312516191453" fill="none" id="id25" stroke="none" /><text fill="#e1ed5e" style="font-size:6.75px; font-family:Arial;" text-anchor="middle"><textPath startOffset="22.20632615414155" xlink:href="#id25">January</textPath></text><path d="M 100.36148047927253 79.00311137660856 l 0.16257058591621643 -9.443045148086096 a30.444444444444443,30.444444444444443 0 0,0 0.5238957775481811,0.013530682290970677 l -0.3250929986592653 9.438847673652766" fill="#ff800b" stroke="none" /><path d="M 100.72285384407766 79.0124445844662 l 0.2765202800360575 -8.028572785942297 a29.033333333333335,29.033333333333335 0 0,0 0.49931688093474963,0.021501635234010094 l -0.41467799336013866 8.022623424184092" fill="#ff6d0a" stroke="none" /><path d="M 101.08401301168833 79.027996857942 l 0.38714750417440325 -7.490001122163569 a28.5,28.5 0 0,0 0.4897086480033838,0.02954056298387303 l -0.5160182010173989 7.4822272897993924" fill="#ff6609" stroke="none" /><path d="M 101.44485096284872 79.0497635885617 l 0.5144892581995699 -7.46005772745925 a28.47777777777778,28.47777777777778 0 0,0 0.48874621410810565,0.037936112704214514 l -0.6428256616700168 7.450096352566571" fill="#ff6509" stroke="none" /><path d="M 101.80526077348638 79.07773832637324 l 0.6380498395179363 -7.394746453959091 a28.422222222222224,28.422222222222224 0 0,0 0.48706874333500283,0.04625304610062123 l -0.7652437099431832 7.382667863343292" fill="#ff6509" stroke="none" /><path d="M 102.16513564639614 79.11191278185805 l 1.0928779929428094 -10.543510691062124 a31.6,31.6 0 0,0 0.5405605794806039,0.06073827953947686 l -1.2742052759331386 10.523136458052047" fill="#ff8f0d" stroke="none" /><path d="M 102.88285421437855 79.19881850522331 l 1.0311161105396334 -7.439999307126476 a28.511111111111113,28.511111111111113 0 0,0 0.48554560646564515,0.07155680086928766 l -1.1590306974339344 7.421148022096219" fill="#ff6609" stroke="none" /><path d="M 103.2404852339499 79.25152402106235 l 1.227612395506948 -7.860269206835638 a28.955555555555556,28.955555555555556 0 0,0 0.4917905231757097,0.08114965014779794 l -1.362732124821533 7.837973293748216" fill="#ff6c09" stroke="none" /><path d="M 103.59715602781102 79.31037775812273 l 1.2580529811550745 -7.235894339619513 a28.344444444444445,28.344444444444445 0 0,0 0.47997251114629624,0.08771190850490265 l -1.3824206134042716 7.213166949763871" fill="#ff6309" stroke="none" /><path d="M 103.95276090670814 79.375362276772 l 1.409608915937184 -7.355029537278136 a28.488888888888887,28.488888888888887 0 0,0 0.48082948472290504,0.09644987122647505 l -1.5360048101272146 7.3296757099744525" fill="#ff6509" stroke="none" /><path d="M 105.71112130821622 79.79150937346287 l 2.0396861815057914 -7.217318080906114 a28.5,28.5 0 0,0 0.4709418473753489,0.1374808393246167 l -2.1636182466045675 7.181138912662794" fill="#ff6609" stroke="none" /><path d="M 106.0581310904928 79.89281104454417 l 2.1636182466045675 -7.181138912662794 a28.5,28.5 0 0,0 0.4685055656068824,0.1455669598022935 l -2.286909184922168 7.142831817977981" fill="#ff6609" stroke="none" /><path d="M 106.40334571778207 80.00007090966166 l 2.3241773346023806 -7.25923352167836 a28.62222222222222,28.62222222222222 0 0,0 0.4679285978325569,0.15426870175037433 l -2.448788754677355 7.21815109566875" fill="#ff6709" stroke="none" /><path d="M 109.73455568895987 81.39251694778311 l 3.615692113042237 -6.911350847966276 a28.8,28.8 0 0,0 0.43728679333260184,0.23358346079759437 l -3.73412395290315 6.848088660666928" fill="#ff6a09" stroke="none" /><path d="M 110.05341064243156 81.56283822128135 l 3.4415643839435015 -6.311557497794164 a28.18888888888889,28.18888888888889 0 0,0 0.42400909313452223,0.23596060126445692 l -3.549697566150059 6.251381498969526" fill="#ff6109" stroke="none" /><path d="M 110.36928655335952 81.73862282372117 l 3.6978302311980507 -6.512258315773508 a28.488888888888887,28.488888888888887 0 0,0 0.4243532158512689,0.2458127727258799 l -3.809380179514648 6.447641385657578" fill="#ff6509" stroke="none" /><line stroke="#e1ed5e" stroke-width="0.3" x1="143.23703022742887" x2="145.7803849466894" y1="26.81831364943548" y2="22.513508569990506" /><path d="M 143.74570117128098 25.957352633546492 a86.0,86.0 0 0,1 28.547481713284135,27.462654790039103" fill="none" id="id26" stroke="none" /><text fill="#e1ed5e" style="font-size:6.75px; font-family:Arial;" text-anchor="middle"><textPath startOffset="19.985693538727396" xlink:href="#id26">February</textPath></text><path d="M 110.68208982089419 81.91981866633111 l 3.792424481386245 -6.418942685127947 a28.455555555555556,28.455555555555556 0 0,0 0.4195675917548309,0.2527847794584593 l -3.902354139358714 6.352711296210873" fill="#ff6509" stroke="none" /><path d="M 110.99172775467656 82.1063720568725 l 3.9198013262708975 -6.3811138802475815 a28.488888888888887,28.488888888888887 0 0,0 0.4156404726547709,0.2602740258454873 l -4.029060951297932 6.31269551307915" fill="#ff6509" stroke="none" /><path d="M 111.2981086023043 82.29822771554956 l 4.052972292255189 -6.350159581406029 a28.53333333333333,28.53333333333333 0 0,0 0.41174004115659707,0.2678071760626095 l -4.161679359196067 6.279453481183891" fill="#ff6609" stroke="none" /><path d="M 112.19680574252982 82.90503203632743 l 4.349548714531797 -6.096300744717096 a28.488888888888887,28.488888888888887 0 0,0 0.3967480470205745,0.2882543290635162 l -4.4538420779061605 6.020527180836905" fill="#ff6509" stroke="none" /><path d="M 112.48926042617603 83.11751280151076 l 4.460450152205725 -6.02945971374616 a28.5,28.5 0 0,0 0.3918802198993374,0.29515605709920717 l -4.5635765258634455 5.9517870671411055" fill="#ff6609" stroke="none" /><path d="M 112.77801427241765 83.33499621200491 l 4.543293963526276 -5.925334680176036 a28.46666666666667,28.46666666666667 0 0,0 0.3862892030061056,0.301504850164074 l -4.644615721691812 5.846251440788738" fill="#ff6509" stroke="none" /><path d="M 113.34407831869373 83.78471172551755 l 4.7798629744738905 -5.808333418954824 a28.522222222222222,28.522222222222222 0 0,0 0.37641518657457446,0.3152368936349554 l -4.879135698007582 5.72519536792605" fill="#ff6609" stroke="none" /><path d="M 114.16331599549186 84.49514656593476 l 5.050833323260057 -5.529244028867708 a28.488888888888887,28.488888888888887 0 0,0 0.35922062748677924,0.3338564239706993 l -5.145261834541683 5.4414830188223675" fill="#ff6509" stroke="none" /><path d="M 114.42810811169701 84.74124197986012 l 5.145261834541683 -5.4414830188223675 a28.488888888888887,28.488888888888887 0 0,0 0.3534206155437881,0.3399903521383375 l -5.23816569369789 5.352109579921728" fill="#ff6509" stroke="none" /><path d="M 114.68862486808459 84.99185889309783 l 5.34697032235037 -5.463280995528414 a28.644444444444446,28.644444444444446 0 0,0 0.34941339003631877,0.34791289789629315 l -5.440219512554012 5.370432246982001" fill="#ff6809" stroke="none" /><path d="M 114.94478906791727 85.2469230424477 l 5.3453319629164415 -5.276761917092781 a28.511111111111113,28.511111111111113 0 0,0 0.34177454991419165,0.3522287165176755 l -5.435370776533742 5.183969005024991" fill="#ff6609" stroke="none" /><path d="M 115.19652480421416 85.50635884689758 l 5.539897137620928 -5.283660716660085 a28.655555555555555,28.655555555555555 0 0,0 0.33736141621067517,0.35987363696904584 l -5.630025875802066 5.187517662812985" fill="#ff6809" stroke="none" /><path d="M 115.4437574822437 85.77008943001954 l 5.71173887835362 -5.262808194929283 a28.766666666666666,28.766666666666666 0 0,0 0.33240069547358925,0.3670451501371098 l -5.801483214443245 5.163710257522625" fill="#ff6909" stroke="none" /><path d="M 115.68641384162765 86.03803664274999 l 0.5560792208407682 -0.4949479073734127 a21.744444444444444,21.744444444444444 0 0,0 0.2464454618932016,0.2817297653496461 l -0.564516546311818 0.4853025858208188" fill="#ff0701" stroke="none" /><path d="M 115.9244219780498 86.31012108654704 l 6.100148948205324 -5.244165255735421 a29.044444444444444,29.044444444444444 0 0,0 0.32265526790723575,0.3819220664918071 l -6.189514829599677 5.138384239614507" fill="#ff6d0a" stroke="none" /><path d="M 116.15771136456269 86.58626213691792 l 5.941592274270408 -4.932564981397904 a28.72222222222222,28.72222222222222 0 0,0 0.3125271946997265,0.3831213870704017 l -6.025617961046543 4.829559424719402" fill="#ff6909" stroke="none" /><path d="M 116.38621287248628 86.86637796730983 l 6.528475287292156 -5.232601793976561 a29.366666666666667,29.366666666666667 0 0,0 0.3127492936455836,0.3971598427418622 l -6.617578661531703 5.11944955728166" fill="#ff710a" stroke="none" /><path d="M 116.60985879189232 87.15038557335679 l 5.94966899582598 -4.602745485099182 a28.522222222222222,28.522222222222222 0 0,0 0.29707124944164054,0.39091094196475495 l -6.028016185491733 4.499649767253393" fill="#ff6609" stroke="none" /><path d="M 116.82858285166822 87.43820079747576 l 5.992400137128414 -4.473063948835352 a28.477777777777778,28.477777777777778 0 0,0 0.28984599160189184,0.39534960680950354 l -6.068508741243933 4.369251898354356" fill="#ff6509" stroke="none" /><path d="M 117.04232023915458 87.72973835380427 l 2.4616684789889964 -1.7723711266727187 a24.033333333333335,24.033333333333335 0 0,0 0.2388311128911118,0.3378096718425034 l -2.491812211683991 1.729734954498422" fill="#ff2803" stroke="none" /><path d="M 117.45458315368197 88.32363383020206 l 6.187603551834346 -4.139240917335775 a28.444444444444443,28.444444444444443 0 0,0 0.2687368325310647,0.4093046329191294 l -6.257937019723336 4.0321182204389725" fill="#ff6509" stroke="none" /><path d="M 117.65298651832404 88.62581576622439 l 6.313978246765637 -4.06822674181604 a28.511111111111113,28.511111111111113 0 0,0 0.2622647555729512,0.4148398602991254 l -6.383070598584544 3.958939233802708" fill="#ff6609" stroke="none" /><line stroke="#e1ed5e" stroke-width="0.3" x1="172.23445277983987" x2="176.4835382374775" y1="55.19839476539836" y2="52.563006222186495" /><path d="M 173.08426987136738 54.67131705675599 a86.0,86.0 0 0,1 12.851231095245387,41.99856678651699" fill="none" id="id27" stroke="none" /><text fill="#e1ed5e" style="font-size:6.75px; font-family:Arial;" text-anchor="middle"><textPath startOffset="22.20632615414155" xlink:href="#id27">March</textPath></text><path d="M 117.84615892207809 88.93136811851018 l 6.373628186456458 -3.9530828148177917 a28.5,28.5 0 0,0 0.25498570232583895,0.4191294506475323 l -6.440729687068521 3.842785590963178" fill="#ff6609" stroke="none" /><path d="M 118.03404312379186 89.2402003453031 l 6.440729687068521 -3.842785590963178 a28.5,28.5 0 0,0 0.24773329893312723,0.42345651180542776 l -6.505922660471976 3.731349666803855" fill="#ff6609" stroke="none" /><path d="M 118.21658344932153 89.55222093294921 l 6.4770074486476545 -3.714765890506948 a28.466666666666665,28.466666666666665 0 0,0 0.24012630847025748,0.4271579087550571 l -6.539991398410345 3.602724471817097" fill="#ff6509" stroke="none" /><path d="M 118.3937258080291 89.86733742301442 l 2.7347285460614708 -1.5064963937211384 a24.122222222222224,24.122222222222224 0 0,0 0.197218580209901,0.36541607681758315 l -2.7602552254898365 1.4591993335710964" fill="#ff2904" stroke="none" /><path d="M 118.56541770881063 90.18545643968196 l 0.6286702292930595 -0.3323443322012465 a21.711111111111112,21.711111111111112 0 0,0 0.1718181839180596,0.33189804270015144 l -0.6342978463712354 0.3214735672407502" fill="#ff0701" stroke="none" /><path d="M 118.73160827565052 90.50648371742162 l 6.422265694508752 -3.2549198683125926 a28.200000000000003,28.200000000000003 0 0,0 0.21571655403399484,0.4348714097299817 l -6.477342261496155 3.143888870083661" fill="#ff6209" stroke="none" /><path d="M 118.89224826269711 90.83032412892265 l 6.717243826736752 -3.2603291986052776 a28.46666666666667,28.46666666666667 0 0,0 0.21016778168117495,0.44266694768726755 l -6.772369802259683 3.14421983527747" fill="#ff6509" stroke="none" /><path d="M 119.04729006885535 91.15688171328212 l 6.80260359601977 -3.158256530970672 a28.5,28.5 0 0,0 0.20275399840688624,0.4467415594286291 l -6.855959911390003 3.04069296269998" fill="#ff6609" stroke="none" /><path d="M 119.196687751892 91.48605970444005 l 6.855959911390003 -3.04069296269998 a28.5,28.5 0 0,0 0.19503403664207614,0.45016544663246766 l -6.90728465787476 2.9222283714809096" fill="#ff6609" stroke="none" /><path d="M 119.34039704204932 91.81776055985345 l 6.886818629258834 -2.913569917046892 a28.477777777777778,28.477777777777778 0 0,0 0.187110273286072,0.45310236821597044 l -6.935950589431104 2.7945929783776187" fill="#ff6509" stroke="none" /><path d="M 119.61058180528143 92.48833698450437 l 9.4213800419024 -3.6087777873386435 a31.08888888888889,31.08888888888889 0 0,0 0.18711870972087435,0.5013851124825003 l -9.4821033401249 3.44606953782681" fill="#ff880c" stroke="none" /><path d="M 119.7369772167798 92.82701384747503 l 7.028034744387729 -2.5541903072218535 a28.477777777777778,28.477777777777778 0 0,0 0.16347182745209424,0.4621568695600989 l -7.070959652649633 2.4328358112351403" fill="#ff6509" stroke="none" /><path d="M 119.85752413597 93.16781622104841 l 7.0814662791766 -2.436450723287495 a28.488888888888887,28.488888888888887 0 0,0 0.15555300463977859,0.46508368471279726 l -7.122356577588148 2.3141939356523835" fill="#ff6509" stroke="none" /><path d="M 119.97218684219823 93.5106431181261 l 7.1117892829626514 -2.310760413492664 a28.47777777777778,28.47777777777778 0 0,0 0.14746676989528446,0.46750995949687185 l -7.1505115366261425 2.188000287569373" fill="#ff6509" stroke="none" /><path d="M 120.08093135843002 93.85539295169968 l 7.129261873812985 -2.1814980578886307 a28.455555555555556,28.455555555555556 0 0,0 0.13928872883435472,0.46961234949319414 l -7.165756499759042 2.0584563216489067" fill="#ff6509" stroke="none" /><path d="M 120.18372546131832 94.20196356495316 l 7.229831818683862 -2.0768627865220712 a28.522222222222222,28.522222222222222 0 0,0 0.13149183066462747,0.4730460762558468 l -7.264510419914853 1.9521054068472723" fill="#ff6609" stroke="none" /><path d="M 120.28053869075195 94.5502522615342 l 0.5257917438343097 -0.14128975618244655 a21.544444444444444,21.544444444444444 0 0,0 0.0931578373034302,0.3589751486035868 l -0.5281459130080426 0.13221818203000935" fill="#ff0400" stroke="none" /><path d="M 120.37134235888165 94.90015583598534 l 0.4742534729051796 -0.11872653080245699 a21.488888888888887,21.488888888888887 0 0,0 0.08674061602940487,0.35959585289455476 l -0.4762268891954039 0.1105454462484961" fill="#ff0400" stroke="none" /><path d="M 120.45610955862082 95.25157060432595 l 7.284106737011548 -1.6908428483008677 a28.47777777777778,28.47777777777778 0 0,0 0.10673147413427392,0.4784562706049961 l -7.312132598147859 1.5652084081459077" fill="#ff6509" stroke="none" /><path d="M 120.53481517161879 95.60439243477599 l 7.312132598147859 -1.5652084081459077 a28.47777777777778,28.47777777777778 0 0,0 0.09847982252373702,0.48022258902284426 l -7.337991716586593 1.4391101629596517" fill="#ff6509" stroke="none" /><path d="M 120.6074358757038 95.95851677861258 l 7.35979852703707 -1.443386864781225 a28.5,28.5 0 0,0 0.0902693746937624,0.4822226091579505 l -7.383553625640691 1.3164861781607116" fill="#ff6609" stroke="none" /><path d="M 120.67395015179393 96.31383870115 l 7.372615027676778 -1.3145358282671398 a28.488888888888887,28.488888888888887 0 0,0 0.08192337939796199,0.4835164226233818 l -7.394150268594963 1.18743361732792" fill="#ff6509" stroke="none" /><path d="M 120.73433829027371 96.67025291283417 l 7.405120817954898 -1.189195388273511 a28.5,28.5 0 0,0 0.07361700176095015,0.4850440617536028 l -7.424493713155147 1.061552214127826" fill="#ff6609" stroke="none" /><path d="M 120.83666639777658 97.38593545837742 l 12.678394898118023 -1.5905683718867532 a33.77777777777778,33.77777777777778 0 0,0 0.06741022585666122,0.5775296484087025 l -12.703895476978275 1.3720949851531978" fill="#ffab0f" stroke="none" /><path d="M 120.87857604477298 97.74499172005257 l 7.434540570440329 -0.8029738478331323 a28.477777777777778,28.477777777777778 0 0,0 0.04844324173357032,0.48781683322991176 l -7.447260937856128 0.6748814838987857" fill="#ff6509" stroke="none" /><path d="M 120.91429891909075 98.10471618934814 l 7.425129404608413 -0.6728758925647624 a28.455555555555556,28.455555555555556 0 0,0 0.04000785552289627,0.48819717356132497 l -7.435611743950804 0.5449648017956688" fill="#ff6509" stroke="none" /><path d="M 120.94382443527127 98.46500227214037 l 7.468855909721074 -0.5474013061256046 a28.488888888888887,28.488888888888887 0 0,0 0.0316354310395125,0.4893861160080516 l -7.477171931765001 0.41875612586451766" fill="#ff6509" stroke="none" /><path d="M 120.96714384426684 98.82574320788733 l 7.610296654585743 -0.42621172454459805 a28.62222222222222,28.62222222222222 0 0,0 0.023315378407678878,0.4921507880101336 l -7.616505641226919 0.2951498299114647" fill="#ff6709" stroke="none" /><path d="M 120.98425023603335 99.18683210126433 l 7.494375084297626 -0.2904171066913101 a28.5,28.5 0 0,0 0.014776986095910272,0.49037622849464413 l -7.498263764849182 0.16137073077166691" fill="#ff6609" stroke="none" /><line stroke="#e1ed5e" stroke-width="0.3" x1="184.98032266829074" x2="189.97916517819016" y1="98.17113171792111" y2="98.06355123074" /><path d="M 185.9800911702706 98.14961562048488 a86.0,86.0 0 0,1 -9.607161424134198,41.387399972396054" fill="none" id="id28" stroke="none" /><text fill="#e1ed5e" style="font-size:6.75px; font-family:Arial;" text-anchor="middle"><textPath startOffset="21.466115282336823" xlink:href="#id28">April</textPath></text><path d="M 120.99513854157772 99.54816195383933 l 8.17588463841333 -0.17595386347843975 a29.177777777777777,29.177777777777777 0 0,0 0.0064844038671317255,0.5022242255731348 l -8.177702049398176 0.03519337984484218" fill="#ff6f0a" stroke="none" /><path d="M 120.99980553446 99.90962569577887 l 8.999916657625711 -0.0387318446661986 a30.0,30.0 0 0,0 -0.002222432443567124,0.5164150311375932 l -8.999249927892642 -0.11619266467507938" fill="#ff7a0b" stroke="none" /><path d="M 120.99824983174949 100.27111621757518 l 7.888231418276266 0.10184789125840292 a28.88888888888889,28.88888888888889 0 0,0 -0.01069980794655059,0.4971780311882018 l -7.885309547644708 -0.23761573823671958" fill="#ff6b09" stroke="none" /><path d="M 120.9904718944345 100.63252640178507 l 5.864004846699164 0.17670578843519427 a26.866666666666667,26.866666666666667 0 0,0 -0.017908382415762262,0.46213577604239847 l -5.860094331432197 -0.2776188114915989" fill="#ff4f07" stroke="none" /><path d="M 120.9764740272857 100.99374915477107 l 0.5327358483120196 0.025238073771963614 a21.533333333333335,21.533333333333335 0 0,0 -0.020727011629612813,0.3700947162655818 l -0.5322224857948775 -0.03440450637296876" fill="#ff0400" stroke="none" /><path d="M 120.95626037817324 101.35467743843564 l 7.606346359485098 0.4916977369136769 a28.62222222222222,28.62222222222222 0 0,0 -0.03601417189453235,0.49138476210810567 l -7.596755628926228 -0.6225556355185529" fill="#ff6709" stroke="none" /><path d="M 120.92983693683757 101.71520430193887 l 6.998760287873728 0.5735497983202996 a28.022222222222222,28.022222222222222 0 0,0 -0.043535062533976716,0.4804057873441826 l -6.9878506290626765 -0.6939369742130527" fill="#ff5f08" stroke="none" /><path d="M 120.89721153311464 102.0752229133903 l 7.430119656218544 0.7378570358721068 a28.46666666666667,28.46666666666667 0 0,0 -0.05261954685412967,0.4871916525561717 l -7.416317807863362 -0.86564501031307" fill="#ff6509" stroke="none" /><path d="M 120.8583938346157 102.4346265915055 l 7.626005364930925 0.8901200924498975 a28.677777777777777,28.677777777777777 0 0,0 -0.06145031991210846,0.48981951120858924 l -7.609553535771968 -1.0212573579458817" fill="#ff6809" stroke="none" /><path d="M 120.81339534386255 102.79330883721812 l 7.609553535771968 1.0212573579458817 a28.677777777777777,28.677777777777777 0 0,0 -0.06987265308262007,0.48868917291987485 l -7.590846831672747 -1.1520920028461659" fill="#ff6809" stroke="none" /><path d="M 120.76222939487914 103.15116336523771 l 7.76661173660294 1.1787685181074374 a28.855555555555554,28.855555555555554 0 0,0 -0.07875951530356294,0.49043557697711465 l -7.745170466938089 -1.312283324777757" fill="#ff6a09" stroke="none" /><path d="M 120.70491114924044 103.5080841355445 l 7.022141823631279 1.1897787994095361 a28.12222222222222,28.12222222222222 0 0,0 -0.08497404996799648,0.47657959888583296 l -7.000621331324093 -1.3104771490285876" fill="#ff6008" stroke="none" /><path d="M 120.64145759157962 103.86396538481128 l 7.3501063275836485 1.3758987851735416 a28.47777777777778,28.47777777777778 0 0,0 -0.09434290041448301,0.48105241667981863 l -7.325333494193502 -1.5022149289213051" fill="#ff6509" stroke="none" /><path d="M 120.41448212921028 104.9243191809786 l 2.149461345879814 0.518486516939017 a23.211111111111112,23.211111111111112 0 0,0 -0.09703204467598829,0.38759478492002114 l -2.140217986908765 -0.5554091412564341" fill="#ff1c02" stroke="none" /><path d="M 120.32669344350535 105.2749913415812 l 7.238023644168839 1.8783434777164834 a28.47777777777778,28.47777777777778 0 0,0 -0.12721691023070106,0.47342144882067194 l -7.20461865759636 -2.0026558597127035" fill="#ff6509" stroke="none" /><path d="M 120.23288151984713 105.62410040840565 l 7.20461865759636 2.0026558597127035 a28.47777777777778,28.47777777777778 0 0,0 -0.13534723368303028,0.4711614763395537 l -7.169078787027231 -2.1263748115568393" fill="#ff6509" stroke="none" /><path d="M 120.13307415673323 105.97154293290107 l 7.36082235042469 2.1832466490130398 a28.67777777777778,28.67777777777778 0 0,0 -0.14444481490035532,0.47205401261541835 l -7.322150763018202 -2.309627634180515" fill="#ff6809" stroke="none" /><path d="M 120.02730092923936 106.31721596034902 l 7.131414563692113 2.249463672653382 a28.47777777777778,28.47777777777778 0 0,0 -0.15148516436262383,0.46622339648513805 l -7.091637148313242 -2.371885969116315" fill="#ff6509" stroke="none" /><path d="M 119.9155931802556 106.66101706037122 l 4.910405514285244 1.6423460053613703 a26.177777777777777,26.177777777777777 0 0,0 -0.14660698534272396,0.4261085246146076 l -4.881407697999289 -1.7266272330652783" fill="#ff4606" stroke="none" /><path d="M 119.79798401119884 107.00284435728193 l 3.0273107826647965 1.0708053011928447 a24.211111111111112,24.211111111111112 0 0,0 -0.14235642077757193,0.3917037303299684 l -3.0084301008819976 -1.1227568285289442" fill="#ff2a04" stroke="none" /><path d="M 119.67450827220406 107.3425965602758 l 7.005790511742508 2.6145859709341854 a28.47777777777778,28.47777777777778 0 0,0 -0.1753495033872181,0.45778222127336105 l -6.959746728761783 -2.7347917590406903" fill="#ff6509" stroke="none" /><path d="M 119.54520255179757 107.68017299344265 l 7.807739643707495 3.0680056137826455 a29.38888888888889,29.38888888888889 0 0,0 -0.18906485994137406,0.46924347727817894 l -7.7537721695087285 -3.201948458903638" fill="#ff720a" stroke="none" /><path d="M 119.41010516605496 108.01547362559984 l 6.91164062262169 2.85418716932735 a28.47777777777778,28.47777777777778 0 0,0 -0.19100319322968903,0.4514751273638217 l -6.861486448199693 -2.9727368223573354" fill="#ff6509" stroke="none" /><path d="M 119.26925614724726 108.34839909993367 l 7.24891064586921 3.14058823283219 a28.9,28.9 0 0,0 -0.2016929833936292,0.4547644321600631 l -7.193776577744308 -3.2649010014849407" fill="#ff6b09" stroke="none" /><path d="M 119.12269723197855 108.67885076344098 l 6.424821556775861 2.9159101771349345 a28.055555555555557,28.055555555555557 0 0,0 -0.2033698902007544,0.43804065085764693 l -6.373677049735275 -3.026070895271412" fill="#ff6008" stroke="none" /><path d="M 118.97047184881838 109.00673069616215 l 6.694870223895162 3.1785658065291833 a28.41111111111111,28.41111111111111 0 0,0 -0.21355244594506642,0.43998129079195275 l -6.639164521335381 -3.2933360532864113" fill="#ff6409" stroke="none" /><path d="M 118.81262510543309 109.33194174019688 l 2.3789510053960354 1.1800709396333615 a23.655555555555555,23.655555555555555 0 0,0 -0.18408677884922392,0.3632206789867533 l -2.3582855567605425 -1.2208458303228091" fill="#ff2303" stroke="none" /><path d="M 118.64920377521936 109.65438752849418 l 55.94761132565807 28.96316258548255 a84.0,84.0 0 0,0 -0.6757899671004277,1.2783399396554627 l -55.44076885033275 -29.921917540224147" fill="#4dd2ff" stroke="none" /><line stroke="#e1ed5e" stroke-width="0.3" x1="174.80103733775053" x2="179.2010983576182" y1="140.37084112569926" y2="142.7455964860345" /><path d="M 175.68104954172406 140.8457921977663 a86.0,86.0 0 0,1 -30.038265399797805,32.042727171017184" fill="none" id="id29" stroke="none" /><text fill="#e1ed5e" style="font-size:6.75px; font-family:Arial;" text-anchor="middle"><textPath startOffset="22.206326154141568" xlink:href="#id29">May</textPath></text><path d="M 118.48025628344425 109.97397251340804 l 10.921929242649327 5.894670527765498 a33.41111111111111,33.41111111111111 0 0,0 -0.2775088554387888,0.5037591805173546 l -10.818843977759029 -6.081800226680658" fill="#ffa60f" stroke="none" /><path d="M 118.30583269289576 110.29060199501025 l 53.929564250816725 30.3164401630778 a82.86666666666667,82.86666666666667 0 0,0 -0.7096859326431499,1.2373972431686169 l -53.399726322021195 -31.240257252104733" fill="#4cdcff" stroke="none" /><path d="M 118.12598468904814 110.60418214915192 l 0.20139982987831348 0.11782424610168858 a21.233333333333334,21.233333333333334 0 0,0 -0.1872771145717925,0.3138872161818281 l -0.19934183960829377 -0.12127355616962077" fill="#ff0000" stroke="none" /><path d="M 117.94076556474637 110.91462005526583 l 6.378938867465377 3.88075379742785 a28.46666666666667,28.46666666666667 0 0,0 -0.25828126622787256,0.4164316397048515 l -6.3111929615695415 -3.989981768497975" fill="#ff6509" stroke="none" /><path d="M 117.75023020441432 111.22182372390056 l 6.339367930147975 4.00779418710734 a28.5,28.5 0 0,0 -0.265721971131146,0.41240640010659957 l -6.269441095639778 -4.116322187135392" fill="#ff6609" stroke="none" /><path d="M 117.55443506779139 111.5257021239791 l 6.529506800347801 4.287073329712862 a28.811111111111114,28.811111111111114 0 0,0 -0.27575923157142873,0.4122226356954195 l -6.454744463365651 -4.398832879614088" fill="#ff6a09" stroke="none" /><path d="M 117.35343817320211 111.8261652097733 l 9.402074438814262 6.407403796194631 a32.37777777777778,32.37777777777778 0 0,0 -0.31782503520081223,0.45785066771800265 l -9.290388496451314 -6.568295726099653" fill="#ff990e" stroke="none" /><path d="M 117.14729908036423 112.12312394758627 l 6.151253320892566 4.348930178023011 a28.53333333333333,28.53333333333333 0 0,0 -0.28699126623251425,0.3986057678314789 l -6.075482262284449 -4.454169551305621" fill="#ff6609" stroke="none" /><path d="M 116.93607887273984 112.41649034213515 l 5.96795160277499 4.375334691990477 a28.4,28.4 0 0,0 -0.29243714408854216,0.39176734390168827 l -5.891753191991356 -4.47741491540148" fill="#ff6409" stroke="none" /><path d="M 116.71984013943494 112.70617746262583 l 7.3779612043855725 5.606852912079332 a30.266666666666666,30.266666666666666 0 0,0 -0.3187990634380855,0.41209076403994693 l -7.2803553237294185 -5.733021670232532" fill="#ff7d0b" stroke="none" /><path d="M 116.498646956653 112.99209946851258 l 5.822538370416694 4.585042510845443 a28.41111111111111,28.41111111111111 0 0,0 -0.3058687295638828,0.38161826959810263 l -5.742751728797957 -4.684588614021796" fill="#ff6409" stroke="none" /><path d="M 116.27256486870786 113.27417163493432 l 4.580425666747397 3.7364334972407724 a26.91111111111111,26.91111111111111 0 0,0 -0.2958992001364222,0.3564296482912423 l -4.515430466717431 -3.814724402645785" fill="#ff5007" stroke="none" /><path d="M 116.0416608686014 113.55231037782055 l 3.361109896278387 2.8395316982100196 a25.4,25.4 0 0,0 -0.28503334556677234,0.33155817529986614 l -3.311734041140836 -2.8969669726714136" fill="#ff3b05" stroke="none" /><path d="M 115.80600337817218 113.82643327865902 l 3.169563640384792 2.772602228895117 a25.211111111111112,25.211111111111112 0 0,0 -0.28853654505180976,0.32417386712062113 l -3.1213682456846437 -2.826750265756605" fill="#ff3805" stroke="none" /><path d="M 115.56566222782051 114.09645910891815 l 6.613347496793585 5.989130510296976 a29.922222222222224,29.922222222222224 0 0,0 -0.3490264673373126,0.3787992967301616 l -6.509274621460551 -6.102081061828471" fill="#ff790b" stroke="none" /><path d="M 115.32070863581623 114.36230785411682 l 4.7015931263351405 4.407480717136378 a27.444444444444443,27.444444444444443 0 0,0 -0.32605757571108873,0.34187006457206737 l -4.625028999245087 -4.487757898290953" fill="#ff5708" stroke="none" /><path d="M 114.29624159901734 115.38237550388516 l 0.3328225557443178 0.3581082127888595 a21.488888888888887,21.488888888888887 0 0,0 -0.2731140059952831,0.2494831690061103 l -0.32660900028217077 -0.3637841483815528" fill="#ff0400" stroke="none" /><path d="M 112.04921762599082 117.19931262002967 l 0.3825148452695506 0.5460099244453874 a21.666666666666668,21.666666666666668 0 0,0 -0.3072984523732157,0.2113626776391886 l -0.37305950827345163 -0.5525133914496703" fill="#ff0601" stroke="none" /><path d="M 111.7513745106137 117.40417183066458 l 4.48914941622386 6.648577810444353 a29.022222222222222,29.022222222222222 0 0,0 -0.41643475496889615,0.275990248100252 l -4.374039962515 -6.724866079635923" fill="#ff6d0a" stroke="none" /><path d="M 111.45004920935366 117.60387380957326 l 3.7500425717407007 5.765501528108917 a27.87777777777778,27.87777777777778 0 0,0 -0.4045174384466939,0.258182168296859 l -3.650243331247076 -5.829198125229585" fill="#ff5d08" stroke="none" /><path d="M 111.1453310114006 117.79835938074945 l 5.2424334757328745 8.371820893908074 a30.877777777777776,30.877777777777776 0 0,0 -0.452904657877309,0.27821103210790327 l -5.0975496179232564 -8.460820392844356" fill="#ff850c" stroke="none" /><line stroke="#e1ed5e" stroke-width="0.3" x1="143.8653032363475" x2="146.44561519142675" y1="172.8068346515853" y2="177.08958963109032" /><path d="M 144.38136562736335 173.6633856474863 a86.0,86.0 0 0,1 -40.68145358897372,12.25698825130547" fill="none" id="id30" stroke="none" /><text fill="#e1ed5e" style="font-size:6.75px; font-family:Arial;" text-anchor="middle"><textPath startOffset="21.466115282336833" xlink:href="#id30">June</textPath></text><path d="M 110.8373102113329 117.98757091392108 l 3.899138065453111 6.471718635696473 a28.555555555555557,28.555555555555557 0 0,0 -0.4232098261677556,0.25003982497622423 l -3.7871603682569734 -6.537877032966446" fill="#ff6609" stroke="none" /><path d="M 110.5260780823613 118.17145234162733 l 3.770452307808778 6.509033457821002 a28.52222222222222,28.52222222222222 0 0,0 -0.42695217741443486,0.24243458910327445 l -3.6578513634731444 -6.572971212718905" fill="#ff6609" stroke="none" /><path d="M 110.21172684928248 118.3499491758327 l 3.798330145526769 6.825404375984333 a28.811111111111114,28.811111111111114 0 0,0 -0.4354280681611608,0.23743010052217733 l -3.680279265496959 -6.889775128266281" fill="#ff6a09" stroke="none" /><path d="M 109.89434966115114 118.52300852407294 l 5.496860922861743 10.290560291151625 a32.666666666666664,32.666666666666664 0 0,0 -0.4982585960698957,0.2606653483082183 l -5.318911424265352 -10.383655058404559" fill="#ff9d0e" stroke="none" /><path d="M 109.57404056367764 118.69057910512821 l 3.5510065794381065 6.932325900896759 a28.788888888888888,28.788888888888888 0 0,0 -0.4430008069809352,0.22212980116613665 l -3.4311518647744106 -6.9924235429721975" fill="#ff6909" stroke="none" /><path d="M 109.2508944713604 118.85261126421891 l 3.396889292658262 6.9225990568084255 a28.711111111111112,28.711111111111112 0 0,0 -0.4455517808928035,0.21389193096568088 l -3.2772248437652256 -6.980045264273667" fill="#ff6809" stroke="none" /><path d="M 108.92500713936063 119.00905698771935 l 3.111946933777066 6.628025690427012 a28.322222222222223,28.322222222222223 0 0,0 -0.443083639570819,0.203397967046796 l -2.9973952984388275 -6.680610727807881" fill="#ff6309" stroke="none" /><path d="M 108.59647513512805 119.15986991738527 l 3.1474924833378886 7.0151481390638155 a28.68888888888889,28.68888888888889 0 0,0 -0.4522999037215237,0.19827498592260231 l -3.026271904958611 -7.068287678280872" fill="#ff6809" stroke="none" /><path d="M 108.2653958097858 119.30500536409082 l 2.908194821961671 6.7925018873652885 a28.38888888888889,28.38888888888889 0 0,0 -0.45088117512380255,0.18846836776929551 l -2.7908421873404072 -6.8415552981545575" fill="#ff6409" stroke="none" /><path d="M 107.93186726928326 119.44442032107085 l 2.874777290719066 7.047316359753189 a28.61111111111111,28.61111111111111 0 0,0 -0.4576128196784097,0.1820935850023135 l -2.75304339499879 -7.095756789161572" fill="#ff6709" stroke="none" /><path d="M 107.59598834532513 119.57807347666477 l 2.909786011648356 7.499748781537195 a29.044444444444444,29.044444444444444 0 0,0 -0.467656742292403,0.17682776413823645 l -2.780259048595678 -7.5487247957820625" fill="#ff6d0a" stroke="none" /><path d="M 107.2578585660854 119.70592522655815 l 2.4538474199622082 6.662479481360136 a28.1,28.1 0 0,0 -0.45532763553830724,0.16326429032272002 l -2.3388002237941663 -6.703731312722817" fill="#ff6008" stroke="none" /><path d="M 106.91757812671514 119.82793768551818 l 2.6389279520431828 7.563991042993976 a29.011111111111113,29.011111111111113 0 0,0 -0.4729229244978309,0.1604411329148152 l -2.508335294608125 -7.608295162806915" fill="#ff6c0a" stroke="none" /><path d="M 106.57524785965236 119.94407469862006 l 2.2891603659530455 6.943492672852909 a28.31111111111111,28.31111111111111 0 0,0 -0.4641386310625841,0.14860253265135853 l -2.169300389799521 -6.981868052163975" fill="#ff6309" stroke="none" /><path d="M 106.2309692047433 120.05430185196036 l 2.3802961723940035 7.660955522283269 a29.022222222222222,29.022222222222222 0 0,0 -0.47834844802226345,0.14412246343695492 l -2.2480727499314943 -7.700793354825949" fill="#ff6d0a" stroke="none" /><path d="M 105.88484417918355 120.15858648285463 l 1.9460463555501157 6.666199233748223 a27.944444444444443,27.944444444444443 0 0,0 -0.4629048212787918,0.13082152632466912 l -1.8310103661667183 -6.698709553411411" fill="#ff5e08" stroke="none" /><path d="M 105.53697534728816 120.25689768951611 l 2.00092812814699 7.320349799967992 a28.58888888888889,28.58888888888889 0 0,0 -0.47581380457461225,0.12566675039252828 l -1.8746238807608804 -7.353707899664103" fill="#ff6709" stroke="none" /><path d="M 105.18746579009965 120.34920634021253 l 1.9761774438474875 7.752078605795249 a29.0,29.0 0 0,0 -0.4847787972593751,0.11914683375681578 l -1.8424453618449013 -7.784946697866094" fill="#ff6c0a" stroke="none" /><path d="M 104.83641907484287 120.43548508189849 l 1.688908248357826 7.136201139710585 a28.333333333333332,28.333333333333332 0 0,0 -0.47556805240645594,0.10823774041106071 l -1.565820046558508 -7.164215613699331" fill="#ff6309" stroke="none" /><path d="M 104.48393922423573 120.51570834832081 l 2.1826582467179203 9.986482370611188 a31.22222222222222,31.22222222222222 0 0,0 -0.5260328007319829,0.11023528791450755 l -2.0104339845565593 -10.022573639252238" fill="#ff8a0c" stroke="none" /><path d="M 104.13013068566511 120.58985236759428 l 0.9134363103746109 4.553734544790692 a25.644444444444446,25.644444444444446 0 0,0 -0.43355277543307214,0.08309142127605056 l -0.8349159203698344 -4.568783164415211" fill="#ff3e05" stroke="none" /><path d="M 103.41894727170886 120.7198165907248 l 2.149052570788427 13.023884714169876 a34.2,34.2 0 0,0 -0.5816673078375578,0.09084447089185634 l -1.924549399342352 -13.058947492408837" fill="#ffb110" stroke="none" /><path d="M 103.06178313531738 120.77559828337769 l 0.7921756365979882 5.375273841572324 a26.433333333333334,26.433333333333334 0 0,0 -0.45071528125213245,0.06246503105454946 l -0.6995317641590252 -5.3881134381194755" fill="#ff4906" stroke="none" /><path d="M 102.70371172650421 120.8252237178851 l 0.9584586543692163 7.3824867148058235 a28.444444444444443,28.444444444444443 0 0,0 -0.48609195607855366,0.058858966382593456 l -0.8312392752392824 -7.397891209913769" fill="#ff6509" stroke="none" /><path d="M 102.34483914955558 120.86867818915974 l 0.8113887850843146 7.221225151169559 a28.266666666666666,28.266666666666666 0 0,0 -0.4839891398070618,0.050167453253201384 l -0.68696704867165 -7.234121972878519" fill="#ff6209" stroke="none" /><path d="M 101.98527174616119 120.90594882070398 l 0.7615460401941078 8.01947772222772 a29.055555555555557,29.055555555555557 0 0,0 -0.4983106397385548,0.04299633877846306 l -0.6233910827140112 -8.031398313284845" fill="#ff6d0a" stroke="none" /><path d="M 101.62511606390274 120.93702456842531 l 0.5270879085568121 6.790685746267046 a27.81111111111111,27.81111111111111 0 0,0 -0.47760582527531076,0.03293849400832711 l -0.410119322502571 -6.798752584791658" fill="#ff5c08" stroke="none" /><path d="M 101.26447882468166 120.96189622390904 l 0.45628283514967927 7.564028161220082 a28.577777777777776,28.577777777777776 0 0,0 -0.49128184552409015,0.025393659792389802 l -0.3260129212121095 -7.570761627774674" fill="#ff6709" stroke="none" /><path d="M 100.90346689309514 120.98055641714683 l 0.40536503986491057 9.413498328963236 a30.422222222222224,30.422222222222224 0 0,0 -0.5233776069390488,0.01802618302082287 l -0.24326708125120952 -9.419081310410153" fill="#ff7f0b" stroke="none" /><line stroke="#e1ed5e" stroke-width="0.3" x1="102.19456741930631" x2="102.32365962044197" y1="184.97166512339345" y2="189.96999836594603" /><path d="M 102.22038585953345 185.97133177190398 a86.0,86.0 0 0,1 -42.740103519485714,-10.115201625700543" fill="none" id="id31" stroke="none" /><text fill="#e1ed5e" style="font-size:6.75px; font-family:Arial;" text-anchor="middle"><textPath startOffset="22.20632615414155" xlink:href="#id31">July</textPath></text><path d="M 99.81925306533755 120.99922214144158 l -0.09716343154341132 11.288470738468067 a32.28888888888889,32.28888888888889 0 0,0 -0.5557383815724376,-0.009567540225800015 l 0.2914615030085168 -11.285125720963107" fill="#ff980e" stroke="none" /><path d="M 99.45781275523022 120.99299961872073 l -0.11618298102209576 4.4984999182973 a25.5,25.5 0 0,0 -0.4386967158236477,-0.015109601911171833 l 0.19360004852038654 -4.495833517960035" fill="#ff3c05" stroke="none" /><path d="M 99.09653310690486 120.98055641714683 l -0.2987655069759051 6.938014688209929 a27.944444444444443,27.944444444444443 0 0,0 -0.48039418409527795,-0.024830892059821287 l 0.4181477594846719 -6.931843989387906" fill="#ff5e08" stroke="none" /><path d="M 98.73552117531835 120.96189622390904 l -0.48505140100221966 8.040939027689975 a29.055555555555557,29.055555555555557 0 0,0 -0.49897692093285606,-0.034412369888843546 l 0.6233910827140058 -8.031398313284845" fill="#ff6d0a" stroke="none" /><path d="M 98.37488393609728 120.93702456842531 l -0.5984554394054455 7.710142380753451 a28.733333333333334,28.733333333333334 0 0,0 -0.4927844414393509,-0.042519515136178 l 0.7310841985863381 -7.6986986133386095" fill="#ff6909" stroke="none" /><path d="M 97.65516085044442 120.86867818915974 l -0.10669638458295248 0.949580065750126 a21.955555555555556,21.955555555555556 0 0,0 -0.3752022285981242,-0.04543176467656676 l 0.12302603623246598 -0.9476027723482106" fill="#ff0a01" stroke="none" /><path d="M 97.2962882734958 120.8252237178851 l -1.0514434491960751 8.098698112510865 a29.166666666666664,29.166666666666664 0 0,0 -0.49732140112940126,-0.06892421459360429 l 1.1906934415123074 -8.079399332424657" fill="#ff6f0a" stroke="none" /><path d="M 96.93821686468263 120.77559828337769 l -1.1906934415123074 8.079399332424657 a29.166666666666664,29.166666666666664 0 0,0 -0.49606130054372616,-0.07747457312901976 l 1.3295906056645508 -8.057706451948532" fill="#ff6f0a" stroke="none" /><path d="M 96.58105272829116 120.7198165907248 l -1.1758284267781742 7.125862848661968 a28.22222222222222,28.22222222222222 0 0,0 -0.47863683198994345,-0.08321714844266895 l 1.2983142302401678 -7.104567121698293" fill="#ff6209" stroke="none" /><path d="M 96.22490169976321 120.6578951692458 l -1.7397410685218249 9.520119943075713 a30.677777777777777,30.677777777777777 0 0,0 -0.5186478392420899,-0.09940009278300502 l 1.9033565223356097 -9.488762651944239" fill="#ff830c" stroke="none" /><path d="M 95.86986931433489 120.58985236759428 l -0.7517274898776692 3.7475710129377946 a24.822222222222223,24.822222222222223 0 0,0 -0.418205436596164,-0.08763901537402487 l 0.8161243879032201 -3.7340760168372285" fill="#ff3304" stroke="none" /><path d="M 95.51606077576429 120.51570834832081 l -1.5017637719265642 6.871134065866176 a28.03333333333333,28.03333333333333 0 0,0 -0.4705326259692103,-0.10709169374788166 l 1.619816547288637 -6.844265638540608" fill="#ff5f08" stroke="none" /><path d="M 95.16358092515715 120.4354850818985 l -0.43246286965525993 1.8272999888046797 a22.877777777777776,22.877777777777776 0 0,0 -0.382436606726841,-0.09399361329704356 l 0.46385276112531143 -1.8195851171936062" fill="#ff1802" stroke="none" /><path d="M 94.81253420990036 120.34920634021253 l -2.0283265708379012 7.956647346781511 a29.21111111111111,29.21111111111111 0 0,0 -0.4861696433061347,-0.12840182152427718 l 2.1649866569555254 -7.920554175953653" fill="#ff6f0a" stroke="none" /><path d="M 94.46302465271185 120.25689768951611 l -1.6464445212571115 6.023479630427542 a27.244444444444444,27.244444444444444 0 0,0 -0.45130919354893473,-0.12754448610261673 l 1.7498848829106601 -5.994246350986404" fill="#ff5507" stroke="none" /><path d="M 94.11515582081647 120.15858648285463 l -2.282323165789171 7.818118461339921 a29.144444444444446,29.144444444444446 0 0,0 -0.480362932298008,-0.14472941102417028 l 2.416561072527425 -7.7776736812100244" fill="#ff6e0a" stroke="none" /><path d="M 93.76903079525671 120.05430185196036 l -2.0868801622235464 6.716599509148627 a28.03333333333333,28.03333333333333 0 0,0 -0.459584680600824,-0.14714450152251868 l 2.2021861879153106 -6.679682160966402" fill="#ff5f08" stroke="none" /><path d="M 92.7421414339146 119.70592522655815 l -0.49537764816138447 1.3450075948285722 a22.433333333333334,22.433333333333334 0 0,0 -0.361208478457666,-0.13657813917180292 l 0.5184563473793334 -1.336281205550136" fill="#ff1101" stroke="none" /><path d="M 92.40401165467489 119.57807347666478 l -2.857538472765162 7.365084784078655 a28.9,28.9 0 0,0 -0.4622333763043,-0.18393219984117504 l 2.9838929251113204 -7.314805739831413" fill="#ff6b09" stroke="none" /><path d="M 92.06813273071674 119.44442032107085 l -2.887367556225864 7.078180518992987 a28.644444444444446,28.644444444444446 0 0,0 -0.45493998805055147,-0.1901649519018567 l 3.0087790037738773 -7.027430524071157" fill="#ff6809" stroke="none" /><path d="M 91.7346041902142 119.30500536409082 l -2.7420122607067157 6.404358922372985 a27.966666666666665,27.966666666666665 0 0,0 -0.44091357771770373,-0.19328355521580093 l 2.8518465130821626 -6.356210813862732" fill="#ff5e08" stroke="none" /><path d="M 91.40352486487194 119.15986991738527 l -2.8973305085061205 6.45758578697059 a28.077777777777776,28.077777777777776 0 0,0 -0.4392594575109688,-0.20164247262740426 l 3.008057961784509 -6.406756244009112" fill="#ff6008" stroke="none" /><path d="M 91.07499286063937 119.00905698771935 l -3.2300025837686106 6.879468243174623 a28.6,28.6 0 0,0 -0.44382750929490844,-0.2130641758148817 l 3.347942761063761 -6.822849790860178" fill="#ff6709" stroke="none" /><path d="M 90.7491055286396 118.85261126421891 l -0.28878453640754637 0.5885206690946639 a21.655555555555555,21.655555555555555 0 0,0 -0.33323372165412685,-0.16709030585596307 l 0.2988721657444337 -0.5834625223293988" fill="#ff0601" stroke="none" /><line stroke="#e1ed5e" stroke-width="0.3" x1="58.666819895761336" x2="56.23545636021788" y1="174.27360380694188" y2="178.64263932499728" /><path d="M 58.180547188652646 175.14741091055294 a86.0,86.0 0 0,1 -31.652253787137756,-30.449443065178592" fill="none" id="id32" stroke="none" /><text fill="#e1ed5e" style="font-size:6.75px; font-family:Arial;" text-anchor="middle"><textPath startOffset="22.20632615414155" xlink:href="#id32">August</textPath></text><path d="M 89.7882731507175 118.34994917583269 l -4.208960431529663 7.563285930144798 a29.655555555555555,29.655555555555555 0 0,0 -0.4439171645964539,-0.2520677515841927 l 4.338526363047324 -7.489715012765973" fill="#ff750a" stroke="none" /><path d="M 89.4739219176387 118.17145234162733 l -3.363889503569428 5.807173129281962 a27.711111111111112,27.711111111111112 0 0,0 -0.41069467177524605,-0.24264565116369774 l 3.4633520463730556 -5.7484089058245145" fill="#ff5b08" stroke="none" /><line stroke="#e1ed5e" stroke-width="0.3" x1="26.63291911575756" x2="22.317208475507996" y1="142.92168965132927" y2="145.44649492493687" /><path d="M 25.769776987707644 143.4266507060508 a86.0,86.0 0 0,1 -11.730757126820373,-40.83630448921669" fill="none" id="id33" stroke="none" /><text fill="#e1ed5e" style="font-size:6.75px; font-family:Arial;" text-anchor="middle"><textPath startOffset="21.46611528233685" xlink:href="#id33">September</textPath></text><line stroke="#e1ed5e" stroke-width="0.3" x1="15.007084014347285" x2="10.007500721073583" y1="101.09737516637583" y2="101.16192664675087" /><path d="M 14.007167355692545 101.11028546245083 a86.0,86.0 0 0,1 10.666146001902534,-42.60595125391555" fill="none" id="id34" stroke="none" /><text fill="#e1ed5e" style="font-size:6.75px; font-family:Arial;" text-anchor="middle"><textPath startOffset="22.20632615414155" xlink:href="#id34">October</textPath></text><line stroke="#e1ed5e" stroke-width="0.3" x1="26.266209847984243" x2="21.928928074336255" y1="57.711370442889674" y2="55.22380399835377" /><path d="M 25.398753493254645 57.213857153982495 a86.0,86.0 0 0,1 29.58750427330803,-30.492523968695096" fill="none" id="id35" stroke="none" /><text fill="#e1ed5e" style="font-size:6.75px; font-family:Arial;" text-anchor="middle"><textPath startOffset="21.46611528233685" xlink:href="#id35">November</textPath></text><line stroke="#e1ed5e" stroke-width="0.3" x1="56.762969772571076" x2="54.21961505331055" y1="26.818313649435495" y2="22.513508569990535" /><path d="M 56.25429882871897 25.957352633546506 a86.0,86.0 0 0,1 42.265352541879196,-11.944610805530505" fill="none" id="id36" stroke="none" /><text fill="#e1ed5e" style="font-size:6.75px; font-family:Arial;" text-anchor="middle"><textPath startOffset="22.20632615414155" xlink:href="#id36">December</textPath></text></svg>