<?xml version="1.0" encoding="utf-8" ?>
<svg baseProfile="full" height="200mm" version="1.1" viewBox="0,0,200,200" width="200mm" xmlns="http://www.w3.org/2000/svg" xmlns:ev="http://www.w3.org/2001/xml-events" xmlns:xlink="http://www.w3.org/1999/xlink"><defs /><rect fill="#1a1a1a" height="200" width="200" x="0" y="0" /><text alignment-baseline="middle" fill="#e1ed5e" style="dominant-baseline: central; font-size:9.0px; font-family:Arial;" text-anchor="middle" x="100.0" y="100.0">2022</text><line stroke="#e1ed5e" stroke-width="0.3" x1="100.0" x2="100.0" y1="15.0" y2="10.0" /><path d="M 100.0 14.0 a86.0,86.0 0 0,1 42.46469731375804,11.215312516191453" fill="none" id="id13" stroke="none" /><text fill="#e1ed5e" style="font-size:6.75px; font-family:Arial;" text-anchor="middle"><textPath startOffset="22.20632615414155" xlink:href="#id13">January</textPath></text><line stroke="#e1ed5e" stroke-width="0.3" x1="143.23703022742887" x2="145.7803849466894" y1="26.81831364943548" y2="22.513508569990506" /><path d="M 143.74570117128098 25.957352633546492 a86.0,86.0 0 0,1 28.547481713284135,27.462654790039103" fill="none" id="id14" stroke="none" /><text fill="#e1ed5e" style="font-size:6.75px; font-family:Arial;" text-anchor="middle"><textPath startOffset="19.985693538727396" xlink:href="#id14">February</textPath></text><line stroke="#e1ed5e" stroke-width="0.3" x1="172.23445277983987" x2="176.4835382374775" y1="55.19839476539836" y2="52.563006222186495" /><path d="M 173.08426987136738 54.67131705675599 a86.0,86.0 0 0,1 12.851231095245387,41.99856678651699" fill="none" id="id15" stroke="none" /><text fill="#e1ed5e" style="font-size:6.75px; font-family:Arial;" text-anchor="middle"><textPath startOffset="22.20632615414155" xlink:href="#id15">March</textPath></text><line stroke="#e1ed5e" stroke-width="0.3" x1="184.98032266829074" x2="189.97916517819016" y1="98.17113171792111" y2="98.06355123074" /><path d="M 185.9800911702706 98.14961562048488 a86.0,86.0 0 0,1 -9.607161424134198,41.387399972396054" fill="none" id="id16" stroke="none" /><text fill="#e1ed5e" style="font-size:6.75px; font-family:Arial;" text-anchor="middle"><textPath startOffset="21.466115282336823" xlink:href="#id16">April</textPath></text><path d="M 120.89721153311464 102.0752229133903 l 5.737189029408972 0.5697385085763363 a26.765408912412497,26.765408912412497 0 0,0 -0.049474836826813674,0.45807554330374456 l -5.726531891081106 -0.6684103737648723" fill="#ff4f07" stroke="none" /><path d="M 120.8583938346157 102.4346265915055 l 29.41257891072069 3.433085371221444 a50.61225883558136,50.61225883558136 0 0,0 -0.10845120291471605,0.8644627933206648 l -29.349126198559127 -3.938865918829504" fill="#8cff24" stroke="none" /><path d="M 120.81339534386255 102.79330883721812 l 14.754518946169927 1.9801636148420017 a35.8868021171248,35.8868021171248 0 0,0 -0.08743725172867288,0.6115359349407687 l -14.718247643424654 -2.23384502176318" fill="#ffc712" stroke="none" /><path d="M 120.76222939487914 103.15116336523771 l 4.657942534552026 0.7069538435926832 a25.7112856411132,25.7112856411132 0 0,0 -0.07017741838401925,0.4369948512668649 l -4.645083361806718 -0.787027924552753" fill="#ff4006" stroke="none" /><path d="M 120.70491114924044 103.5080841355445 l 4.3693478197816615 0.740309371953731 a25.431620283421548,25.431620283421548 0 0,0 -0.07684413257437843,0.43098270463535643 l -4.355957244868094 -0.8154108273223057" fill="#ff3c05" stroke="none" /><path d="M 120.64145759157962 103.86396538481128 l 4.281948262552372 0.8015567598678002 a25.356325764043024,25.356325764043024 0 0,0 -0.08400196585216038,0.428324214132746 l -4.267516363724547 -0.8751447010684911" fill="#ff3b05" stroke="none" /><path d="M 120.5718875245553 104.21870165774334 l 4.372887138137501 0.8967532122059851 a25.4638893631552,25.4638893631552 0 0,0 -0.09174998411797938,0.4286253806567129 l -4.356803115295079 -0.9718924122788671" fill="#ff3d05" stroke="none" /><path d="M 120.49622156327973 104.57218783832717 l 4.356803115295079 0.9718924122788671 a25.4638893631552,25.4638893631552 0 0,0 -0.09911447170244389,0.42698255002740176 l -4.339428077662082 -1.0467436196548339" fill="#ff3d05" stroke="none" /><path d="M 120.41448212921028 104.9243191809786 l 26.580304032330137 6.411619954608642 a48.34266689431449,48.34266689431449 0 0,0 -0.2020923423868353,0.8072584499581543 l -26.466000375648242 -6.868206243964192" fill="#a5ff21" stroke="none" /><path d="M 120.32669344350535 105.2749913415812 l 8.516596501683821 2.2101466198122393 a29.798702407375792,29.798702407375792 0 0,0 -0.13311779025499224,0.49538081857230987 l -8.477290635087051 -2.356418371560097" fill="#ff780b" stroke="none" /><path d="M 120.23288151984713 105.62410040840565 l 4.290462497464594 1.1926127210585327 a25.45313300324398,25.45313300324398 0 0,0 -0.12097190895434186,0.42111908509355855 l -4.269297951624152 -1.266289281656673" fill="#ff3d05" stroke="none" /><path d="M 120.13307415673323 105.97154293290107 l 4.289922579409777 1.272406621181585 a25.474645723066416,25.474645723066416 0 0,0 -0.1283112141615037,0.4193284719169599 l -4.2673845927421405 -1.346062065650602" fill="#ff3d05" stroke="none" /><path d="M 120.02730092923936 106.31721596034902 l 8.350122736759863 2.6338810611528607 a29.75567696773092,29.75567696773092 0 0,0 -0.15828284255013939,0.4871444987338701 l -8.303547643193475 -2.777224459864526" fill="#ff770b" stroke="none" /><path d="M 119.9155931802556 106.66101706037122 l 4.233381169441392 1.4159068192184012 a25.4638893631552,25.4638893631552 0 0,0 -0.14260889852162797,0.4144882128495457 l -4.208381439976534 -1.4885677351572473" fill="#ff3d05" stroke="none" /><path d="M 119.79798401119884 107.00284435728193 l 4.208381439976534 1.4885677351572473 a25.4638893631552,25.4638893631552 0 0,0 -0.1497225027046064,0.4119720241868631 l -4.1821346762667 -1.5607875563502414" fill="#ff3d05" stroke="none" /><path d="M 119.67450827220406 107.3425965602758 l 13.402985829963157 5.0020420480622185 a35.30595868191907,35.30595868191907 0 0,0 -0.21739344866702048,0.5675456953037447 l -13.31489810170263 -5.232011310199107" fill="#ffbf11" stroke="none" /><path d="M 119.54520255179757 107.68017299344265 l 4.134626252633974 1.6246771963249858 a25.442376643332764,25.442376643332764 0 0,0 -0.16367612245681118,0.40623071295670055 l -4.106047515919771 -1.6956072771244999" fill="#ff3d05" stroke="none" /><path d="M 119.41010516605496 108.01547362559984 l 4.125931523260788 1.7038184503793405 a25.4638893631552,25.4638893631552 0 0,0 -0.17078875389657197,0.40369416402917996 l -4.095991788171907 -1.774587140074684" fill="#ff3d05" stroke="none" /><path d="M 119.26925614724726 108.34839909993367 l 4.095991788171907 1.774587140074684 a25.4638893631552,25.4638893631552 0 0,0 -0.17771238112318594,0.4006945047343234 l -4.064838322317448 -1.844829981301695" fill="#ff3d05" stroke="none" /><path d="M 119.12269723197855 108.67885076344098 l 4.035453948903105 1.8314938609549358 a25.431620283421548,25.431620283421548 0 0,0 -0.18434943533465534,0.3970722832151707 l -4.003329896728618 -1.9006862114489371" fill="#ff3c05" stroke="none" /><path d="M 118.97047184881838 109.00673069616215 l 4.051913997417071 1.9237527916849668 a25.485402082977632,25.485402082977632 0 0,0 -0.19156132012679028,0.39467305804999525 l -4.018199420675566 -1.9932148057002375" fill="#ff3d05" stroke="none" /><path d="M 118.81262510543309 109.33194174019688 l 3.9796555413405494 1.974095239218701 a25.442376643332764,25.442376643332764 0 0,0 -0.19799176356439044,0.39065653299601866 l -3.9450851079898897 -2.042305983917414" fill="#ff3d05" stroke="none" /><path d="M 118.64920377521936 109.65438752849418 l 3.9546373721738837 2.0472510347259303 a25.45313300324398,25.45313300324398 0 0,0 -0.204773475176965,0.3873542441358259 l -3.9188113887720255 -2.1150202939478904" fill="#ff3d05" stroke="none" /><line stroke="#e1ed5e" stroke-width="0.3" x1="174.80103733775053" x2="179.2010983576182" y1="140.37084112569926" y2="142.7455964860345" /><path d="M 175.68104954172406 140.8457921977663 a86.0,86.0 0 0,1 -30.038265399797805,32.042727171017184" fill="none" id="id17" stroke="none" /><text fill="#e1ed5e" style="font-size:6.75px; font-family:Arial;" text-anchor="middle"><textPath startOffset="22.206326154141568" xlink:href="#id17">May</textPath></text><path d="M 118.12598468904814 110.60418214915192 l 13.415766369647208 7.848579412083596 a36.54294007170907,36.54294007170907 0 0,0 -0.3223072075949579,0.5402054190050926 l -13.278678286354022 -8.078346924974792" fill="#ffcf13" stroke="none" /><path d="M 117.75023020441432 111.22182372390056 l 3.8003736855618193 2.4026236895631374 a25.496158442888852,25.496158442888852 0 0,0 -0.23771542027075213,0.36893961122734303 l -3.758453401914017 -2.4676849007119332" fill="#ff3d05" stroke="none" /><path d="M 117.55443506779139 111.5257021239791 l 3.740470371282848 2.455877795923837 a25.474645723066416,25.474645723066416 0 0,0 -0.2438249848142098,0.36448526968887524 l -3.6976422810579175 -2.5198999798185193" fill="#ff3d05" stroke="none" /><path d="M 117.35343817320211 111.8261652097733 l 3.910967797272797 2.6652788248080492 a25.732798360935632,25.732798360935632 0 0,0 -0.2525969385858543,0.3638847296028275 l -3.8645099515248065 -2.7322048165978963" fill="#ff4106" stroke="none" /><path d="M 117.14729908036423 112.12312394758627 l 3.6712844539485676 2.5955945757680023 a25.496158442888852,25.496158442888852 0 0,0 -0.2564430419015005,0.3561769560589049 l -3.626061619671464 -2.6584051372780384" fill="#ff3d05" stroke="none" /><path d="M 116.93607887273984 112.41649034213515 l 3.617386831107655 2.652045316375458 a25.485402082977632,25.485402082977632 0 0,0 -0.26242528877092125,0.3515615592364332 l -3.5712002756416417 -2.713919755121206" fill="#ff3d05" stroke="none" /><path d="M 116.71984013943494 112.70617746262583 l 3.554072216765664 2.700903353417988 a25.4638893631552,25.4638893631552 0 0,0 -0.26821136829729864,0.3466993487805497 l -3.507054031250297 -2.7616806963117906" fill="#ff3d05" stroke="none" /><path d="M 116.498646956653 112.99209946851258 l 3.507054031250297 2.7616806963117906 a25.4638893631552,25.4638893631552 0 0,0 -0.2741394892583963,0.3420311637232826 l -3.458996629937047 -2.8216396936133235" fill="#ff3d05" stroke="none" /><path d="M 116.27256486870786 113.27417163493432 l 3.4673315615754485 2.8284388254051622 a25.474645723066416,25.474645723066416 0 0,0 -0.2801046475595654,0.3374040922326551 l -3.4181309141223397 -2.8877041747515877" fill="#ff3d05" stroke="none" /><path d="M 116.0416608686014 113.55231037782055 l 6.063895708226653 5.122898271554501 a28.938193614478404,28.938193614478404 0 0,0 -0.32473819451156644,0.3777438846964842 l -5.9748150041443076 -5.226519255412513" fill="#ff6c0a" stroke="none" /><path d="M 115.80600337817218 113.82643327865902 l 3.683659657026638 3.222312007063269 a25.894143759603892,25.894143759603892 0 0,0 -0.29635372850259534,0.3329565555969715 l -3.6276470788757047 -3.285242732401107" fill="#ff4306" stroke="none" /><path d="M 115.56566222782051 114.09645910891815 l 2.049022635760564 1.855620620279308 a23.76438449718286,23.76438449718286 0 0,0 -0.2771986354455105,0.3008443713806988 l -2.0167775923193316 -1.8906162464613416" fill="#ff2503" stroke="none" /><path d="M 115.32070863581623 114.36230785411682 l 3.2488168218684925 3.0455841479960886 a25.45313300324398,25.45313300324398 0 0,0 -0.3023995205328207,0.31706468830131157 l -3.1959107499567074 -3.101055952879907" fill="#ff3d05" stroke="none" /><path d="M 115.07121518719521 114.62390073753431 l 2.0997288019039253 2.037408741988733 a23.92572989585112,23.92572989585112 0 0,0 -0.28934111473525886,0.2931010216266049 l -2.0643470621131312 -2.0732502575960026" fill="#ff2703" stroke="none" /><path d="M 114.81725581225074 114.88116024355365 l 1.5634393191003844 1.570182180385206 a23.215810141710772,23.215810141710772 0 0,0 -0.285609793130738,0.2795292954714608 l -1.5361795735938522 -1.5968615787792388" fill="#ff1d03" stroke="none" /><path d="M 114.55890576462653 115.13401014063108 l 1.580922667970372 1.6433721101999934 a23.280348301178076,23.280348301178076 0 0,0 -0.29118634579144376,0.2753348648811221 l -1.5524004877881206 -1.6703416118270369" fill="#ff1e03" stroke="none" /><path d="M 114.29624159901734 115.38237550388516 l 3.038897181283352 3.2697724948500984 a25.4638893631552,25.4638893631552 0 0,0 -0.3236344544453359,0.29563240083696224 l -2.982163177371152 -3.3215976622736436" fill="#ff3d05" stroke="none" /><path d="M 114.0293411484842 115.62618273729858 l 0.4095983159280854 0.4562194379508372 a21.613112514939388,21.613112514939388 0 0,0 -0.2789714011745073,0.24615982608786802 l -0.4016845618469904 -0.46320240581099403" fill="#ff0701" stroke="none" /><path d="M 113.75828350139079 115.86535959552629 l 6.518565258043272 7.516881146932805 a30.949632917876045,30.949632917876045 0 0,0 -0.4054910715702455,0.34556828813309254 l -6.388208709895979 -7.627973825288844" fill="#ff870c" stroke="none" /><path d="M 112.92097659922987 116.55440617244103 l 3.706204658819565 4.748404024193432 a27.023561550281713,27.023561550281713 0 0,0 -0.3691563553601737,0.28305335165564305 l -3.6239195749658974 -4.811496717676446" fill="#ff5207" stroke="none" /><path d="M 112.63410532772338 116.77436683061366 l 3.785701698848305 5.026295678287004 a27.29247054806215,27.29247054806215 0 0,0 -0.3776953397940735,0.27940998295934405 l -3.6986213886356674 -5.090715609986117" fill="#ff5608" stroke="none" /><path d="M 112.34349029814194 116.9893568818739 l 3.5215933563590873 4.847057426944045 a26.99129247054806,26.99129247054806 0 0,0 -0.3782285600057362,0.26985603497297544 l -3.4376374685044664 -4.90695772376124" fill="#ff5207" stroke="none" /><path d="M 111.7513745106137 117.40417183066458 l 4.0629218685321415 6.017320805377459 a28.26054294007171,28.26054294007171 0 0,0 -0.4055055531042518,0.26874696905552814 l -3.9587416166879255 -6.086365795524305" fill="#ff6309" stroke="none" /><path d="M 111.45004920935366 117.60387380957326 l 4.076037664589791 6.266702559836137 a28.475670138296056,28.475670138296056 0 0,0 -0.41319309000226706,0.2637193795938723 l -3.9675627725405933 -6.335936368253818" fill="#ff6609" stroke="none" /><path d="M 111.1453310114006 117.79835938074945 l 3.830553410611134 6.117141443306924 a28.21751750042684,28.21751750042684 0 0,0 -0.41388487220978837,0.2542418927882302 l -3.724689338469037 -6.182171802923532" fill="#ff6309" stroke="none" /><line stroke="#e1ed5e" stroke-width="0.3" x1="143.8653032363475" x2="146.44561519142675" y1="172.8068346515853" y2="177.08958963109032" /><path d="M 144.38136562736335 173.6633856474863 a86.0,86.0 0 0,1 -40.68145358897372,12.25698825130547" fill="none" id="id18" stroke="none" /><text fill="#e1ed5e" style="font-size:6.75px; font-family:Arial;" text-anchor="middle"><textPath startOffset="21.466115282336833" xlink:href="#id18">June</textPath></text><path d="M 110.8373102113329 117.98757091392108 l 3.1862469154712767 5.288474835883915 a27.174150589038756,27.174150589038756 0 0,0 -0.40273660670580363,0.23794388604843306 l -3.094742437737091 -5.342537294226097" fill="#ff5407" stroke="none" /><path d="M 110.5260780823613 118.17145234162733 l 3.0354355269093762 5.240154175347199 a27.055830630015365,27.055830630015365 0 0,0 -0.40500160573888194,0.22997048163116504 l -2.944785154249295 -5.291627822772993" fill="#ff5307" stroke="none" /><path d="M 110.21172684928248 118.3499491758327 l 3.980428956276579 7.15262659525799 a29.1855898924364,29.1855898924364 0 0,0 -0.4410876406674406,0.2405161507043654 l -3.85671850374049 -7.220083397722126" fill="#ff700a" stroke="none" /><path d="M 109.57404056367764 118.69057910512821 l 7.831522680652133 15.288810738034702 a38.1779067782141,38.1779067782141 0 0,0 -0.5874781613443685,0.2945737459446391 l -7.567190611625004 -15.421352324888643" fill="#ffe315" stroke="none" /><path d="M 109.2508944713604 118.85261126421891 l 2.771951476393631 5.649023863531532 a27.29247054806215,27.29247054806215 0 0,0 -0.4235366862185809,0.2033233476669539 l -2.674302122174817 -5.6959014876980465" fill="#ff5608" stroke="none" /><path d="M 108.92500713936063 119.00905698771935 l 1.9062974101656383 4.060155419436042 a25.485402082977632,25.485402082977632 0 0,0 -0.398703344047325,0.18302515008799716 l -1.8361260703508937 -4.0923676398581135" fill="#ff3d05" stroke="none" /><path d="M 108.59647513512805 119.15986991738527 l 1.8273197103012502 4.07273997731683 a25.4638893631552,25.4638893631552 0 0,0 -0.4014555862353821,0.17598633131343416 l -1.7569434494081142 -4.103590861924719" fill="#ff3d05" stroke="none" /><path d="M 108.2653958097858 119.30500536409082 l 2.4173848424386337 5.6461454991783455 a27.141881509305104,27.141881509305104 0 0,0 -0.4310758155376847,0.18018972585603601 l -2.319837567403488 -5.6869202680543545" fill="#ff5407" stroke="none" /><path d="M 107.93186726928326 119.44442032107085 l 2.823620156471846 6.921908207176492 a28.475670138296056,28.475670138296056 0 0,0 -0.45544654500179244,0.18123157960167335 l -2.7040525354281875 -6.9694866311842345" fill="#ff6609" stroke="none" /><path d="M 105.53697534728816 120.25689768951611 l 1.670451671275085 6.111309239777183 a27.335495987707016,27.335495987707016 0 0,0 -0.45495319515197946,0.12015727384488233 l -1.565008033311608 -6.13915786292565" fill="#ff5708" stroke="none" /><path d="M 104.83641907484287 120.43548508189849 l 14.509257224528598 61.306455245695496 a84.0,84.0 0 0,0 -1.4099194024285517,0.32089306568926235 l -13.451817672707184 -61.54712504496244" fill="#4dd2ff" stroke="none" /><path d="M 104.48393922423573 120.51570834832081 l 0.21129711898396125 0.966763787627889 a21.989585111831996,21.989585111831996 0 0,0 -0.370481093913885,0.07763791534985878 l -0.19462456364069822 -0.9702576837042889" fill="#ff0c01" stroke="none" /><path d="M 103.7750983002368 120.6578951692458 l 0.4872757922108638 2.6664450653832734 a23.710602697626772,23.710602697626772 0 0,0 -0.40212169227511246,0.06991401062670073 l -0.4413051284637014 -2.6744376545309803" fill="#ff2403" stroke="none" /><path d="M 103.41894727170886 120.7198165907248 l 1.6846648158019073 10.20955961769366 a31.34761823459109,31.34761823459109 0 0,0 -0.5331545235565537,0.083267771702963 l -1.5086744286368365 -10.23704569674373" fill="#ff8c0c" stroke="none" /><path d="M 103.06178313531738 120.77559828337769 l 2.6095990116961496 17.707322286259423 a38.898582892265665,38.898582892265665 0 0,0 -0.663260494146163,0.09192186084527142 l -2.304409926363156 -17.749618712597297" fill="#ffec16" stroke="none" /><path d="M 102.70371172650421 120.8252237178851 l 6.1280131755751 47.200758896179714 a68.59689260713677,68.59689260713677 0 0,0 -1.1722639819328995,0.1419448428250958 l -5.31462177059082 -47.29924926773016" fill="#3aff94" stroke="none" /><path d="M 101.62511606390274 120.93702456842531 l 0.7100344899312092 9.147660213522347 a30.175175004268397,30.175175004268397 0 0,0 -0.5182043717405707,0.03573840746985557 l -0.5524673574117083 -9.158526965508488" fill="#ff7d0b" stroke="none" /><path d="M 100.90346689309514 120.98055641714683 l 0.061547428776671 1.429271301082737 a22.430595868191908,22.430595868191908 0 0,0 -0.38589132318992236,0.013290877419559038 l -0.03693575391209633 -1.4301189769283897" fill="#ff1202" stroke="none" /><line stroke="#e1ed5e" stroke-width="0.3" x1="102.19456741930631" x2="102.32365962044197" y1="184.97166512339345" y2="189.96999836594603" /><path d="M 102.22038585953345 185.97133177190398 a86.0,86.0 0 0,1 -42.740103519485714,-10.115201625700543" fill="none" id="id19" stroke="none" /><text fill="#e1ed5e" style="font-size:6.75px; font-family:Arial;" text-anchor="middle"><textPath startOffset="22.20632615414155" xlink:href="#id19">July</textPath></text><path d="M 99.45781275523022 120.99299961872073 l -0.25660629033666216 9.935563418660383 a30.938876557964825,30.938876557964825 0 0,0 -0.532266021068722,-0.018332317975283716 l 0.4275926630800272 -9.929674302259006" fill="#ff870c" stroke="none" /><path d="M 98.73552117531835 120.96189622390904 l -0.5589441142395062 9.265895394177992 a30.282738603380572,30.282738603380572 0 0,0 -0.5200515831417376,-0.035865801983174926 l 0.7183584581601739 -9.25490124767853" fill="#ff7e0b" stroke="none" /><path d="M 98.37488393609728 120.93702456842531 l -0.4228575860317129 5.447844535134059 a26.464230834898412,26.464230834898412 0 0,0 -0.45386871960896036,-0.03916170290783428 l 0.5165706233822149 -5.439758579947561" fill="#ff4b06" stroke="none" /><path d="M 96.22490169976321 120.6578951692458 l -3.163425381178453 17.310730662567604 a38.597404814751584,38.597404814751584 0 0,0 -0.652539462034438,-0.12506074095590586 l 3.460932457784586 -17.253712723263227" fill="#ffe815" stroke="none" /><path d="M 95.86986931433489 120.58985236759428 l -0.031732265810983325 0.1581941875604817 a21.16134539866826,21.16134539866826 0 0,0 -0.3565268899852756,-0.07471367624243708 l 0.034450617225645706 -0.15762453059150344" fill="#ff0000" stroke="none" /><path d="M 95.51606077576429 120.51570834832081 l -6.458342375901055 29.54934533488721 a51.24688407034318,51.24688407034318 0 0,0 -0.8601663829140881,-0.19577106828993057 l 6.966028908208006 -29.433797533019593" fill="#85ff25" stroke="none" /><path d="M 95.16358092515715 120.4354850818985 l -0.21799805971632483 0.9211145742907995 a21.946559672187128,21.946559672187128 0 0,0 -0.36686988971944823,-0.09016769299296956 l 0.23382123417898362 -0.9172256229838" fill="#ff0b01" stroke="none" /><path d="M 94.81253420990036 120.34920634021253 l -7.293628270696694 28.611185626028718 a50.526207956291614,50.526207956291614 0 0,0 -0.840923455677052,-0.2220955276786627 l 7.785042169185235 -28.481398749046473" fill="#8dff24" stroke="none" /><path d="M 93.76903079525671 120.05430185196036 l -2.080890518094226 6.697321909242698 a28.013146662113712,28.013146662113712 0 0,0 -0.4592537358382249,-0.14703854346042558 l 2.1958655990233913 -6.660510519122565" fill="#ff6008" stroke="none" /><path d="M 93.42475214034765 119.94407469862007 l -0.23238454958989846 0.7048699782507 a21.742188833873996,21.742188833873996 0 0,0 -0.35442901476330246,-0.12024156521252892 l 0.24448329729042675 -0.700765426140048" fill="#ff0801" stroke="none" /><path d="M 92.7421414339146 119.70592522655815 l -1.4609894569599937 3.9667553085388514 a25.227249445108416,25.227249445108416 0 0,0 -0.40619448979522776,-0.15358799935969417 l 1.5290541675155045 -3.941019059072524" fill="#ff3a05" stroke="none" /><path d="M 91.07499286063937 119.00905698771935 l -2.9303036928445434 6.241150177118711 a27.894826703090317,27.894826703090317 0 0,0 -0.43288431670789085,-0.20781077835639483 l 3.0373006775526763 -6.189785122262754" fill="#ff5e08" stroke="none" /><path d="M 90.7491055286396 118.85261126421891 l -2.6061082256692236 5.311048076824518 a26.91599795116954,26.91599795116954 0 0,0 -0.4141809313685363,-0.20767891724327628 l 2.6971430647205206 -5.265401318671939" fill="#ff5107" stroke="none" /><path d="M 90.42595943632237 118.69057910512821 l -3.741673015239559 7.304547647539437 a29.207102612258836,29.207102612258836 0 0,0 -0.4454905084546981,-0.2330595788417854 l 3.866854426220753 -7.239058649752935" fill="#ff700a" stroke="none" /><path d="M 90.10565033884886 118.52300852407294 l -2.8329903332338144 5.3035829426106025 a27.012805190370496,27.012805190370496 0 0,0 -0.40824991213618955,-0.2226104028755206 l 2.923863057238645 -5.254031887975316" fill="#ff5207" stroke="none" /><line stroke="#e1ed5e" stroke-width="0.3" x1="58.666819895761336" x2="56.23545636021788" y1="174.27360380694188" y2="178.64263932499728" /><path d="M 58.180547188652646 175.14741091055294 a86.0,86.0 0 0,1 -31.652253787137756,-30.449443065178592" fill="none" id="id20" stroke="none" /><text fill="#e1ed5e" style="font-size:6.75px; font-family:Arial;" text-anchor="middle"><textPath startOffset="22.20632615414155" xlink:href="#id20">August</textPath></text><path d="M 89.1626897886671 117.98757091392108 l -2.198177314506315 3.6484948345122477 a25.25951852484207,25.25951852484207 0 0,0 -0.37049795739745345,-0.227590106060112 l 2.2606544718360775 -3.610116261623758" fill="#ff3a05" stroke="none" /><path d="M 88.8546689885994 117.79835938074946 l -15.436388110719077 24.650894877350108 a50.085197199931706,50.085197199931706 0 0,0 -0.7267557635660792,-0.46384991356672 l 15.85842567633208 -24.381530534959584" fill="#92ff23" stroke="none" /><path d="M 88.54995079064634 117.60387380957326 l -1.2843917245254168 1.9746875692145531 a23.3556428205566,23.3556428205566 0 0,0 -0.3351260051917174,-0.22210324237854737 l 1.318192428457096 -1.9522863057446873" fill="#ff1f03" stroke="none" /><path d="M 88.24862548938628 117.40417183066458 l -16.606816941155827 24.59524163264653 a50.67679699504866,50.67679699504866 0 0,0 -0.7187492902066022,-0.4943623157100326 l 17.02772311598532 -24.305738527571396" fill="#8bff24" stroke="none" /><path d="M 87.95078237400918 117.19931262002967 l -6.56051818495556 9.364624883946497 a32.43401058562404,32.43401058562404 0 0,0 -0.45449728398138445,-0.3242717444693857 l 6.7207427967858315 -9.250308877632893" fill="#ff9b0e" stroke="none" /><path d="M 87.65650970185807 116.9893568818739 l -0.24657475924237746 0.3393810406657408 a21.419498036537476,21.419498036537476 0 0,0 -0.29642038359561157,-0.21928471337350755 l 0.2523801132565533 -0.3350863785524666" fill="#ff0400" stroke="none" /><path d="M 87.07902340077011 116.55440617244103 l -4.897484727725856 6.274676746255607 a28.959706334300837,28.959706334300837 0 0,0 -0.39032513766807214,-0.3100978959502407 l 5.004767358111287 -6.1894449363002355" fill="#ff6d0a" stroke="none" /><path d="M 86.51685102203217 116.09983520530335 l -3.743144995420129 4.469580338709789 a26.8299470718798,26.8299470718798 0 0,0 -0.35151641433735453,-0.2995699142840454 l 3.81952688633454 -4.404486034202791" fill="#ff5007" stroke="none" /><path d="M 85.70375840098266 115.38237550388516 l -2.680087634577605 2.883702971361773 a24.93682772750555,24.93682772750555 0 0,0 -0.3119052879992945,-0.29492591794981243 l 2.7293287569677167 -2.8371424166660297" fill="#ff3605" stroke="none" /><path d="M 85.44109423537348 115.13401014063109 l -2.6995000273833707 2.8061353957188606 a24.89380228786068,24.89380228786068 0 0,0 -0.30625309555316044,-0.2997331117310225 l 2.7474030753123255 -2.7592521810652686" fill="#ff3505" stroke="none" /><path d="M 85.18274418774928 114.88116024355367 l -4.43986408579478 4.459012502550227 a27.29247054806215,27.29247054806215 0 0,0 -0.3300561314798158,-0.33434511863055844 l 4.515960842330129 -4.381926889939003" fill="#ff5608" stroke="none" /><path d="M 84.9287848128048 114.62390073753433 l -0.856874621365203 0.8314425380909894 a22.193955950145124,22.193955950145124 0 0,0 -0.26367840993072444,-0.27646575863997336 l 0.8710595826748849 -0.816569662868516" fill="#ff0f01" stroke="none" /><path d="M 84.67929136418377 114.36230785411682 l -4.080639486404871 3.8253713936182767 a26.59330715383302,26.59330715383302 0 0,0 -0.31019648145734646,-0.336657016072807 l 4.145882375857946 -3.7545631227441256" fill="#ff4c07" stroke="none" /><path d="M 84.43433777217949 114.09645910891817 l -0.8451221766171976 0.7653532519439956 a22.14017415058904,22.14017415058904 0 0,0 -0.2533902344923188,-0.2846866146235554 l 0.8581712607578545 -0.7506924675795761" fill="#ff0e01" stroke="none" /><path d="M 84.19399662182784 113.82643327865904 l -0.15382315051319914 0.1345580838114324 a21.204370838313128,21.204370838313128 0 0,0 -0.2379508960898778,-0.27679064974538325 l 0.1561165561738557 -0.13189033490451885" fill="#ff0100" stroke="none" /><path d="M 83.95833913139862 113.55231037782056 l -6.893778454203467 5.8239995255206365 a30.024585965511356,30.024585965511356 0 0,0 -0.3301331905227124,-0.39766669505367325 l 6.993007644619715 -5.704471573353202" fill="#ff7b0b" stroke="none" /><path d="M 83.72743513129214 113.27417163493432 l -9.476817272863666 7.730612847321323 a33.229981219054125,33.229981219054125 0 0,0 -0.35774778744673874,-0.4463453710767782 l 9.608482972365266 -7.566339642666285" fill="#ffa50f" stroke="none" /><path d="M 83.50135304334701 112.99209946851258 l -6.760586084337916 5.323721824215503 a29.605087928973877,29.605087928973877 0 0,0 -0.31183064883565115,-0.4030831488145591 l 6.851223550391636 -5.206560681287691" fill="#ff750a" stroke="none" /><path d="M 83.06392112726016 112.41649034213515 l -6.150425091739396 4.50911301992854 a28.6262591770531,28.6262591770531 0 0,0 -0.287925924137468,-0.3999039259139684 l 6.227130808252471 -4.402575488563434" fill="#ff6809" stroke="none" /><path d="M 82.85270091963577 112.12312394758628 l -5.032645914144804 3.558075817978628 a27.16339422912754,27.16339422912754 0 0,0 -0.26663987832331804,-0.38411463166658577 l 5.093146699630256 -3.4709199241250297" fill="#ff5407" stroke="none" /><path d="M 82.6465618267979 111.8261652097733 l -4.746492735781076 3.2346793010170436 a26.743896192590064,26.743896192590064 0 0,0 -0.25597333732992356,-0.3826454083897528 l 4.80146917852173 -3.15249697842147" fill="#ff4f07" stroke="none" /><path d="M 82.44556493220864 111.52570212397912 l -8.703786825485084 5.714638717438169 a31.412156394058393,31.412156394058393 0 0,0 -0.2928736882283939,-0.45454646800208154 l 8.800865377090522 -5.56397064951464" fill="#ff8d0d" stroke="none" /><path d="M 82.24976979558568 111.22182372390057 l -0.9728229290792209 0.6150256812996553 a22.150930510500256,22.150930510500256 0 0,0 -0.2009778822146779,-0.3240403388808943 l 0.9832654509618547 -0.5981890110534969" fill="#ff0e01" stroke="none" /><path d="M 82.05923443525364 110.91462005526583 l -6.432577716572883 3.9133860536210086 a28.529451937852144,28.529451937852144 0 0,0 -0.2516285764161122,-0.42174396772207856 l 6.4989871686872265 -3.802079992012819" fill="#ff6709" stroke="none" /><line stroke="#e1ed5e" stroke-width="0.3" x1="26.63291911575756" x2="22.317208475507996" y1="142.92168965132927" y2="145.44649492493687" /><path d="M 25.769776987707644 143.4266507060508 a86.0,86.0 0 0,1 -11.730757126820373,-40.83630448921669" fill="none" id="id21" stroke="none" /><text fill="#e1ed5e" style="font-size:6.75px; font-family:Arial;" text-anchor="middle"><textPath startOffset="21.46611528233685" xlink:href="#id21">September</textPath></text><path d="M 81.87401531095188 110.60418214915194 l -5.217758269717458 3.0525270793017194 a27.04507427010415,27.04507427010415 0 0,0 -0.23161917244709213,-0.4038475503996569 l 5.269529438316927 -2.9622596830437553" fill="#ff5307" stroke="none" /><path d="M 81.69416730710424 110.29060199501025 l -8.054316347890108 4.527724319812431 a30.2397131637357,30.2397131637357 0 0,0 -0.25116758796071526,-0.45594212870629414 l 8.13106034530234 -4.3884116727083144" fill="#ff7e0b" stroke="none" /><path d="M 81.18737489456691 109.33194174019688 l -0.5299783408564911 0.2628940391211354 a21.591599795116956,21.591599795116956 0 0,0 -0.16229351010178633,-0.3343727005595109 l 0.5344251075729964 -0.25373238259633973" fill="#ff0601" stroke="none" /><path d="M 81.02952815118164 109.00673069616217 l -22.97056280550109 10.90587913559537 a46.42803483011781,46.42803483011781 0 0,0 -0.3365488281613598,-0.7248962350702524 l 23.154886250502273 -10.50886283324629" fill="#baff1f" stroke="none" /><path d="M 80.87730276802145 108.67885076344099 l -5.524262201896482 2.5071906251907397 a27.066586989926584,27.066586989926584 0 0,0 -0.18889760139381392,-0.4259142236326855 l 5.566600888021576 -2.411728065065358" fill="#ff5307" stroke="none" /><path d="M 80.73074385275274 108.34839909993369 l -0.48362312679620234 0.20952956593653005 a21.527061635649652,21.527061635649652 0 0,0 -0.1443840718663806,-0.3412812955267855 l 0.4871581798548896 -0.20117374474358574" fill="#ff0500" stroke="none" /><path d="M 80.58989483394504 108.01547362559985 l -8.788731244728993 3.629338578639369 a30.50862216151613,30.50862216151613 0 0,0 -0.19626833793475962,-0.4871219189048265 l 8.84990219692114 -3.477517291891737" fill="#ff810b" stroke="none" /><path d="M 80.45479744820244 107.68017299344265 l -2.3326099681930152 0.9165854400574375 a23.50623185931364,23.50623185931364 0 0,0 -0.1447376306957409,-0.37786428134570893 l 2.3480418784822654 -0.8762975918785707" fill="#ff2103" stroke="none" /><path d="M 80.32549172779594 107.34259656027581 l -4.2627541399055735 1.5908750273160324 a25.549940242444936,25.549940242444936 0 0,0 -0.1502284644146783,-0.4133642135110823 l 4.2895068653254755 -1.5172630167988328" fill="#ff3e05" stroke="none" /><path d="M 80.20201598880116 107.00284435728193 l -11.742905319259817 4.153642017619501 a33.45586477718969,33.45586477718969 0 0,0 -0.18736745031052335,-0.5445775153617503 l 11.81266360051357 -3.9508917991684545" fill="#ffa80f" stroke="none" /><path d="M 80.0844068197444 106.66101706037122 l -5.9267336372179455 1.982269546905761 a27.249445108417277,27.249445108417277 0 0,0 -0.14495115114845572,-0.4461137715842059 l 5.95997703938265 -1.8799568753437517" fill="#ff5507" stroke="none" /><path d="M 79.86692584326677 105.97154293290107 l -4.052739359875101 1.202057216645103 a25.227249445108416,25.227249445108416 0 0,0 -0.11989834503489359,-0.41738186825160706 l 4.072830341796099 -1.1321178728888999" fill="#ff3a05" stroke="none" /><path d="M 79.76711848015287 105.62410040840567 l -6.5393281060390285 1.817726152144773 a27.787263103978145,27.787263103978145 0 0,0 -0.12413221928482919,-0.46194216627788515 l 6.569648401665633 -1.7048930526913488" fill="#ff5d08" stroke="none" /><path d="M 79.58551787078972 104.9243191809786 l -7.727318914198261 1.8639603251202943 a28.94894997438962,28.94894997438962 0 0,0 -0.11267956132434653,-0.4854206010871797 l 7.7582590414531625 -1.7306710666845404" fill="#ff6c0a" stroke="none" /><path d="M 79.50377843672027 104.57218783832718 l -0.16797313215595344 0.03747055083484766 a21.172101758579476,21.172101758579476 0 0,0 -0.07628606818032735,-0.35638311359869435 l 0.16859323906072154 -0.03457361781998954" fill="#ff0000" stroke="none" /><path d="M 79.29508885075956 103.50808413554451 l -0.8059961997655503 0.13656192298175682 a21.81748335325252,21.81748335325252 0 0,0 -0.059549517621913226,-0.3708149030761132 l 0.8082274717487543 -0.12266779021242995" fill="#ff0901" stroke="none" /><path d="M 79.18660465613746 102.79330883721812 l -0.2558587100491893 0.03433809736720244 a21.258152637869216,21.258152637869216 0 0,0 -0.04555165642401186,-0.36309152037390374 l 0.2564118757200493 -0.02992882270589007" fill="#ff0100" stroke="none" /><path d="M 79.1416061653843 102.43462659150553 l -25.117679992409855 2.9317775908978176 a46.28820215127198,46.28820215127198 0 0,0 -0.08556197500792559,-0.7921976241194234 l 25.164424268918832 -2.4989836448936122" fill="#bcff1f" stroke="none" /><path d="M 79.10278846688536 102.07522291339032 l -0.18196308488797214 0.018070064637682536 a21.182858118490696,21.182858118490696 0 0,0 -0.032909490386723396,-0.363153484113893 l 0.18224717155177086 -0.014935191975223387" fill="#ff0000" stroke="none" /><path d="M 79.07016306316243 101.71520430193888 l -10.54889510629068 0.8644840531541019 a31.58425815263787,31.58425815263787 0 0,0 -0.039741180591748325,-0.542236834659388 l 10.562212845546762 -0.6827740819979533" fill="#ff8f0d" stroke="none" /><path d="M 79.04373962182676 101.35467743843564 l -7.889457765728526 0.5099989331996907 a28.90592453474475,28.90592453474475 0 0,0 -0.027823534086515278,-0.4968078919077517 l 7.897067650702573 -0.37411932495650135" fill="#ff6c09" stroke="none" /><path d="M 79.0235259727143 100.99374915477108 l -8.230141252296834 0.3898985073696328 a29.23937169199249,29.23937169199249 0 0,0 -0.01948994478375567,-0.5029488732458351 l 8.23563332993179 -0.24817238710980088" fill="#ff700a" stroke="none" /><path d="M 79.0095281055655 100.63252640178507 l -9.99887597498246 0.30130590079910546 a31.003414717432133,31.003414717432133 0 0,0 -0.01148298172490021,-0.533569039245818 l 10.002581019392368 -0.12914704576315864" fill="#ff880c" stroke="none" /><line stroke="#e1ed5e" stroke-width="0.3" x1="15.007084014347285" x2="10.007500721073583" y1="101.09737516637583" y2="101.16192664675087" /><path d="M 14.007167355692545 101.11028546245083 a86.0,86.0 0 0,1 10.666146001902534,-42.60595125391555" fill="none" id="id22" stroke="none" /><text fill="#e1ed5e" style="font-size:6.75px; font-family:Arial;" text-anchor="middle"><textPath startOffset="22.20632615414155" xlink:href="#id22">October</textPath></text><path d="M 79.03285615573316 98.82574320788736 l -0.23626967623725523 -0.013232191954829107 a21.23663991804678,21.23663991804678 0 0,0 0.02358218533052087,-0.36480596934085896 l 0.23600689990232118 0.017297225548699873" fill="#ff0100" stroke="none" /><path d="M 79.05617556472873 98.46500227214037 l -9.1399035780354 -0.6698743712496535 a30.164418644357177,30.164418644357177 0 0,0 0.04241047765521104,-0.5175152491942906 l 9.127018616560692 0.8271035376517225" fill="#ff7d0b" stroke="none" /><path d="M 79.08570108090925 98.10471618934814 l -7.038088299390113 -0.6378016716398848 a28.066928461669796,28.066928461669796 0 0,0 0.04774435037724328,-0.4807790926490899 l 7.026066823330641 0.758856294993405" fill="#ff6108" stroke="none" /><path d="M 79.12142395522702 97.74499172005258 l -28.018713968228738 -3.026184920673853 a49.18166296738945,49.18166296738945 0 0,0 0.09815172065046456,-0.8409040022874973 l 27.962471894574684 3.5080326612862116" fill="#9cff22" stroke="none" /><path d="M 79.16333360222342 97.38593545837743 l -10.245791228546448 -1.2853860132957111 a31.326105514768653,31.326105514768653 0 0,0 0.07172783271840627,-0.5344556676423204 l 10.22214739677021 1.4615600230026908" fill="#ff8c0c" stroke="none" /><path d="M 79.21141760316559 97.0276538004421 l -1.522674039310562 -0.2177115450931091 a22.53815946730408,22.53815946730408 0 0,0 0.05821725351554486,-0.3835789618410977 l 1.5187008923557148 0.24388961932629888" fill="#ff1402" stroke="none" /><path d="M 79.26566170972629 96.67025291283419 l -7.880252182712873 -1.2654971855952017 a28.981219054123272,28.981219054123272 0 0,0 0.08333913664538796,-0.4918723020391263 l 7.8573011845472625 1.400955275950156" fill="#ff6d0a" stroke="none" /><path d="M 79.32604984820605 96.31383870115002 l -0.7200761193385634 -0.12838943229731892 a21.73143247396278,21.73143247396278 0 0,0 0.0688309761622552,-0.36769782695908265 l 0.7177594192664466 0.14076533671897426" fill="#ff0801" stroke="none" /><path d="M 79.46518482838121 95.60439243477599 l -3.5656320692395957 -0.76324618300031 a24.64640600990268,24.64640600990268 0 0,0 0.0923719282479074,-0.41408524202041663 l 3.5519657539896508 0.8245095945706858" fill="#ff3204" stroke="none" /><path d="M 79.54389044137918 95.25157060432595 l -3.4471880031345004 -0.8001877776216983 a24.538842410790508,24.538842410790508 0 0,0 0.09905185504780327,-0.41063388672069123 l 3.4329033478258824 0.8594068960017864" fill="#ff3004" stroke="none" /><path d="M 79.62865764111835 94.90015583598534 l -6.89710976569273 -1.7266503290491817 a28.109953901314668,28.109953901314668 0 0,0 0.12154699643790173,-0.4683701594155554 l 6.866366437384521 1.845116914013601" fill="#ff6109" stroke="none" /><path d="M 79.91906864156998 93.8553929516997 l -0.7302780227668767 -0.22345933093528528 a21.763701553696432,21.763701553696432 0 0,0 0.11269919985094803,-0.35728726136104905 l 0.7263233391477248 0.23599675872274878" fill="#ff0901" stroke="none" /><path d="M 80.02781315780177 93.51064311812611 l -9.636571626438819 -3.1311119255891433 a31.132491036366737,31.132491036366737 0 0,0 0.16998741304075468,-0.5082407285855346 l 9.581246919626293 3.296525757097" fill="#ff8a0c" stroke="none" /><path d="M 80.2630227832202 92.82701384747504 l -3.447315638170693 -1.2528538217573901 a24.667918729725116,24.667918729725116 0 0,0 0.14847198755485783,-0.39783111101897406 l 3.4252390621142075 1.3120080698057057" fill="#ff3204" stroke="none" /><path d="M 80.38941819471856 92.48833698450439 l -9.793572098420386 -3.7513427215852277 a31.487450913436913,31.487450913436913 0 0,0 0.19823067183523796,-0.5044754377676978 l 9.727547876703456 3.919367164248689" fill="#ff8e0d" stroke="none" /><path d="M 80.803312248108 91.48605970444005 l -2.527001238980493 -1.1207525982374458 a23.76438449718286,23.76438449718286 0 0,0 0.16906399917481738,-0.3725101118993946 l 2.507334922842324 1.1640847189789114" fill="#ff2503" stroke="none" /><path d="M 80.95270993114464 91.15688171328213 l -5.775650872850797 -2.6814714149241827 a27.36776506744067,27.36776506744067 0 0,0 0.20205465364622,-0.42557863094004056 l 5.728638025362825 2.7804924615047555" fill="#ff5708" stroke="none" /><path d="M 81.10775173730289 90.83032412892265 l -6.609222586693936 -3.2078992419049808 a28.34659381936145,28.34659381936145 0 0,0 0.21683792685509964,-0.43713202891022884 l 6.553024646885423 3.321190859314171" fill="#ff6409" stroke="none" /><path d="M 81.26839172434947 90.50648371742162 l -1.0553919636272278 -0.5348916464488415 a22.183199590233908,22.183199590233908 0 0,0 0.17555421496301427,-0.33911486552421105 l 1.0460283155040995 0.5529792342333881" fill="#ff0f01" stroke="none" /><path d="M 81.43458229118936 90.18545643968196 l -6.951333623940879 -3.674798365678243 a28.86289909509988,28.86289909509988 0 0,0 0.23597742893824517,-0.4372303370622494 l 6.887048095784162 3.793909686072965" fill="#ff6b09" stroke="none" /><path d="M 81.6062741919709 89.86733742301443 l -5.935486046982247 -3.2697169661093954 a27.77650674406693,27.77650674406693 0 0,0 0.23430456768098679,-0.4168016814982455 l 5.8783238380088285 3.371402157542425" fill="#ff5d08" stroke="none" /><line stroke="#e1ed5e" stroke-width="0.3" x1="26.266209847984243" x2="21.928928074336255" y1="57.711370442889674" y2="55.22380399835377" /><path d="M 25.398753493254645 57.213857153982495 a86.0,86.0 0 0,1 29.58750427330803,-30.492523968695096" fill="none" id="id23" stroke="none" /><text fill="#e1ed5e" style="font-size:6.75px; font-family:Arial;" text-anchor="middle"><textPath startOffset="21.46611528233685" xlink:href="#id23">November</textPath></text><path d="M 81.78341655067845 89.55222093294921 l -6.400841512498503 -3.6710823493239744 a28.3788628990951,28.3788628990951 0 0,0 0.24668032722680175,-0.42165664183352336 l 6.336701510801376 3.78071840351139" fill="#ff6509" stroke="none" /><path d="M 81.96595687620814 89.24020034530311 l -6.623053911435257 -3.9515671943406208 a28.712310056342837,28.712310056342837 0 0,0 0.2568852121092666,-0.42225174528901277 l 6.554052901039773 4.064986712836708" fill="#ff6909" stroke="none" /><path d="M 82.15384107792192 88.93136811851018 l -6.097005976281074 -3.781514836069854 a28.174492060781972,28.174492060781972 0 0,0 0.25916830266334734,-0.4099420154109091 l 6.031010077371764 3.8859044991949787" fill="#ff6209" stroke="none" /><path d="M 82.34701348167596 88.62581576622439 l -6.1123880244427475 -3.9383379931871145 a28.27129929998293,28.27129929998293 0 0,0 0.2671009954247565,-0.406813140777889 l 6.0436903936600705 4.0429691979426705" fill="#ff6309" stroke="none" /><path d="M 82.95767976084542 87.72973835380427 l -5.9707770412745775 -4.298886272493366 a28.357350179272665,28.357350179272665 0 0,0 0.2886202830168471,-0.393677741676985 l 5.895894145744097 4.401026457841852" fill="#ff6509" stroke="none" /><path d="M 83.39014120810768 87.1503855733568 l -5.989418092620212 -4.633495931205471 a28.57247737749701,28.57247737749701 0 0,0 0.3042913320380134,-0.3864190904196965 l 5.9087726799882265 4.7359074155782155" fill="#ff6709" stroke="none" /><path d="M 83.6137871275137 86.86637796730984 l -5.648585246636476 -4.527366037903609 a28.239030220249276,28.239030220249276 0 0,0 0.3072695708393943,-0.37667616188607556 l 5.56981718372069 4.6239263693977675" fill="#ff6309" stroke="none" /><path d="M 83.84228863543731 86.58626213691792 l -5.536712772524726 -4.596443894691093 a28.196004780604405,28.196004780604405 0 0,0 0.31322993606577687,-0.3707654464942176 l 5.456772222971824 4.691068290814426" fill="#ff6209" stroke="none" /><line stroke="#e1ed5e" stroke-width="0.3" x1="56.762969772571076" x2="54.21961505331055" y1="26.818313649435495" y2="22.513508569990535" /><path d="M 56.25429882871897 25.957352633546506 a86.0,86.0 0 0,1 42.265352541879196,-11.944610805530505" fill="none" id="id24" stroke="none" /><text fill="#e1ed5e" style="font-size:6.75px; font-family:Arial;" text-anchor="middle"><textPath startOffset="22.20632615414155" xlink:href="#id24">December</textPath></text></svg>