<?xml version="1.0" encoding="utf-8" ?>
<svg baseProfile="full" height="200mm" version="1.1" viewBox="0,0,200,200" width="200mm" xmlns="http://www.w3.org/2000/svg" xmlns:ev="http://www.w3.org/2001/xml-events" xmlns:xlink="http://www.w3.org/1999/xlink"><defs /><rect fill="#1a1a1a" height="200" width="200" x="0" y="0" /><text alignment-baseline="middle" fill="#e1ed5e" style="dominant-baseline: central; font-size:9.0px; font-family:Arial;" text-anchor="middle" x="100.0" y="100.0">2024</text><line stroke="#e1ed5e" stroke-width="0.3" x1="100.0" x2="100.0" y1="15.0" y2="10.0" /><path d="M 100.0 14.0 a86.0,86.0 0 0,1 42.35913384403234,11.155469271406648" fill="none" id="id37" stroke="none" /><text fill="#e1ed5e" style="font-size:6.75px; font-family:Arial;" text-anchor="middle"><textPath startOffset="22.145653131862478" xlink:href="#id37">January</textPath></text><line stroke="#e1ed5e" stroke-width="0.3" x1="143.13028292997686" x2="145.6673583964461" y1="26.7553504044142" y2="22.446841604673864" /><path d="M 143.63769802327073 25.89364864446614 a86.0,86.0 0 0,1 29.32050498858742,28.57503671076993" fill="none" id="id38" stroke="none" /><text fill="#e1ed5e" style="font-size:6.75px; font-family:Arial;" text-anchor="middle"><textPath startOffset="20.669276256404974" xlink:href="#id38">February</textPath></text><path d="M 117.21940702142032 87.97951657250589 l 35.52846844219779 -24.80163025256487 a64.32889258950874,64.32889258950874 0 0,0 0.6243280251926888,0.9109132470252214 l -35.94898620420581 24.1880822704696" fill="#34ff59" stroke="none" /><path d="M 117.42321728460499 88.27688183743584 l 25.199107762996565 -16.95508430339213 a51.3721898417985,51.3721898417985 0 0,0 0.48601898289001816,0.7358946856285142 l -25.486451184807308 16.520009739424555" fill="#96ff23" stroke="none" /><path d="M 117.62189284568427 88.57770195909679 l 32.66139340091023 -21.170720598709877 a59.9225645295587,59.9225645295587 0 0,0 0.5520931480416945,0.8679821289560293 l -33.02000424057781 20.606924795075177" fill="#3aff2e" stroke="none" /><path d="M 117.81537515405839 88.88188828441811 l 27.056822881767264 -16.885458592190982 a52.89342214820982,52.89342214820982 0 0,0 0.4741065008512972,0.7744173386538068 l -27.342697347073962 16.41850413741262" fill="#84ff25" stroke="none" /><line stroke="#e1ed5e" stroke-width="0.3" x1="172.87174338648825" x2="177.1583165268699" y1="56.24261187166439" y2="53.66864786411523" /><path d="M 173.72905801456457 55.72781907015455 a86.0,86.0 0 0,1 12.242430191666344,42.057860355516425" fill="none" id="id39" stroke="none" /><text fill="#e1ed5e" style="font-size:6.75px; font-family:Arial;" text-anchor="middle"><textPath startOffset="22.145653131862474" xlink:href="#id39">March</textPath></text><path d="M 118.00360718960297 89.18935116829356 l 27.207782722006165 -16.33749178147144 a52.736053288925895,52.736053288925895 0 0,0 0.459371931930575,0.7801139687149323 l -27.48422836406651 15.868026644462951" fill="#86ff25" stroke="none" /><path d="M 118.53625476483649 90.13048839642627 l 33.4300814493221 -17.799635414938123 a58.87343880099917,58.87343880099917 0 0,0 0.4673203428487607,0.896148375909371 l -33.730709861145804 17.223140795924255" fill="#44ff2d" stroke="none" /><path d="M 118.70294669586156 90.45014215332178 l 38.168961158664985 -19.489343532230073 a63.85678601165694,63.85678601165694 0 0,0 0.4901163005418288,0.9805609169775048 l -38.49789737241855 18.831250759088817" fill="#33ff53" stroke="none" /><path d="M 118.8641267826498 90.77261029715802 l 27.04748236446543 -13.230278991085662 a51.10990840965862,51.10990840965862 0 0,0 0.37875056534819096,0.79144301121041 l -27.270612187773533 12.764023477810147" fill="#98ff23" stroke="none" /><path d="M 119.0197475246899 91.09779779509293 l 30.35874771426356 -14.209426833311294 a54.5195670274771,54.5195670274771 0 0,0 0.38946581064275576,0.8510530836424768 l -30.598197989761367 13.686184767454133" fill="#73ff27" stroke="none" /><path d="M 119.16976305983485 91.42560881287824 l 30.933389517035746 -13.836111674139856 a54.88676103247293,54.88676103247293 0 0,0 0.3773232675676354,0.8633894779130797 l -31.16634666662035 13.303060126450928" fill="#6fff28" stroke="none" /><path d="M 119.4528033332814 92.08871423366111 l 22.01195647787629 -8.952071071152831 a44.762697751873446,44.762697751873446 0 0,0 0.2833720167249971,0.71428259444902 l -22.16238716956741 8.572887459490246" fill="#e3ff1b" stroke="none" /><path d="M 119.58574465831526 92.42381321644754 l 32.77880663048601 -12.679546573638993 a56.14571190674438,56.14571190674438 0 0,0 0.3400005614253382,0.9018918836774018 l -32.991637875725786 12.114986409767432" fill="#61ff29" stroke="none" /><path d="M 119.71291397450082 92.76114493625339 l 35.89687165881209 -13.1818284965977 a59.240632805995006,59.240632805995006 0 0,0 0.34235395827736914,0.9576249523575803 l -36.1178657871334 12.563668587859203" fill="#41ff2d" stroke="none" /><path d="M 119.83427380445688 93.10060997987247 l 28.43848417258515 -9.892381028026314 a51.10990840965862,51.10990840965862 0 0,0 0.2811399773055597,0.8311403876036849 l -28.604109571463074 9.402738965948467" fill="#98ff23" stroke="none" /><path d="M 119.94978838288452 93.4421083053983 l 33.33823920437072 -10.958941408047952 a56.093255620316405,56.093255620316405 0 0,0 0.2928476201386836,0.9173409990991095 l -33.52145154028666 10.385031375257455" fill="#62ff29" stroke="none" /><path d="M 120.05942366710727 93.78553927170692 l 31.617393007355577 -9.795149174570184 a54.09991673605329,54.09991673605329 0 0,0 0.2672115453028951,0.8894603284681944 l -31.780880872662102 9.250951242511267" fill="#77ff27" stroke="none" /><path d="M 120.16314734710363 94.1308016681162 l 60.48944204131091 -17.607594995651397 a84.0,84.0 0 0,0 0.3911260317016718,1.3879683043879474 l -60.782786565087164 16.56661876736044" fill="#4dd2ff" stroke="none" /><path d="M 120.35273937422433 94.82641323984039 l 38.282130096896545 -9.731167769525863 a60.49958368026645,60.49958368026645 0 0,0 0.24721994858753743,1.00874175425145 l -38.44353757200037 9.072570190666319" fill="#34ff2f" stroke="none" /><path d="M 120.43855184770803 95.1765574152323 l 36.80981485977725 -8.687016078977976 a58.82098251457119,58.82098251457119 0 0,0 0.2234893103413907,0.9847351379093385 l -36.95351503167631 8.05384660712961" fill="#45ff2d" stroke="none" /><path d="M 120.51834098615036 95.52812308129327 l 28.958024955474496 -6.311266758707669 a50.637801831806826,50.637801831806826 0 0,0 0.17781654409045272,0.850916533786402 l -29.062099210389317 5.813233773635862" fill="#9eff22" stroke="none" /><path d="M 120.592083275326 95.88100663000786 l 32.30265186570707 -6.461435061669596 a53.94254787676936,53.94254787676936 0 0,0 0.17383296278896415,0.9095675161300789 l -32.40881112077819 5.905964980506203" fill="#79ff26" stroke="none" /><path d="M 120.65975698304385 96.23510406497455 l 34.62788576758306 -6.310354302419845 a56.19816819317236,56.19816819317236 0 0,0 0.16480830689422057,0.9505705180626272 l -34.73110889196952 5.714990751436625" fill="#60ff29" stroke="none" /><path d="M 120.7213421655516 96.59031103205396 l 34.93814977955204 -5.749059250700032 a56.40799333888426,56.40799333888426 0 0,0 0.149020538186475,0.9568187552782436 l -35.03169180987678 5.148452313490347" fill="#5eff2a" stroke="none" /><path d="M 120.82617615685814 97.30363454192243 l 37.61197009510848 -4.869622546686304 a58.92589508742714,58.92589508742714 0 0,0 0.12126925004573978,1.0042833545113226 l -37.69002143141388 4.223245515251568" fill="#44ff2d" stroke="none" /><path d="M 120.86939407059847 97.66154086499901 l 32.633407214474545 -3.6566413451555766 a53.83763530391341,53.83763530391341 0 0,0 0.09503011119812672,0.9193301214744831 l -32.691369718154334 3.095906701398162" fill="#7aff26" stroke="none" /><line stroke="#e1ed5e" stroke-width="0.3" x1="184.99686870605535" x2="189.99668451229388" y1="99.2704041080226" y2="99.22748670261217" /><path d="M 185.99683186730306 99.26182062694052 a86.0,86.0 0 0,1 -10.086455211305974,41.156179273409016" fill="none" id="id40" stroke="none" /><text fill="#e1ed5e" style="font-size:6.75px; font-family:Arial;" text-anchor="middle"><textPath startOffset="21.40746469413373" xlink:href="#id40">April</textPath></text><path d="M 120.99922638620191 99.81974689727618 l 5.140526692375819 -0.044125239134725616 a26.140716069941714,26.140716069941714 0 0,0 0.0,0.44875668371710437 l -5.140526692375819 -0.04412523913472499" fill="#ff1e03" stroke="none" /><path d="M 120.99922638620191 100.18025310272382 l 5.192981046379657 0.044575496676916085 a26.193172356369693,26.193172356369693 0 0,0 -0.007718963751202995,0.44959094078129197 l -5.191450651029786 -0.13371335342727908" fill="#ff1f03" stroke="none" /><path d="M 120.99303781780057 100.54070618675476 l 5.086572860099889 0.13101207356006125 a26.088259783513738,26.088259783513738 0 0,0 -0.015373827644218204,0.44759221754400236 l -5.083574345458826 -0.2183105556681743" fill="#ff1d02" stroke="none" /><path d="M 120.98066250479742 100.90099992219065 l 7.966013407316923 0.3420948913563144 a28.973355537052456,28.973355537052456 0 0,0 -0.025604734613204897,0.4967250111363508 l -7.958967083247145 -0.47879169586939585" fill="#ff4706" stroke="none" /><path d="M 120.96210409425399 101.26102812881392 l 6.3357566912691095 0.38114338947497967 a27.34721065778518,27.34721065778518 0 0,0 -0.03221246023133775,0.468362102100422 l -6.328280269872706 -0.4898489157297451" fill="#ff3004" stroke="none" /><path d="M 120.93736805541906 101.62068470465957 l 5.125384020227479 0.39673713835962815 a26.140716069941714,26.140716069941714 0 0,0 -0.03847213494327852,0.4471045247072375 l -5.11781826258646 -0.484662710442523" fill="#ff1e03" stroke="none" /><path d="M 120.9064616781168 101.97986365728391 l 5.11781826258646 0.484662710442523 a26.140716069941714,26.140716069941714 0 0,0 -0.046141609691847815,0.4463782174746191 l -5.108744260412946 -0.5724454502000735" fill="#ff1e03" stroke="none" /><path d="M 120.86939407059847 102.33845913500097 l 5.369394477780952 0.6016518507204853 a26.402997502081597,26.402997502081597 0 0,0 -0.05433726040625135,0.44999046448430724 l -5.358275131115038 -0.6937359921282011" fill="#ff2203" stroke="none" /><path d="M 120.82617615685814 102.69636545807757 l 5.254230953811835 0.6802653903393042 a26.298084929225645,26.298084929225645 0 0,0 -0.06180736644543201,0.44720731429398175 l -5.241779070811193 -0.7703610128333711" fill="#ff2003" stroke="none" /><path d="M 120.77682067341334 103.0534771498775 l 10.275962930897188 1.5102126786238363 a31.386344712739383,31.386344712739383 0 0,0 -0.08291750342365511,0.5323898529833857 l -10.248523935335266 -1.6863907135386726" fill="#ff6a09" stroke="none" /><path d="M 120.7213421655516 103.40968896794604 l 6.00418573989339 0.9879864786388185 a27.084929225645297,27.084929225645297 0 0,0 -0.07943001474148963,0.45813121732390444 l -5.986340907659666 -1.0909107288833109" fill="#ff2c04" stroke="none" /><path d="M 120.65975698304385 103.76489593502545 l 5.109032326364716 0.9310358806848947 a26.193172356369693,26.193172356369693 0 0,0 -0.08440900429752328,0.4416635783348001 l -5.0922970297850325 -1.0186020240530094" fill="#ff1f03" stroke="none" /><path d="M 120.592083275326 104.11899336999214 l 14.968267026943883 2.994072616155815 a36.26477935054122,36.26477935054122 0 0,0 -0.12734513551229648,0.6093925728843144 l -14.914664180607222 -3.2505816403255383" fill="#ffad10" stroke="none" /><path d="M 120.51834098615036 104.47187691870673 l 4.920301585354959 1.0723568297981156 a26.035803497085762,26.035803497085762 0 0,0 -0.09892258712792523,0.43587117132789654 l -4.90116813666937 -1.1566623350650291" fill="#ff1c02" stroke="none" /><path d="M 120.43855184770803 104.8234425847677 l 5.054329640940289 1.1928080330358117 a26.193172356369693,26.193172356369693 0 0,0 -0.10703337658500316,0.43673270169614226 l -5.03310873783899 -1.2793965593400534" fill="#ff1f03" stroke="none" /><path d="M 120.35273937422433 105.17358676015961 l 5.03310873783899 1.2793965593400534 a26.193172356369693,26.193172356369693 0 0,0 -0.11451470254330895,0.4348309778930398 l -5.01040455449095 -1.3656080416058964" fill="#ff1f03" stroke="none" /><path d="M 120.26092885502905 105.52220625578681 l 12.601926606749966 3.4347111349481634 a34.0616153205662,34.0616153205662 0 0,0 -0.15859981468669337,0.562814791204779 l -12.541108299988693 -3.6505338500559508" fill="#ff8f0d" stroke="none" /><path d="M 120.16314734710363 105.8691983318838 l 4.835126091561905 1.407434737370969 a26.035803497085762,26.035803497085762 0 0,0 -0.12859663573238586,0.4280563765640406 l -4.8102531358258895 -1.490228717525733" fill="#ff1c02" stroke="none" /><path d="M 120.05942366710727 106.21446072829308 l 4.8102531358258895 1.490228717525733 a26.035803497085762,26.035803497085762 0 0,0 -0.13592584363669238,0.42578576922025807 l -4.783962576411942 -1.5725835204373746" fill="#ff1c02" stroke="none" /><path d="M 119.94978838288452 106.5578916946017 l 4.883628463420523 1.6053456771131527 a26.140716069941714,26.140716069941714 0 0,0 -0.14379208555313433,0.42509575075864287 l -4.855350956295023 -1.688943102345956" fill="#ff1e03" stroke="none" /><path d="M 119.83427380445688 106.89939002012753 l 9.61161311756362 3.3434179781134237 a31.176519567027476,31.176519567027476 0 0,0 -0.18017033872743482,0.503968503557716 l -9.552802608792241 -3.5079214380520614" fill="#ff6709" stroke="none" /><path d="M 119.71291397450082 107.23885506374661 l 4.727160053835337 1.7358786497577212 a26.035803497085762,26.035803497085762 0 0,0 -0.15766453938409486,0.4182239223904225 l -4.696664830636801 -1.8167708523423027" fill="#ff1c02" stroke="none" /><path d="M 119.58574465831526 107.57618678355244 l 4.647741238650998 1.797846155963736 a25.983347210657783,25.983347210657783 0 0,0 -0.16448860033333812,0.4146187247465809 l -4.616193963351536 -1.8773658979238812" fill="#ff1c02" stroke="none" /><path d="M 119.4528033332814 107.91128576633889 l 4.859151540370041 1.9761746293935603 a26.24562864279767,26.24562864279767 0 0,0 -0.1733138279356663,0.4158900943619001 l -4.824511867897889 -2.0592972331967383" fill="#ff1f03" stroke="none" /><path d="M 119.31412917781788 108.2440532568976 l 4.824511867897889 2.0592972331967383 a26.24562864279767,26.24562864279767 0 0,0 -0.18042759624690635,0.4128536496806471 l -4.788450389634017 -2.14181295265323" fill="#ff1f03" stroke="none" /><path d="M 119.16976305983485 108.57439118712176 l 4.740565885737678 2.120394823126698 a26.193172356369693,26.193172356369693 0 0,0 -0.18711346515164531,0.40887668996036314 l -4.703467955730976 -2.20146049530175" fill="#ff1f03" stroke="none" /><path d="M 119.0197475246899 108.90220220490707 l 30.073689050279867 14.076004985111183 a54.20482930890924,54.20482930890924 0 0,0 -0.40168551234327465,0.839368229473921 l -29.827624279976682 -14.590185716650208" fill="#76ff27" stroke="none" /><path d="M 118.8641267826498 109.22738970284198 l 4.664983892129053 2.2818773869642497 a26.19317235636969,26.19317235636969 0 0,0 -0.20103894255522478,0.40221255575912473 l -4.625125036362096 -2.3616217988871204" fill="#ff1f03" stroke="none" /><path d="M 118.70294669586154 109.54985784667822 l 4.531688166940641 2.3139122675964723 a26.088259783513738,26.088259783513738 0 0,0 -0.20708106668557513,0.3971052500317083 l -4.491299031280117 -2.391363760732683" fill="#ff1d02" stroke="none" /><path d="M 118.5362547648365 109.86951160357373 l 4.676507238755585 2.489976699319598 a26.298084929225645,26.298084929225645 0 0,0 -0.21558750556080783,0.3966567281050763 l -4.633074383579438 -2.569888260899278" fill="#ff2003" stroke="none" /><line stroke="#e1ed5e" stroke-width="0.3" x1="174.33088141563837" x2="178.70328620479359" y1="141.23008692659167" y2="143.65538615756765" /><path d="M 175.20536237346943 141.71514677278685 a86.0,86.0 0 0,1 -30.301960400862466,31.631185727798858" fill="none" id="id41" stroke="none" /><text fill="#e1ed5e" style="font-size:6.75px; font-family:Arial;" text-anchor="middle"><textPath startOffset="22.145653131862474" xlink:href="#id41">May</textPath></text><path d="M 118.36410011445183 110.18625677009912 l 8.807428531160914 4.885332139531301 a31.071606994171525,31.071606994171525 0 0,0 -0.262727652253964,0.46421458745533634 l -8.722267513885571 -5.03580349708576" fill="#ff6609" stroke="none" /><path d="M 118.18653347947321 110.5 l 4.406562233577606 2.5441298917568678 a26.088259783513738,26.088259783513738 0 0,0 -0.2272489795890009,0.38591844871442477 l -4.3622395438588395 -2.6193995087648423" fill="#ff1d02" stroke="none" /><path d="M 118.00360718960297 110.81064883170644 l 4.317268002169574 2.5923953901177823 a26.035803497085762,26.035803497085762 0 0,0 -0.23337010901407365,0.38119253462992053 l -4.272129928700096 -2.66612504087226" fill="#ff1c02" stroke="none" /><path d="M 117.81537515405839 111.11811171558189 l 16.955015654528502 10.58118375596178 a40.985845129059115,40.985845129059115 0 0,0 -0.3776207583921016,0.5936825533332164 l -16.77087720451051 -10.870679983973668" fill="#ffeb16" stroke="none" /><path d="M 117.62189284568427 111.42229804090321 l 8.539501778674643 5.53520188160339 a31.176519567027476,31.176519567027476 0 0,0 -0.29495297702276796,0.4465964004341833 l -8.443224362731149 -5.680978160376634" fill="#ff6709" stroke="none" /><path d="M 117.423217284605 111.72311816256416 l 4.265133956431198 2.8697724727675777 a26.140716069941714,26.140716069941714 0 0,0 -0.2537022010500384,0.37015909331414165 l -4.2152420185658395 -2.9425663011517638" fill="#ff1e03" stroke="none" /><path d="M 117.21940702142032 112.02048342749411 l 11.742459908861987 8.197148981779916 a35.32056619483764,35.32056619483764 0 0,0 -0.35133014235593635,0.49418984350274936 l -11.600014667976088 -8.39751605199217" fill="#ffa00e" stroke="none" /><path d="M 116.35404254752997 113.17365903436017 l 5.474042551296462 4.409501192183837 a28.029142381348876,28.029142381348876 0 0,0 -0.30505474501288926,0.3721171877080066 l -5.397540987044945 -4.502820661590337" fill="#ff3a05" stroke="none" /><path d="M 116.1254893667686 113.45245675266167 l 14.299455600007132 11.929114439287835 a39.62198168193173,39.62198168193173 0 0,0 -0.44019160623886644,0.5185446053033345 l -14.092569430261152 -12.172825827040727" fill="#ffda14" stroke="none" /><path d="M 115.89218393027572 113.72728997021213 l 2.381842720607517 2.0573790130209666 a24.1473771856786,24.1473771856786 0 0,0 -0.27365755260049407,0.31137206023530734 l -2.3461741040484374 -2.097963351067567" fill="#ff0000" stroke="none" /><path d="M 115.6541949942343 113.99807769240083 l 3.7929814682116416 3.3917074175592345 a26.088259783513738,26.088259783513738 0 0,0 -0.30138437164355975,0.3312742192072887 l -3.734199395726202 -3.456319212324195" fill="#ff1d02" stroke="none" /><path d="M 115.41159269507618 114.26474011684316 l 3.7726962967130695 3.4919513691522788 a26.140716069941714,26.140716069941714 0 0,0 -0.30764407041156644,0.3267073417010631 l -3.712196392565243 -3.556200170797839" fill="#ff1e03" stroke="none" /><path d="M 115.16444852881244 114.52719865689866 l 3.712196392565243 3.556200170797839 a26.140716069941714,26.140716069941714 0 0,0 -0.31320710431269216,0.3213780810647233 l -3.650602487101744 -3.6194009439302994" fill="#ff1e03" stroke="none" /><path d="M 114.91283532996324 114.78537596483092 l 3.6878535328884983 3.656333606623468 a26.193172356369693,26.193172356369693 0 0,0 -0.3193173219361471,0.3165881304558407 l -3.6245442908223864 -3.7191017473079704" fill="#ff1f03" stroke="none" /><path d="M 114.65682725009322 115.03919595460226 l 3.551321173836074 3.643968378675485 a26.088259783513738,26.088259783513738 0 0,0 -0.3234043722639087,0.30981407292595703 l -3.4882443157068534 -3.704394581907022" fill="#ff1d02" stroke="none" /><path d="M 114.39649973595853 115.28858382429668 l 5.106501987941992 5.422928150832961 a28.44879267277269,28.44879267277269 0 0,0 -0.35841445634652397,0.33174306997720104 l -5.012657760281501 -5.5097889669425415" fill="#ff4006" stroke="none" /><path d="M 114.13192950727249 115.5334660781643 l 3.388839049204395 3.724927752299183 a26.035803497085762,26.035803497085762 0 0,0 -0.33317766449624503,0.2979295220679741 l -3.324396357884772 -3.782552804250544" fill="#ff1c02" stroke="none" /><path d="M 113.86319453409587 115.77377054828091 l 3.428283744068672 3.900757579383374 a26.193172356369693,26.193172356369693 0 0,0 -0.3402873766155224,0.2939321311972131 l -3.360816887690294 -3.959033843045305" fill="#ff1f03" stroke="none" /><path d="M 113.59037401385872 116.0094264158162 l 3.3947645330204983 3.9990240838841458 a26.24562864279767,26.24562864279767 0 0,0 -0.3459744583039097,0.2886241981251314 l -3.3256157405546936 -4.056710465921148" fill="#ff1f03" stroke="none" /><path d="M 113.31354834802062 116.24036423190432 l 3.2923595831491475 4.016143361261936 a26.193172356369693,26.193172356369693 0 0,0 -0.3501768076668041,0.2820776485407839 l -3.2229320051270904 -4.072069303596124" fill="#ff1f03" stroke="none" /><path d="M 113.03279911837588 116.46651593811092 l 3.1903771363884315 4.030937290428485 a26.140716069941714,26.140716069941714 0 0,0 -0.354256563505687,0.27547204648369206 l -3.120710628247514 -4.08511038853297" fill="#ff1e03" stroke="none" /><path d="M 112.45986205192187 116.90419585922612 l 3.081248151058116 4.180304887752004 a26.193172356369693,26.193172356369693 0 0,0 -0.36423351079083777,0.26367697292517117 l -3.00903362989331 -4.232582632050253" fill="#ff1f03" stroke="none" /><path d="M 112.16784306229584 117.11559508785304 l 3.00903362989331 4.232582632050253 a26.193172356369693,26.193172356369693 0 0,0 -0.3687062060130807,0.2573855669641359 l -2.935932332706471 -4.283613014819511" fill="#ff1f03" stroke="none" /><path d="M 111.8722381534696 117.32195027204791 l 2.906276450557919 4.240344196487998 a26.140716069941714,26.140716069941714 0 0,0 -0.37232310515818484,0.25051560140266765 l -2.833057057302731 -4.289609471947787" fill="#ff1e03" stroke="none" /><path d="M 111.5731344415666 117.5232005979908 l 2.833057057302731 4.289609471947787 a26.140716069941714,26.140716069941714 0 0,0 -0.37656867591654497,0.244087266155435 l -2.759002749129176 -4.337610579807117" fill="#ff1e03" stroke="none" /><path d="M 111.27062007382361 117.71928675628689 l 2.7871558384060062 4.38187191225413 a26.193172356369693,26.193172356369693 0 0,0 -0.3814672232081658,0.2380637604757382 l -2.7115244864081256 -4.429071469571416" fill="#ff1f03" stroke="none" /><path d="M 110.96478420261333 117.91015095944535 l 2.6841353501817795 4.384333373919177 a26.140716069941714,26.140716069941714 0 0,0 -0.3847256693976955,0.23101671040698962 l -2.6084769242266472 -4.42976408486209" fill="#ff1e03" stroke="none" /><line stroke="#e1ed5e" stroke-width="0.3" x1="143.1302829299769" x2="145.66735839644613" y1="173.24464959558577" y2="177.55315839532614" /><path d="M 143.63769802327073 174.10635135553383 a86.0,86.0 0 0,1 -40.68552437913181,11.842963189579606" fill="none" id="id42" stroke="none" /><text fill="#e1ed5e" style="font-size:6.75px; font-family:Arial;" text-anchor="middle"><textPath startOffset="21.407464694133747" xlink:href="#id42">June</textPath></text><path d="M 110.65571695917076 118.09573695890943 l 9.715245687170677 16.498611132394522 a40.14654454621149,40.14654454621149 0 0,0 -0.5968596950812031,0.3445971056235719 l -9.430593524229074 -16.662955135294265" fill="#ffe015" stroke="none" /><path d="M 110.34350942703117 118.27599006163325 l 2.506212525617042 4.428237392119298 a26.088259783513738,26.088259783513738 0 0,0 -0.3916416913164922,0.2172370442745625 l -2.4298266461444555 -4.470607351827004" fill="#ff1d02" stroke="none" /><path d="M 110.02825361518725 118.45085714620011 l 2.47992616462166 4.562784822998694 a26.19317235636969,26.19317235636969 0 0,0 -0.39690287589653833,0.2113284257715174 l -2.401234472938568 -4.604683716492779" fill="#ff1f03" stroke="none" /><path d="M 109.71004243097381 118.62028667847754 l 23.139168557408023 44.372406722566794 a71.04329725228975,71.04329725228975 0 0,0 -1.0861937536866901,0.5546182700693307 l -22.37404758200775 -44.76308294430896" fill="#3cffa7" stroke="none" /><line stroke="#e1ed5e" stroke-width="0.3" x1="101.45913802915013" x2="101.54496967792366" y1="184.9874750549273" y2="189.98673829345242" /><path d="M 101.47630435890484 185.9873277026323 a86.0,86.0 0 0,1 -42.54439059252881,-10.42667462771756" fill="none" id="id43" stroke="none" /><text fill="#e1ed5e" style="font-size:6.75px; font-family:Arial;" text-anchor="middle"><textPath startOffset="22.145653131862474" xlink:href="#id43">July</textPath></text><line stroke="#e1ed5e" stroke-width="0.3" x1="58.13341422392154" x2="55.67067388415222" y1="173.97424548756322" y2="178.32567169271397" /><path d="M 57.64086615596768 174.84453072859336 a86.0,86.0 0 0,1 -31.369924170532247,-30.572349798747897" fill="none" id="id44" stroke="none" /><text fill="#e1ed5e" style="font-size:6.75px; font-family:Arial;" text-anchor="middle"><textPath startOffset="22.145653131862474" xlink:href="#id44">August</textPath></text><line stroke="#e1ed5e" stroke-width="0.3" x1="26.387840678322732" x2="22.057713659400548" y1="142.50000000000003" y2="145.00000000000006" /><path d="M 25.521815274538298 143.00000000000003 a86.0,86.0 0 0,1 -11.493303480769221,-40.785679425670985" fill="none" id="id45" stroke="none" /><text fill="#e1ed5e" style="font-size:6.75px; font-family:Arial;" text-anchor="middle"><textPath startOffset="21.40746469413373" xlink:href="#id45">September</textPath></text><line stroke="#e1ed5e" stroke-width="0.3" x1="15.003131293944662" x2="10.003315487706104" y1="100.72959589197737" y2="100.7725132973878" /><path d="M 14.003168132696942 100.73817937305945 a86.0,86.0 0 0,1 10.791469493833604,-42.45332614584628" fill="none" id="id46" stroke="none" /><text fill="#e1ed5e" style="font-size:6.75px; font-family:Arial;" text-anchor="middle"><textPath startOffset="22.145653131862435" xlink:href="#id46">October</textPath></text><line stroke="#e1ed5e" stroke-width="0.3" x1="26.387840678322718" x2="22.05771365940052" y1="57.49999999999999" y2="54.99999999999999" /><path d="M 25.521815274538284 56.99999999999999 a86.0,86.0 0 0,1 29.574782752854787,-30.34633250058573" fill="none" id="id47" stroke="none" /><text fill="#e1ed5e" style="font-size:6.75px; font-family:Arial;" text-anchor="middle"><textPath startOffset="21.40746469413373" xlink:href="#id47">November</textPath></text><line stroke="#e1ed5e" stroke-width="0.3" x1="56.869717070023135" x2="54.33264160355391" y1="26.7553504044142" y2="22.446841604673864" /><path d="M 56.362301976729285 25.89364864446614 a86.0,86.0 0 0,1 42.16139366436587,-11.88097634709845" fill="none" id="id48" stroke="none" /><text fill="#e1ed5e" style="font-size:6.75px; font-family:Arial;" text-anchor="middle"><textPath startOffset="22.145653131862474" xlink:href="#id48">December</textPath></text></svg>